<svg width="294" height="295" viewBox="0 0 294 295" xmlns="http://www.w3.org/2000/svg">
  <defs>
    <linearGradient x1="90%" y1="90%" x2="10%" y2="10%" id="a">
      <stop class="heartlogo-gradient-stop1" offset="0%"/>
      <stop class="heartlogo-gradient-stop2" offset="100%"/>
    </linearGradient>
  </defs>
  <g fill="none" fill-rule="evenodd">
    <g>
      <g class="transition transition-17">
        <path d="M291 273l3-3v21.154c0 1.337-.14 1.822-.4 2.311a2.726 2.726 0 01-1.135 1.134c-.489.262-.974.401-2.31.401H269l3-3h19v-19zm-23.154-8h22.308-22.308zM264 291.154v-22.308 22.308z" class="heartlogo-emptybox-bottom"/>
        <path d="M289 265l-3 3h-19v19l-3 3v-21.154c0-1.337.14-1.822.4-2.311a2.726 2.726 0 011.135-1.134c.489-.262.974-.401 2.31-.401H289zm5 3.846v22.308-22.308zM290.154 295h-22.308 22.308z" class="heartlogo-emptybox-top"/>
      </g>
      <g class="transition transition-16">
        <path d="M258 273l3-3v21.154c0 1.337-.14 1.822-.4 2.311a2.726 2.726 0 01-1.135 1.134c-.489.262-.974.401-2.31.401H236l3-3h19v-19zm-23.154-8h22.308-22.308zM231 291.154v-22.308 22.308z" class="heartlogo-emptybox-bottom"/>
        <path d="M256 265l-3 3h-19v19l-3 3v-21.154c0-1.337.14-1.822.4-2.311a2.726 2.726 0 011.135-1.134c.489-.262.974-.401 2.31-.401H256zm5 3.846v22.308-22.308zM257.154 295h-22.308 22.308z" class="heartlogo-emptybox-top"/>
      </g>
      <g class="transition transition-15">
        <path d="M225 273l3-3v21.154c0 1.337-.14 1.822-.4 2.311a2.726 2.726 0 01-1.135 1.134c-.489.262-.974.401-2.31.401H203l3-3h19v-19zm-23.154-8h22.308-22.308zM198 291.154v-22.308 22.308z" class="heartlogo-emptybox-bottom"/>
        <path d="M223 265l-3 3h-19v19l-3 3v-21.154c0-1.337.14-1.822.4-2.311a2.726 2.726 0 011.135-1.134c.489-.262.974-.401 2.31-.401H223zm5 3.846v22.308-22.308zM224.154 295h-22.308 22.308z" class="heartlogo-emptybox-top"/>
      </g>
      <g class="transition transition-14">
        <path d="M192 273l3-3v21.154c0 1.337-.14 1.822-.4 2.311a2.726 2.726 0 01-1.135 1.134c-.489.262-.974.401-2.31.401H170l3-3h19v-19zm-23.154-8h22.308-22.308zM165 291.154v-22.308 22.308z" class="heartlogo-emptybox-bottom"/>
        <path d="M190 265l-3 3h-19v19l-3 3v-21.154c0-1.337.14-1.822.4-2.311a2.726 2.726 0 011.135-1.134c.489-.262.974-.401 2.31-.401H190zm5 3.846v22.308-22.308zM191.154 295h-22.308 22.308z" class="heartlogo-emptybox-top"/>
      </g>
      <path class="transition transition-13" d="M137.128 265H162v24.872c0 1.783-.186 2.43-.534 3.082a3.635 3.635 0 01-1.512 1.512c-.652.348-1.299.534-3.082.534H132v-24.872c0-1.783.186-2.43.534-3.082a3.635 3.635 0 011.512-1.512c.652-.348 1.299-.534 3.082-.534z" fill="url(#a)"/>
      <g class="transition transition-12">
        <path d="M126 273l3-3v21.154c0 1.337-.14 1.822-.4 2.311a2.726 2.726 0 01-1.135 1.134c-.489.262-.974.401-2.31.401H104l3-3h19v-19zm-23.154-8h22.308-22.308zM99 291.154v-22.308 22.308z" class="heartlogo-emptybox-bottom"/>
        <path d="M124 265l-3 3h-19v19l-3 3v-21.154c0-1.337.14-1.822.4-2.311a2.726 2.726 0 011.135-1.134c.489-.262.974-.401 2.31-.401H124zm5 3.846v22.308-22.308zM125.154 295h-22.308 22.308z" class="heartlogo-emptybox-top"/>
      </g>
      <g class="transition transition-11">
        <path d="M93 273l3-3v21.154c0 1.337-.14 1.822-.4 2.311a2.726 2.726 0 01-1.135 1.134c-.489.262-.974.401-2.31.401H71l3-3h19v-19zm-23.154-8h22.308-22.308zM66 291.154v-22.308 22.308z" class="heartlogo-emptybox-bottom"/>
        <path d="M91 265l-3 3H69v19l-3 3v-21.154c0-1.337.14-1.822.4-2.311a2.726 2.726 0 011.135-1.134c.489-.262.974-.401 2.31-.401H91zm5 3.846v22.308-22.308zM92.154 295H69.846h22.308z" class="heartlogo-emptybox-top"/>
      </g>
      <g class="transition transition-10">
        <path d="M60 273l3-3v21.154c0 1.337-.14 1.822-.4 2.311a2.726 2.726 0 01-1.135 1.134c-.489.262-.974.401-2.31.401H38l3-3h19v-19zm-23.154-8h22.308-22.308zM33 291.154v-22.308 22.308z" class="heartlogo-emptybox-bottom"/>
        <path d="M58 265l-3 3H36v19l-3 3v-21.154c0-1.337.14-1.822.4-2.311a2.726 2.726 0 011.135-1.134c.489-.262.974-.401 2.31-.401H58zm5 3.846v22.308-22.308zM59.154 295H36.846h22.308z" class="heartlogo-emptybox-top"/>
      </g>
      <g class="transition transition-9">
        <path d="M27 273l3-3v21.154c0 1.337-.14 1.822-.4 2.311a2.726 2.726 0 01-1.135 1.134c-.489.262-.974.401-2.31.401H5l3-3h19v-19zm-23.154-8h22.308H3.846zM0 291.154v-22.308 22.308z" class="heartlogo-emptybox-bottom"/>
        <path d="M25 265l-3 3H3v19l-3 3v-21.154c0-1.337.14-1.822.4-2.311a2.726 2.726 0 011.135-1.134c.489-.262.974-.401 2.31-.401H25zm5 3.846v22.308-22.308zM26.154 295H3.846h22.308z" class="heartlogo-emptybox-top"/>
      </g>

      <g class="transition transition-16">
        <path d="M291 240l3-3v21.154c0 1.337-.14 1.822-.4 2.311a2.726 2.726 0 01-1.135 1.134c-.489.262-.974.401-2.31.401H269l3-3h19v-19zm-23.154-8h22.308-22.308zM264 258.154v-22.308 22.308z" class="heartlogo-emptybox-bottom"/>
        <path d="M289 232l-3 3h-19v19l-3 3v-21.154c0-1.337.14-1.822.4-2.311a2.726 2.726 0 011.135-1.134c.489-.262.974-.401 2.31-.401H289zm5 3.846v22.308-22.308zM290.154 262h-22.308 22.308z" class="heartlogo-emptybox-top"/>
      </g>
      <g class="transition transition-15">
        <path d="M258 240l3-3v21.154c0 1.337-.14 1.822-.4 2.311a2.726 2.726 0 01-1.135 1.134c-.489.262-.974.401-2.31.401H236l3-3h19v-19zm-23.154-8h22.308-22.308zM231 258.154v-22.308 22.308z" class="heartlogo-emptybox-bottom"/>
        <path d="M256 232l-3 3h-19v19l-3 3v-21.154c0-1.337.14-1.822.4-2.311a2.726 2.726 0 011.135-1.134c.489-.262.974-.401 2.31-.401H256zm5 3.846v22.308-22.308zM257.154 262h-22.308 22.308z" class="heartlogo-emptybox-top"/>
      </g>
      <g class="transition transition-14">
        <path d="M225 240l3-3v21.154c0 1.337-.14 1.822-.4 2.311a2.726 2.726 0 01-1.135 1.134c-.489.262-.974.401-2.31.401H203l3-3h19v-19zm-23.154-8h22.308-22.308zM198 258.154v-22.308 22.308z" class="heartlogo-emptybox-bottom"/>
        <path d="M223 232l-3 3h-19v19l-3 3v-21.154c0-1.337.14-1.822.4-2.311a2.726 2.726 0 011.135-1.134c.489-.262.974-.401 2.31-.401H223zm5 3.846v22.308-22.308zM224.154 262h-22.308 22.308z" class="heartlogo-emptybox-top"/>
      </g>
      <path class="transition transition-13" d="M170.128 232H195v24.872c0 1.783-.186 2.43-.534 3.082a3.635 3.635 0 01-1.512 1.512c-.652.348-1.299.534-3.082.534H165v-24.872c0-1.783.186-2.43.534-3.082a3.635 3.635 0 011.512-1.512c.652-.348 1.299-.534 3.082-.534z" fill="url(#a)"/>
      <path class="transition transition-12" d="M137.128 232H162v24.872c0 1.783-.186 2.43-.534 3.082a3.635 3.635 0 01-1.512 1.512c-.652.348-1.299.534-3.082.534H132v-24.872c0-1.783.186-2.43.534-3.082a3.635 3.635 0 011.512-1.512c.652-.348 1.299-.534 3.082-.534z" fill="url(#a)"/>
      <path class="transition transition-11" d="M104.128 232H129v24.872c0 1.783-.186 2.43-.534 3.082a3.635 3.635 0 01-1.512 1.512c-.652.348-1.299.534-3.082.534H99v-24.872c0-1.783.186-2.43.534-3.082a3.635 3.635 0 011.512-1.512c.652-.348 1.299-.534 3.082-.534z" fill="url(#a)"/>
      <g class="transition transition-10">
        <path d="M93 240l3-3v21.154c0 1.337-.14 1.822-.4 2.311a2.726 2.726 0 01-1.135 1.134c-.489.262-.974.401-2.31.401H71l3-3h19v-19zm-23.154-8h22.308-22.308zM66 258.154v-22.308 22.308z" class="heartlogo-emptybox-bottom"/>
        <path d="M91 232l-3 3H69v19l-3 3v-21.154c0-1.337.14-1.822.4-2.311a2.726 2.726 0 011.135-1.134c.489-.262.974-.401 2.31-.401H91zm5 3.846v22.308-22.308zM92.154 262H69.846h22.308z" class="heartlogo-emptybox-top"/>
      </g>
      <g class="transition transition-9">
        <path d="M60 240l3-3v21.154c0 1.337-.14 1.822-.4 2.311a2.726 2.726 0 01-1.135 1.134c-.489.262-.974.401-2.31.401H38l3-3h19v-19zm-23.154-8h22.308-22.308zM33 258.154v-22.308 22.308z" class="heartlogo-emptybox-bottom"/>
        <path d="M58 232l-3 3H36v19l-3 3v-21.154c0-1.337.14-1.822.4-2.311a2.726 2.726 0 011.135-1.134c.489-.262.974-.401 2.31-.401H58zm5 3.846v22.308-22.308zM59.154 262H36.846h22.308z" class="heartlogo-emptybox-top"/>
      </g>
      <g class="transition transition-8">
        <path d="M27 240l3-3v21.154c0 1.337-.14 1.822-.4 2.311a2.726 2.726 0 01-1.135 1.134c-.489.262-.974.401-2.31.401H5l3-3h19v-19zm-23.154-8h22.308H3.846zM0 258.154v-22.308 22.308z" class="heartlogo-emptybox-bottom"/>
        <path d="M25 232l-3 3H3v19l-3 3v-21.154c0-1.337.14-1.822.4-2.311a2.726 2.726 0 011.135-1.134c.489-.262.974-.401 2.31-.401H25zm5 3.846v22.308-22.308zM26.154 262H3.846h22.308z" class="heartlogo-emptybox-top"/>
      </g>

      <g class="transition transition-15">
        <path d="M291 207l3-3v21.154c0 1.337-.14 1.822-.4 2.311a2.726 2.726 0 01-1.135 1.134c-.489.262-.974.401-2.31.401H269l3-3h19v-19zm-23.154-8h22.308-22.308zM264 225.154v-22.308 22.308z" class="heartlogo-emptybox-bottom"/>
        <path d="M289 199l-3 3h-19v19l-3 3v-21.154c0-1.337.14-1.822.4-2.311a2.726 2.726 0 011.135-1.134c.489-.262.974-.401 2.31-.401H289zm5 3.846v22.308-22.308zM290.154 229h-22.308 22.308z" class="heartlogo-emptybox-top"/>
      </g>
      <g class="transition transition-14">
        <path d="M258 207l3-3v21.154c0 1.337-.14 1.822-.4 2.311a2.726 2.726 0 01-1.135 1.134c-.489.262-.974.401-2.31.401H236l3-3h19v-19zm-23.154-8h22.308-22.308zM231 225.154v-22.308 22.308z" class="heartlogo-emptybox-bottom"/>
        <path d="M256 199l-3 3h-19v19l-3 3v-21.154c0-1.337.14-1.822.4-2.311a2.726 2.726 0 011.135-1.134c.489-.262.974-.401 2.31-.401H256zm5 3.846v22.308-22.308zM257.154 229h-22.308 22.308z" class="heartlogo-emptybox-top"/>
      </g>
      <path class="transition transition-13" d="M203.128 199H228v24.872c0 1.783-.186 2.43-.534 3.082a3.635 3.635 0 01-1.512 1.512c-.652.348-1.299.534-3.082.534H198v-24.872c0-1.783.186-2.43.534-3.082a3.635 3.635 0 011.512-1.512c.652-.348 1.299-.534 3.082-.534z" fill="url(#a)"/>
      <path class="transition transition-12" d="M170.128 199H195v24.872c0 1.783-.186 2.43-.534 3.082a3.635 3.635 0 01-1.512 1.512c-.652.348-1.299.534-3.082.534H165v-24.872c0-1.783.186-2.43.534-3.082a3.635 3.635 0 011.512-1.512c.652-.348 1.299-.534 3.082-.534z" fill="url(#a)"/>
      <path class="transition transition-11" d="M137.128 199H162v24.872c0 1.783-.186 2.43-.534 3.082a3.635 3.635 0 01-1.512 1.512c-.652.348-1.299.534-3.082.534H132v-24.872c0-1.783.186-2.43.534-3.082a3.635 3.635 0 011.512-1.512c.652-.348 1.299-.534 3.082-.534z" fill="url(#a)"/>
      <path class="transition transition-10" d="M104.128 199H129v24.872c0 1.783-.186 2.43-.534 3.082a3.635 3.635 0 01-1.512 1.512c-.652.348-1.299.534-3.082.534H99v-24.872c0-1.783.186-2.43.534-3.082a3.635 3.635 0 011.512-1.512c.652-.348 1.299-.534 3.082-.534z" fill="url(#a)"/>
      <path class="transition transition-9" d="M71.128 199H96v24.872c0 1.783-.186 2.43-.534 3.082a3.635 3.635 0 01-1.512 1.512c-.652.348-1.299.534-3.082.534H66v-24.872c0-1.783.186-2.43.534-3.082a3.635 3.635 0 011.512-1.512c.652-.348 1.299-.534 3.082-.534z" fill="url(#a)"/>
      <g class="transition transition-8">
        <path d="M60 207l3-3v21.154c0 1.337-.14 1.822-.4 2.311a2.726 2.726 0 01-1.135 1.134c-.489.262-.974.401-2.31.401H38l3-3h19v-19zm-23.154-8h22.308-22.308zM33 225.154v-22.308 22.308z" class="heartlogo-emptybox-bottom"/>
        <path d="M58 199l-3 3H36v19l-3 3v-21.154c0-1.337.14-1.822.4-2.311a2.726 2.726 0 011.135-1.134c.489-.262.974-.401 2.31-.401H58zm5 3.846v22.308-22.308zM59.154 229H36.846h22.308z" class="heartlogo-emptybox-top"/>
      </g>
      <g class="transition transition-7">
        <path d="M27 207l3-3v21.154c0 1.337-.14 1.822-.4 2.311a2.726 2.726 0 01-1.135 1.134c-.489.262-.974.401-2.31.401H5l3-3h19v-19zm-23.154-8h22.308H3.846zM0 225.154v-22.308 22.308z" class="heartlogo-emptybox-bottom"/>
        <path d="M25 199l-3 3H3v19l-3 3v-21.154c0-1.337.14-1.822.4-2.311a2.726 2.726 0 011.135-1.134c.489-.262.974-.401 2.31-.401H25zm5 3.846v22.308-22.308zM26.154 229H3.846h22.308z" class="heartlogo-emptybox-top"/>
      </g>

      <g class="transition transition-14">
        <path d="M291 174l3-3v21.154c0 1.337-.14 1.822-.4 2.311a2.726 2.726 0 01-1.135 1.134c-.489.262-.974.401-2.31.401H269l3-3h19v-19zm-23.154-8h22.308-22.308zM264 192.154v-22.308 22.308z" class="heartlogo-emptybox-bottom"/>
        <path d="M289 166l-3 3h-19v19l-3 3v-21.154c0-1.337.14-1.822.4-2.311a2.726 2.726 0 011.135-1.134c.489-.262.974-.401 2.31-.401H289zm5 3.846v22.308-22.308zM290.154 196h-22.308 22.308z" class="heartlogo-emptybox-top"/>
      </g>
      <path class="transition transition-13" d="M236.128 166H261v24.872c0 1.783-.186 2.43-.534 3.082a3.635 3.635 0 01-1.512 1.512c-.652.348-1.299.534-3.082.534H231v-24.872c0-1.783.186-2.43.534-3.082a3.635 3.635 0 011.512-1.512c.652-.348 1.299-.534 3.082-.534z" fill="url(#a)"/>
      <path class="transition transition-12" d="M203.128 166H228v24.872c0 1.783-.186 2.43-.534 3.082a3.635 3.635 0 01-1.512 1.512c-.652.348-1.299.534-3.082.534H198v-24.872c0-1.783.186-2.43.534-3.082a3.635 3.635 0 011.512-1.512c.652-.348 1.299-.534 3.082-.534z" fill="url(#a)"/>
      <path class="transition transition-11" d="M170.128 166H195v24.872c0 1.783-.186 2.43-.534 3.082a3.635 3.635 0 01-1.512 1.512c-.652.348-1.299.534-3.082.534H165v-24.872c0-1.783.186-2.43.534-3.082a3.635 3.635 0 011.512-1.512c.652-.348 1.299-.534 3.082-.534z" fill="url(#a)"/>
      <path class="transition transition-10" d="M137.128 166H162v24.872c0 1.783-.186 2.43-.534 3.082a3.635 3.635 0 01-1.512 1.512c-.652.348-1.299.534-3.082.534H132v-24.872c0-1.783.186-2.43.534-3.082a3.635 3.635 0 011.512-1.512c.652-.348 1.299-.534 3.082-.534z" fill="url(#a)"/>
      <path class="transition transition-9" d="M104.128 166H129v24.872c0 1.783-.186 2.43-.534 3.082a3.635 3.635 0 01-1.512 1.512c-.652.348-1.299.534-3.082.534H99v-24.872c0-1.783.186-2.43.534-3.082a3.635 3.635 0 011.512-1.512c.652-.348 1.299-.534 3.082-.534z" fill="url(#a)"/>
      <path class="transition transition-8" d="M71.128 166H96v24.872c0 1.783-.186 2.43-.534 3.082a3.635 3.635 0 01-1.512 1.512c-.652.348-1.299.534-3.082.534H66v-24.872c0-1.783.186-2.43.534-3.082a3.635 3.635 0 011.512-1.512c.652-.348 1.299-.534 3.082-.534z" fill="url(#a)"/>
      <path class="transition transition-7" d="M38.128 166H63v24.872c0 1.783-.186 2.43-.534 3.082a3.635 3.635 0 01-1.512 1.512c-.652.348-1.299.534-3.082.534H33v-24.872c0-1.783.186-2.43.534-3.082a3.635 3.635 0 011.512-1.512c.652-.348 1.299-.534 3.082-.534z" fill="url(#a)"/>
      <g class="transition transition-6">
        <path d="M27 174l3-3v21.154c0 1.337-.14 1.822-.4 2.311a2.726 2.726 0 01-1.135 1.134c-.489.262-.974.401-2.31.401H5l3-3h19v-19zm-23.154-8h22.308H3.846zM0 192.154v-22.308 22.308z" class="heartlogo-emptybox-bottom"/>
        <path d="M25 166l-3 3H3v19l-3 3v-21.154c0-1.337.14-1.822.4-2.311a2.726 2.726 0 011.135-1.134c.489-.262.974-.401 2.31-.401H25zm5 3.846v22.308-22.308zM26.154 196H3.846h22.308z" class="heartlogo-emptybox-top"/>
      </g>

      <path class="transition transition-13" d="M269.128 133H294v24.872c0 1.783-.186 2.43-.534 3.082a3.635 3.635 0 01-1.512 1.512c-.652.348-1.299.534-3.082.534H264v-24.872c0-1.783.186-2.43.534-3.082a3.635 3.635 0 011.512-1.512c.652-.348 1.299-.534 3.082-.534z" fill="url(#a)"/>
      <path class="transition transition-12" d="M236.128 133H261v24.872c0 1.783-.186 2.43-.534 3.082a3.635 3.635 0 01-1.512 1.512c-.652.348-1.299.534-3.082.534H231v-24.872c0-1.783.186-2.43.534-3.082a3.635 3.635 0 011.512-1.512c.652-.348 1.299-.534 3.082-.534z" fill="url(#a)"/>
      <path class="transition transition-11" d="M203.128 133H228v24.872c0 1.783-.186 2.43-.534 3.082a3.635 3.635 0 01-1.512 1.512c-.652.348-1.299.534-3.082.534H198v-24.872c0-1.783.186-2.43.534-3.082a3.635 3.635 0 011.512-1.512c.652-.348 1.299-.534 3.082-.534z" fill="url(#a)"/>
      <path class="transition transition-10" d="M170.128 133H195v24.872c0 1.783-.186 2.43-.534 3.082a3.635 3.635 0 01-1.512 1.512c-.652.348-1.299.534-3.082.534H165v-24.872c0-1.783.186-2.43.534-3.082a3.635 3.635 0 011.512-1.512c.652-.348 1.299-.534 3.082-.534z" fill="url(#a)"/>
      <path class="transition transition-9" d="M137.128 133H162v24.872c0 1.783-.186 2.43-.534 3.082a3.635 3.635 0 01-1.512 1.512c-.652.348-1.299.534-3.082.534H132v-24.872c0-1.783.186-2.43.534-3.082a3.635 3.635 0 011.512-1.512c.652-.348 1.299-.534 3.082-.534z" fill="url(#a)"/>
      <path class="transition transition-8" d="M104.128 133H129v24.872c0 1.783-.186 2.43-.534 3.082a3.635 3.635 0 01-1.512 1.512c-.652.348-1.299.534-3.082.534H99v-24.872c0-1.783.186-2.43.534-3.082a3.635 3.635 0 011.512-1.512c.652-.348 1.299-.534 3.082-.534z" fill="url(#a)"/>
      <path class="transition transition-7" d="M71.128 133H96v24.872c0 1.783-.186 2.43-.534 3.082a3.635 3.635 0 01-1.512 1.512c-.652.348-1.299.534-3.082.534H66v-24.872c0-1.783.186-2.43.534-3.082a3.635 3.635 0 011.512-1.512c.652-.348 1.299-.534 3.082-.534z" fill="url(#a)"/>
      <path class="transition transition-6" d="M38.128 133H63v24.872c0 1.783-.186 2.43-.534 3.082a3.635 3.635 0 01-1.512 1.512c-.652.348-1.299.534-3.082.534H33v-24.872c0-1.783.186-2.43.534-3.082a3.635 3.635 0 011.512-1.512c.652-.348 1.299-.534 3.082-.534z" fill="url(#a)"/>
      <path class="transition transition-5" d="M5.128 133H30v24.872c0 1.783-.186 2.43-.534 3.082a3.635 3.635 0 01-1.512 1.512c-.652.348-1.299.534-3.082.534H0v-24.872c0-1.783.186-2.43.534-3.082a3.635 3.635 0 011.512-1.512c.652-.348 1.299-.534 3.082-.534z" fill="url(#a)"/>

      <path class="transition transition-12" d="M269.128 100H294v24.872c0 1.783-.186 2.43-.534 3.082a3.635 3.635 0 01-1.512 1.512c-.652.348-1.299.534-3.082.534H264v-24.872c0-1.783.186-2.43.534-3.082a3.635 3.635 0 011.512-1.512c.652-.348 1.299-.534 3.082-.534z" fill="url(#a)"/>
      <path class="transition transition-11" d="M236.128 100H261v24.872c0 1.783-.186 2.43-.534 3.082a3.635 3.635 0 01-1.512 1.512c-.652.348-1.299.534-3.082.534H231v-24.872c0-1.783.186-2.43.534-3.082a3.635 3.635 0 011.512-1.512c.652-.348 1.299-.534 3.082-.534z" fill="url(#a)"/>
      <path class="transition transition-10" d="M203.128 100H228v24.872c0 1.783-.186 2.43-.534 3.082a3.635 3.635 0 01-1.512 1.512c-.652.348-1.299.534-3.082.534H198v-24.872c0-1.783.186-2.43.534-3.082a3.635 3.635 0 011.512-1.512c.652-.348 1.299-.534 3.082-.534z" fill="url(#a)"/>
      <path class="transition transition-9" d="M170.128 100H195v24.872c0 1.783-.186 2.43-.534 3.082a3.635 3.635 0 01-1.512 1.512c-.652.348-1.299.534-3.082.534H165v-24.872c0-1.783.186-2.43.534-3.082a3.635 3.635 0 011.512-1.512c.652-.348 1.299-.534 3.082-.534z" fill="url(#a)"/>
      <path class="transition transition-8" d="M137.128 100H162v24.872c0 1.783-.186 2.43-.534 3.082a3.635 3.635 0 01-1.512 1.512c-.652.348-1.299.534-3.082.534H132v-24.872c0-1.783.186-2.43.534-3.082a3.635 3.635 0 011.512-1.512c.652-.348 1.299-.534 3.082-.534z" fill="url(#a)"/>
      <path class="transition transition-7" d="M104.128 100H129v24.872c0 1.783-.186 2.43-.534 3.082a3.635 3.635 0 01-1.512 1.512c-.652.348-1.299.534-3.082.534H99v-24.872c0-1.783.186-2.43.534-3.082a3.635 3.635 0 011.512-1.512c.652-.348 1.299-.534 3.082-.534z" fill="url(#a)"/>
      <path class="transition transition-6" d="M71.128 100H96v24.872c0 1.783-.186 2.43-.534 3.082a3.635 3.635 0 01-1.512 1.512c-.652.348-1.299.534-3.082.534H66v-24.872c0-1.783.186-2.43.534-3.082a3.635 3.635 0 011.512-1.512c.652-.348 1.299-.534 3.082-.534z" fill="url(#a)"/>
      <rect class="transition transition-5" fill="#F2487D" x="33" y="100" width="30" height="30" rx="3"/>
      <path class="transition transition-4" d="M5.128 100H30v24.872c0 1.783-.186 2.43-.534 3.082a3.635 3.635 0 01-1.512 1.512c-.652.348-1.299.534-3.082.534H0v-24.872c0-1.783.186-2.43.534-3.082a3.635 3.635 0 011.512-1.512c.652-.348 1.299-.534 3.082-.534z" fill="url(#a)"/>
    
      <path class="transition transition-11" d="M269.128 67H294v24.872c0 1.783-.186 2.43-.534 3.082a3.635 3.635 0 01-1.512 1.512c-.652.348-1.299.534-3.082.534H264V72.128c0-1.783.186-2.43.534-3.082a3.635 3.635 0 011.512-1.512c.652-.348 1.299-.534 3.082-.534z" fill="url(#a)"/>
      <path class="transition transition-10" d="M236.128 67H261v24.872c0 1.783-.186 2.43-.534 3.082a3.635 3.635 0 01-1.512 1.512c-.652.348-1.299.534-3.082.534H231V72.128c0-1.783.186-2.43.534-3.082a3.635 3.635 0 011.512-1.512c.652-.348 1.299-.534 3.082-.534z" fill="url(#a)"/>
      <path class="transition transition-9" d="M203.128 67H228v24.872c0 1.783-.186 2.43-.534 3.082a3.635 3.635 0 01-1.512 1.512c-.652.348-1.299.534-3.082.534H198V72.128c0-1.783.186-2.43.534-3.082a3.635 3.635 0 011.512-1.512c.652-.348 1.299-.534 3.082-.534z" fill="url(#a)"/>
      <path class="transition transition-8" d="M170.128 67H195v24.872c0 1.783-.186 2.43-.534 3.082a3.635 3.635 0 01-1.512 1.512c-.652.348-1.299.534-3.082.534H165V72.128c0-1.783.186-2.43.534-3.082a3.635 3.635 0 011.512-1.512c.652-.348 1.299-.534 3.082-.534z" fill="url(#a)"/>
      <path class="transition transition-7" d="M137.128 67H162v24.872c0 1.783-.186 2.43-.534 3.082a3.635 3.635 0 01-1.512 1.512c-.652.348-1.299.534-3.082.534H132V72.128c0-1.783.186-2.43.534-3.082a3.635 3.635 0 011.512-1.512c.652-.348 1.299-.534 3.082-.534z" fill="url(#a)"/>
      <path class="transition transition-6" d="M104.128 67H129v24.872c0 1.783-.186 2.43-.534 3.082a3.635 3.635 0 01-1.512 1.512c-.652.348-1.299.534-3.082.534H99V72.128c0-1.783.186-2.43.534-3.082a3.635 3.635 0 011.512-1.512c.652-.348 1.299-.534 3.082-.534z" fill="url(#a)"/>
      <rect class="transition transition-5" fill="#F2487D" x="66" y="67" width="30" height="30" rx="3"/>
      <path class="transition transition-4" d="M38.128 67H63v24.872c0 1.783-.186 2.43-.534 3.082a3.635 3.635 0 01-1.512 1.512c-.652.348-1.299.534-3.082.534H33V72.128c0-1.783.186-2.43.534-3.082a3.635 3.635 0 011.512-1.512c.652-.348 1.299-.534 3.082-.534z" fill="url(#a)"/>
      <path class="transition transition-3" d="M5.128 67H30v24.872c0 1.783-.186 2.43-.534 3.082a3.635 3.635 0 01-1.512 1.512c-.652.348-1.299.534-3.082.534H0V72.128c0-1.783.186-2.43.534-3.082a3.635 3.635 0 011.512-1.512C2.698 67.186 3.345 67 5.128 67z" fill="url(#a)"/>
      
      <g class="transition transition-10">
        <path d="M291 41l3-3v21.154c0 1.337-.14 1.822-.4 2.311a2.726 2.726 0 01-1.135 1.134c-.489.262-.974.401-2.31.401H269l3-3h19V41zm-23.154-8h22.308-22.308zM264 59.154V36.846v22.308z" class="heartlogo-emptybox-bottom"/>
        <path d="M289 33l-3 3h-19v19l-3 3V36.846c0-1.337.14-1.822.4-2.311a2.726 2.726 0 011.135-1.134c.489-.262.974-.401 2.31-.401H289zm5 3.846v22.308-22.308zM290.154 63h-22.308 22.308z" class="heartlogo-emptybox-top"/>
      </g>
      <path class="transition transition-9" d="M236.128 34H261v24.872c0 1.783-.186 2.43-.534 3.082a3.635 3.635 0 01-1.512 1.512c-.652.348-1.299.534-3.082.534H231V39.128c0-1.783.186-2.43.534-3.082a3.635 3.635 0 011.512-1.512c.652-.348 1.299-.534 3.082-.534z" fill="url(#a)"/>
      <path class="transition transition-8" d="M203.128 34H228v24.872c0 1.783-.186 2.43-.534 3.082a3.635 3.635 0 01-1.512 1.512c-.652.348-1.299.534-3.082.534H198V39.128c0-1.783.186-2.43.534-3.082a3.635 3.635 0 011.512-1.512c.652-.348 1.299-.534 3.082-.534z" fill="url(#a)"/>
      <path class="transition transition-7" d="M170.128 34H195v24.872c0 1.783-.186 2.43-.534 3.082a3.635 3.635 0 01-1.512 1.512c-.652.348-1.299.534-3.082.534H165V39.128c0-1.783.186-2.43.534-3.082a3.635 3.635 0 011.512-1.512c.652-.348 1.299-.534 3.082-.534z" fill="url(#a)"/>
      <g class="transition transition-6">
        <path d="M159 41l3-3v21.154c0 1.337-.14 1.822-.4 2.311a2.726 2.726 0 01-1.135 1.134c-.489.262-.974.401-2.31.401H137l3-3h19V41zm-23.154-8h22.308-22.308zM132 59.154V36.846v22.308z" class="heartlogo-emptybox-bottom"/>
        <path d="M157 33l-3 3h-19v19l-3 3V36.846c0-1.337.14-1.822.4-2.311a2.726 2.726 0 011.135-1.134c.489-.262.974-.401 2.31-.401H157zm5 3.846v22.308-22.308zM158.154 63h-22.308 22.308z" class="heartlogo-emptybox-top"/>
      </g>
      <path class="transition transition-5" d="M104.128 34H129v24.872c0 1.783-.186 2.43-.534 3.082a3.635 3.635 0 01-1.512 1.512c-.652.348-1.299.534-3.082.534H99V39.128c0-1.783.186-2.43.534-3.082a3.635 3.635 0 011.512-1.512c.652-.348 1.299-.534 3.082-.534z" fill="url(#a)"/>
      <path class="transition transition-4" d="M71.128 34H96v24.872c0 1.783-.186 2.43-.534 3.082a3.635 3.635 0 01-1.512 1.512c-.652.348-1.299.534-3.082.534H66V39.128c0-1.783.186-2.43.534-3.082a3.635 3.635 0 011.512-1.512c.652-.348 1.299-.534 3.082-.534z" fill="url(#a)"/>
      <path class="transition transition-3" d="M38.128 34H63v24.872c0 1.783-.186 2.43-.534 3.082a3.635 3.635 0 01-1.512 1.512c-.652.348-1.299.534-3.082.534H33V39.128c0-1.783.186-2.43.534-3.082a3.635 3.635 0 011.512-1.512c.652-.348 1.299-.534 3.082-.534z" fill="url(#a)"/>
      <g class="transition transition-2">
        <path d="M27 42l3-3v21.154c0 1.337-.14 1.822-.4 2.311a2.726 2.726 0 01-1.135 1.134c-.489.262-.974.401-2.31.401H5l3-3h19V42zM3.846 34h22.308H3.846zM0 60.154V37.846v22.308z" class="heartlogo-emptybox-bottom"/>
        <path d="M25 34l-3 3H3v19l-3 3V37.846c0-1.337.14-1.822.4-2.311A2.726 2.726 0 011.536 34.4c.489-.262.974-.401 2.31-.401H25zm5 3.846v22.308-22.308zM26.154 64H3.846h22.308z" class="heartlogo-emptybox-top"/>
      </g>

      <g class="transition transition-9">
        <path d="M291 8l3-3v21.154c0 1.337-.14 1.822-.4 2.311a2.726 2.726 0 01-1.135 1.134c-.489.262-.974.401-2.31.401H269l3-3h19V8zm-23.154-8h22.308-22.308zM264 26.154V3.846v22.308z" class="heartlogo-emptybox-bottom"/>
        <path d="M289 0l-3 3h-19v19l-3 3V3.846c0-1.337.14-1.822.4-2.311A2.726 2.726 0 01265.536.4c.489-.262.974-.401 2.31-.401H289zm5 3.846v22.308V3.846zM290.154 30h-22.308 22.308z" class="heartlogo-emptybox-top"/>
      </g>
      <g class="transition transition-8">
        <path d="M258 8l3-3v21.154c0 1.337-.14 1.822-.4 2.311a2.726 2.726 0 01-1.135 1.134c-.489.262-.974.401-2.31.401H236l3-3h19V8zm-23.154-8h22.308-22.308zM231 26.154V3.846v22.308z" class="heartlogo-emptybox-bottom"/>
        <path d="M256 0l-3 3h-19v19l-3 3V3.846c0-1.337.14-1.822.4-2.311A2.726 2.726 0 01232.536.4c.489-.262.974-.401 2.31-.401H256zm5 3.846v22.308V3.846zM257.154 30h-22.308 22.308z" class="heartlogo-emptybox-top"/>
      </g>
      <path class="transition transition-7" d="M203.128 1H228v24.872c0 1.783-.186 2.43-.534 3.082a3.635 3.635 0 01-1.512 1.512c-.652.348-1.299.534-3.082.534H198V6.128c0-1.783.186-2.43.534-3.082a3.635 3.635 0 011.512-1.512c.652-.348 1.299-.534 3.082-.534z" fill="url(#a)"/>
      <g class="transition transition-6">
        <path d="M192 8l3-3v21.154c0 1.337-.14 1.822-.4 2.311a2.726 2.726 0 01-1.135 1.134c-.489.262-.974.401-2.31.401H170l3-3h19V8zm-23.154-8h22.308-22.308zM165 26.154V3.846v22.308z" class="heartlogo-emptybox-bottom"/>
        <path d="M190 0l-3 3h-19v19l-3 3V3.846c0-1.337.14-1.822.4-2.311A2.726 2.726 0 01166.536.4c.489-.262.974-.401 2.31-.401H190zm5 3.846v22.308V3.846zM191.154 30h-22.308 22.308z" class="heartlogo-emptybox-top"/>
      </g>
      <g class="transition transition-5">
        <path d="M159 8l3-3v21.154c0 1.337-.14 1.822-.4 2.311a2.726 2.726 0 01-1.135 1.134c-.489.262-.974.401-2.31.401H137l3-3h19V8zm-23.154-8h22.308-22.308zM132 26.154V3.846v22.308z" class="heartlogo-emptybox-bottom"/>
        <path d="M157 0l-3 3h-19v19l-3 3V3.846c0-1.337.14-1.822.4-2.311A2.726 2.726 0 01133.536.4c.489-.262.974-.401 2.31-.401H157zm5 3.846v22.308V3.846zM158.154 30h-22.308 22.308z" class="heartlogo-emptybox-top"/>
      </g>
      <g class="transition transition-4">
        <path d="M126 8l3-3v21.154c0 1.337-.14 1.822-.4 2.311a2.726 2.726 0 01-1.135 1.134c-.489.262-.974.401-2.31.401H104l3-3h19V8zm-23.154-8h22.308-22.308zM99 26.154V3.846v22.308z" class="heartlogo-emptybox-bottom"/>
        <path d="M124 0l-3 3h-19v19l-3 3V3.846c0-1.337.14-1.822.4-2.311A2.726 2.726 0 01100.536.4c.489-.262.974-.401 2.31-.401H124zm5 3.846v22.308V3.846zM125.154 30h-22.308 22.308z" class="heartlogo-emptybox-top"/>
      </g>
      <path class="transition transition-3" d="M71.128 1H96v24.872c0 1.783-.186 2.43-.534 3.082a3.635 3.635 0 01-1.512 1.512c-.652.348-1.299.534-3.082.534H66V6.128c0-1.783.186-2.43.534-3.082a3.635 3.635 0 011.512-1.512C68.698 1.186 69.345 1 71.128 1z" fill="url(#a)"/>
      <g class="transition transition-2">
        <path d="M60 9l3-3v21.154c0 1.337-.14 1.822-.4 2.311a2.726 2.726 0 01-1.135 1.134c-.489.262-.974.401-2.31.401H38l3-3h19V9zM36.846 1h22.308-22.308zM33 27.154V4.846v22.308z" class="heartlogo-emptybox-bottom"/>
        <path d="M58 1l-3 3H36v19l-3 3V4.846c0-1.337.14-1.822.4-2.311A2.726 2.726 0 0134.536 1.4c.489-.262.974-.401 2.31-.401H58zm5 3.846v22.308V4.846zM59.154 31H36.846h22.308z" class="heartlogo-emptybox-top"/>
      </g>
      <g class="transition transition-1">
        <path d="M27 9l3-3v21.154c0 1.337-.14 1.822-.4 2.311a2.726 2.726 0 01-1.135 1.134c-.489.262-.974.401-2.31.401H5l3-3h19V9zM3.846 1h22.308H3.846zM0 27.154V4.846v22.308z" class="heartlogo-emptybox-bottom"/>
        <path d="M25 1l-3 3H3v19l-3 3V4.846c0-1.337.14-1.822.4-2.311A2.726 2.726 0 011.536 1.4C2.024 1.139 2.509 1 3.845 1H25zm5 3.846v22.308V4.846zM26.154 31H3.846h22.308z" class="heartlogo-emptybox-top"/>
      </g>
    </g>
  </g>
</svg>
