<?xml version="1.0" encoding="UTF-8"?>
<svg viewBox="0 0 706 355" version="1.1" xmlns="http://www.w3.org/2000/svg" xmlns:xlink="http://www.w3.org/1999/xlink">
    <title>Logo of a heart made of gears</title>
    <defs>
        <path d="M350.949685,190.781616 C373.060515,171.172932 387,142.522229 387,110.609243 C387,51.5000469 339.178639,3.58257608 280.188,3.58257608 C245.174435,3.58257608 214.095751,20.4636607 194.615998,46.5463764 C175.329341,18.7077751 143.195022,0.480353856 106.812,0.480353856 C47.8213613,0.480353856 0,48.3978247 0,107.507021 C0,139.555581 14.0581732,168.31408 36.3325525,187.92881 L195,354.480354 L350.949685,190.781616 Z" id="path-1"></path>
        <path d="M350.949685,190.781616 C373.060515,171.172932 387,142.522229 387,110.609243 C387,51.5000469 339.178639,3.58257608 280.188,3.58257608 C245.174435,3.58257608 214.095751,20.4636607 194.615998,46.5463764 C175.329341,18.7077751 143.195022,0.480353856 106.812,0.480353856 C47.8213613,0.480353856 0,48.3978247 0,107.507021 C0,139.555581 14.0581732,168.31408 36.3325525,187.92881 L195,354.480354 L350.949685,190.781616 Z" id="path-3"></path>
        <path d="M350.949685,190.781616 C373.060515,171.172932 387,142.522229 387,110.609243 C387,51.5000469 339.178639,3.58257608 280.188,3.58257608 C245.174435,3.58257608 214.095751,20.4636607 194.615998,46.5463764 C175.329341,18.7077751 143.195022,0.480353856 106.812,0.480353856 C47.8213613,0.480353856 0,48.3978247 0,107.507021 C0,139.555581 14.0581732,168.31408 36.3325525,187.92881 L195,354.480354 L350.949685,190.781616 Z" id="path-5"></path>
    </defs>
    <g id="Page-1" stroke="none" stroke-width="1" fill="none" fill-rule="evenodd">
        <g id="heart-logo" transform="translate(-2.000000, 0.000000)">
            <g id="designy-outside" transform="translate(0.000000, 216.000000)" fill="#1D5FC4" font-family="'Exo 2'" font-size="48" font-weight="400">
                <text id="designy">
                    <tspan x="0.04" y="48">designy</tspan>
                </text>
                <text id="outside">
                    <tspan x="6.136" y="101">outside</tspan>
                </text>
            </g>
            <g id="mathy-inside" transform="translate(568.000000, 216.000000)" fill="#42543F" font-family="'Exo 2'" font-size="48" font-weight="400">
                <text id="mathy">
                    <tspan x="0" y="48">mathy</tspan>
                </text>
                <text id="inside">
                    <tspan x="0" y="101">inside</tspan>
                </text>
            </g>
            <g id="Group-5" transform="translate(181.000000, 0.000000)">
                <g id="Combined-Shape" fill="#DEDFDF" fill-rule="nonzero">
                    <path d="M350.949685,190.781616 C373.060515,171.172932 387,142.522229 387,110.609243 C387,51.5000469 339.178639,3.58257608 280.188,3.58257608 C245.174435,3.58257608 214.095751,20.4636607 194.615998,46.5463764 C175.329341,18.7077751 143.195022,0.480353856 106.812,0.480353856 C47.8213613,0.480353856 0,48.3978247 0,107.507021 C0,139.555581 14.0581732,168.31408 36.3325525,187.92881 L195,354.480354 L350.949685,190.781616 Z" id="path-1"></path>
                </g>
                <g id="Group-Clipped">
                    <mask id="mask-2" fill="white">
                        <use xlink:href="#path-1"></use>
                    </mask>
                    <g id="path-1"></g>
                    <g id="Group" mask="url(#mask-2)">
                        <g transform="translate(-144.000000, -109.000000)">
                            <g transform="translate(178.458660, 179.369474) rotate(7.500000) translate(-178.458660, -179.369474) translate(19.458660, 19.869474)">
                                <path d="M159.790262,306.992528 C240.539671,306.992528 306,241.49144 306,160.691753 C306,79.8920657 240.539671,14.3909774 159.790262,14.3909774 C79.0408537,14.3909774 13.5805243,79.8920657 13.5805243,160.691753 C13.5805243,241.49144 79.0408537,306.992528 159.790262,306.992528 Z" id="Oval-581" fill="#1D5FC4" fill-rule="nonzero"></path>
                                <g id="Blue-Spoke" transform="translate(159.292893, 158.792893) rotate(135.000000) translate(-159.292893, -158.792893) translate(146.292893, 0.292893)" fill="#1D5FC4" fill-rule="nonzero">
                                    <g id="Spoke">
                                        <polygon id="Rectangle-98-Copy-9" points="0 303 0 12 8 0.254882812 18 0.254882812 26 12 26 303 18.0909091 317 7.90909091 317"></polygon>
                                    </g>
                                </g>
                                <g id="Blue-Spoke" transform="translate(147.000000, 2.000000)" fill="#1D5FC4" fill-rule="nonzero">
                                    <g id="Spoke">
                                        <polygon id="Rectangle-98-Copy-9" points="0 303 0 12 8 0.254882812 18 0.254882812 26 12 26 303 18.0909091 317 7.90909091 317"></polygon>
                                    </g>
                                </g>
                                <g id="Blue-Spoke" transform="translate(159.741181, 160.465926) rotate(15.000000) translate(-159.741181, -160.465926) translate(146.741181, 1.965926)" fill="#1D5FC4" fill-rule="nonzero">
                                    <g id="Spoke">
                                        <polygon id="Rectangle-98-Copy-9" points="0 303 0 12 8 0.254882812 18 0.254882812 26 12 26 303 18.0909091 317 7.90909091 317"></polygon>
                                    </g>
                                </g>
                                <g id="Blue-Spoke" transform="translate(159.500000, 160.366025) rotate(30.000000) translate(-159.500000, -160.366025) translate(146.500000, 1.866025)" fill="#1D5FC4" fill-rule="nonzero">
                                    <g id="Spoke">
                                        <polygon id="Rectangle-98-Copy-9" points="0 303 0 12 8 0.254882812 18 0.254882812 26 12 26 303 18.0909091 317 7.90909091 317"></polygon>
                                    </g>
                                </g>
                                <g id="Blue-Spoke" transform="translate(159.292893, 160.207107) rotate(45.000000) translate(-159.292893, -160.207107) translate(146.292893, 1.707107)" fill="#1D5FC4" fill-rule="nonzero">
                                    <g id="Spoke">
                                        <polygon id="Rectangle-98-Copy-9" points="0 303 0 12 8 0.254882812 18 0.254882812 26 12 26 303 18.0909091 317 7.90909091 317"></polygon>
                                    </g>
                                </g>
                                <g id="Blue-Spoke" transform="translate(159.133975, 160.000000) rotate(60.000000) translate(-159.133975, -160.000000) translate(146.133975, 1.500000)" fill="#1D5FC4" fill-rule="nonzero">
                                    <g id="Spoke">
                                        <polygon id="Rectangle-98-Copy-9" points="0 303 0 12 8 0.254882812 18 0.254882812 26 12 26 303 18.0909091 317 7.90909091 317"></polygon>
                                    </g>
                                </g>
                                <g id="Blue-Spoke" transform="translate(159.034074, 159.758819) rotate(75.000000) translate(-159.034074, -159.758819) translate(146.034074, 1.258819)" fill="#1D5FC4" fill-rule="nonzero">
                                    <g id="Spoke">
                                        <polygon id="Rectangle-98-Copy-9" points="0 303 0 12 8 0.254882812 18 0.254882812 26 12 26 303 18.0909091 317 7.90909091 317"></polygon>
                                    </g>
                                </g>
                                <g id="Blue-Spoke" transform="translate(159.000000, 159.500000) rotate(90.000000) translate(-159.000000, -159.500000) translate(146.000000, 1.000000)" fill="#1D5FC4" fill-rule="nonzero">
                                    <g id="Spoke">
                                        <polygon id="Rectangle-98-Copy-9" points="0 303 0 12 8 0.254882812 18 0.254882812 26 12 26 303 18.0909091 317 7.90909091 317"></polygon>
                                    </g>
                                </g>
                                <g id="Blue-Spoke" transform="translate(159.034074, 159.241181) rotate(105.000000) translate(-159.034074, -159.241181) translate(146.034074, 0.741181)" fill="#1D5FC4" fill-rule="nonzero">
                                    <g id="Spoke">
                                        <polygon id="Rectangle-98-Copy-9" points="0 303 0 12 8 0.254882812 18 0.254882812 26 12 26 303 18.0909091 317 7.90909091 317"></polygon>
                                    </g>
                                </g>
                                <g id="Blue-Spoke" transform="translate(159.133975, 159.000000) rotate(120.000000) translate(-159.133975, -159.000000) translate(146.133975, 0.500000)" fill="#1D5FC4" fill-rule="nonzero">
                                    <g id="Spoke">
                                        <polygon id="Rectangle-98-Copy-9" points="0 303 0 12 8 0.254882812 18 0.254882812 26 12 26 303 18.0909091 317 7.90909091 317"></polygon>
                                    </g>
                                </g>
                                <g id="Blue-Spoke" transform="translate(159.500000, 158.633975) rotate(150.000000) translate(-159.500000, -158.633975) translate(146.500000, 0.133975)" fill="#1D5FC4" fill-rule="nonzero">
                                    <g id="Spoke">
                                        <polygon id="Rectangle-98-Copy-9" points="0 303 0 12 8 0.254882812 18 0.254882812 26 12 26 303 18.0909091 317 7.90909091 317"></polygon>
                                    </g>
                                </g>
                                <g id="Blue-Spoke" transform="translate(159.741181, 158.534074) rotate(165.000000) translate(-159.741181, -158.534074) translate(146.741181, 0.034074)" fill="#1D5FC4" fill-rule="nonzero">
                                    <g id="Spoke">
                                        <polygon id="Rectangle-98-Copy-9" points="0 303 0 12 8 0.254882812 18 0.254882812 26 12 26 303 18.0909091 317 7.90909091 317"></polygon>
                                    </g>
                                </g>
                                <g id="Blue-Spoke" transform="translate(160.000000, 158.500000) rotate(-180.000000) translate(-160.000000, -158.500000) translate(147.000000, 0.000000)" fill="#1D5FC4" fill-rule="nonzero">
                                    <g id="Spoke">
                                        <polygon id="Rectangle-98-Copy-9" points="0 303 0 12 8 0.254882812 18 0.254882812 26 12 26 303 18.0909091 317 7.90909091 317"></polygon>
                                    </g>
                                </g>
                            </g>
                        </g>
                    </g>
                </g>
                <g id="Group-3-Clipped">
                    <mask id="mask-4" fill="white">
                        <use xlink:href="#path-3"></use>
                    </mask>
                    <g id="path-1"></g>
                    <g id="Group-3" mask="url(#mask-4)">
                        <g transform="translate(256.000000, -8.000000)" id="Group">
                            <g transform="translate(0.000000, 0.480354)">
                                <circle id="Oval-581-Copy" fill="#42543F" fill-rule="nonzero" cx="110" cy="110" r="101"></circle>
                                <g id="Green-Spoke" transform="translate(110.000000, 110.000000) rotate(22.500000) translate(-110.000000, -110.000000) translate(97.000000, 0.000000)" fill="#41533E" fill-rule="nonzero">
                                    <g id="Spoke">
                                        <polygon id="Rectangle-98-Copy-9" points="0 210 0 10 8.90909091 0 17.0909091 0 26 10 26 210 17.0909091 220 8.90909091 220"></polygon>
                                    </g>
                                </g>
                                <g id="Green-Spoke" transform="translate(97.000000, 0.000000)" fill="#41533E" fill-rule="nonzero">
                                    <g id="Spoke">
                                        <polygon id="Rectangle-98-Copy-9" points="0 210 0 10 8.90909091 0 17.0909091 0 26 10 26 210 17.0909091 220 8.90909091 220"></polygon>
                                    </g>
                                </g>
                                <g id="Green-Spoke" transform="translate(110.000000, 110.000000) rotate(22.500000) translate(-110.000000, -110.000000) translate(97.000000, 0.000000)" fill="#41533E" fill-rule="nonzero">
                                    <g id="Spoke">
                                        <polygon id="Rectangle-98-Copy-9" points="0 210 0 10 8.90909091 0 17.0909091 0 26 10 26 210 17.0909091 220 8.90909091 220"></polygon>
                                    </g>
                                </g>
                                <g id="Green-Spoke" transform="translate(110.000000, 110.000000) rotate(45.000000) translate(-110.000000, -110.000000) translate(97.000000, 0.000000)" fill="#41533E" fill-rule="nonzero">
                                    <g id="Spoke">
                                        <polygon id="Rectangle-98-Copy-9" points="0 210 0 10 8.90909091 0 17.0909091 0 26 10 26 210 17.0909091 220 8.90909091 220"></polygon>
                                    </g>
                                </g>
                                <g id="Green-Spoke" transform="translate(110.000000, 110.000000) rotate(67.500000) translate(-110.000000, -110.000000) translate(97.000000, 0.000000)" fill="#41533E" fill-rule="nonzero">
                                    <g id="Spoke">
                                        <polygon id="Rectangle-98-Copy-9" points="0 210 0 10 8.90909091 0 17.0909091 0 26 10 26 210 17.0909091 220 8.90909091 220"></polygon>
                                    </g>
                                </g>
                                <g id="Green-Spoke" transform="translate(110.000000, 110.000000) rotate(90.000000) translate(-110.000000, -110.000000) translate(97.000000, 0.000000)" fill="#41533E" fill-rule="nonzero">
                                    <g id="Spoke">
                                        <polygon id="Rectangle-98-Copy-9" points="0 210 0 10 8.90909091 0 17.0909091 0 26 10 26 210 17.0909091 220 8.90909091 220"></polygon>
                                    </g>
                                </g>
                                <g id="Green-Spoke" transform="translate(110.000000, 110.000000) rotate(112.500000) translate(-110.000000, -110.000000) translate(97.000000, 0.000000)" fill="#41533E" fill-rule="nonzero">
                                    <g id="Spoke">
                                        <polygon id="Rectangle-98-Copy-9" points="0 210 0 10 8.90909091 0 17.0909091 0 26 10 26 210 17.0909091 220 8.90909091 220"></polygon>
                                    </g>
                                </g>
                                <g id="Green-Spoke" transform="translate(110.000000, 110.000000) rotate(135.000000) translate(-110.000000, -110.000000) translate(97.000000, 0.000000)" fill="#41533E" fill-rule="nonzero">
                                    <g id="Spoke">
                                        <polygon id="Rectangle-98-Copy-9" points="0 210 0 10 8.90909091 0 17.0909091 0 26 10 26 210 17.0909091 220 8.90909091 220"></polygon>
                                    </g>
                                </g>
                                <g id="Green-Spoke" transform="translate(110.000000, 110.000000) rotate(135.000000) translate(-110.000000, -110.000000) translate(97.000000, 0.000000)" fill="#41533E" fill-rule="nonzero">
                                    <g id="Spoke">
                                        <polygon id="Rectangle-98-Copy-9" points="0 210 0 10 8.90909091 0 17.0909091 0 26 10 26 210 17.0909091 220 8.90909091 220"></polygon>
                                    </g>
                                </g>
                                <g id="Green-Spoke" transform="translate(110.000000, 110.000000) rotate(157.500000) translate(-110.000000, -110.000000) translate(97.000000, 0.000000)" fill="#41533E" fill-rule="nonzero">
                                    <g id="Spoke">
                                        <polygon id="Rectangle-98-Copy-9" points="0 210 0 10 8.90909091 0 17.0909091 0 26 10 26 210 17.0909091 220 8.90909091 220"></polygon>
                                    </g>
                                </g>
                                <g id="Green-Spoke" transform="translate(110.000000, 110.000000) rotate(165.000000) translate(-110.000000, -110.000000) translate(97.000000, 0.000000)" fill="#41533E" fill-rule="nonzero">
                                    <g id="Spoke">
                                        <polygon id="Rectangle-98-Copy-9" points="0 210 0 10 8.90909091 0 17.0909091 0 26 10 26 210 17.0909091 220 8.90909091 220"></polygon>
                                    </g>
                                </g>
                            </g>
                        </g>
                    </g>
                </g>
                <g id="Group-2-Clipped">
                    <mask id="mask-6" fill="white">
                        <use xlink:href="#path-5"></use>
                    </mask>
                    <g id="path-1"></g>
                    <g id="Group-2" mask="url(#mask-6)">
                        <g transform="translate(109.000000, 143.000000)" id="Group">
                            <g transform="translate(0.000000, 0.480354)">
                                <circle id="Oval-583" fill="#BB1C1C" fill-rule="nonzero" cx="108.5" cy="107.5" r="97.75"></circle>
                                <g id="Orange-Spoke" transform="translate(108.000000, 108.000000) rotate(135.000000) translate(-108.000000, -108.000000) translate(95.000000, 1.000000)" fill="#BB1C1C" fill-rule="nonzero">
                                    <g id="Spoke">
                                        <polygon id="Rectangle-98-Copy-9" points="8.66976734e-07 204 0 10 7.90909091 0 18.0909091 0 26 10 26.0000009 204 18.09091 214 7.90909178 214"></polygon>
                                    </g>
                                </g>
                                <g id="Orange-Spoke" transform="translate(108.000000, 108.000000) rotate(35.000000) translate(-108.000000, -108.000000) translate(95.000000, 1.000000)" fill="#BB1C1C" fill-rule="nonzero">
                                    <g id="Spoke">
                                        <polygon id="Rectangle-98-Copy-9" points="8.66976734e-07 204 0 10 7.90909091 0 18.0909091 0 26 10 26.0000009 204 18.09091 214 7.90909178 214"></polygon>
                                    </g>
                                </g>
                                <g id="Orange-Spoke" transform="translate(108.000000, 108.000000) rotate(55.000000) translate(-108.000000, -108.000000) translate(95.000000, 1.000000)" fill="#BB1C1C" fill-rule="nonzero">
                                    <g id="Spoke">
                                        <polygon id="Rectangle-98-Copy-9" points="8.66976734e-07 204 0 10 7.90909091 0 18.0909091 0 26 10 26.0000009 204 18.09091 214 7.90909178 214"></polygon>
                                    </g>
                                </g>
                                <g id="Orange-Spoke" transform="translate(108.000000, 108.000000) rotate(75.000000) translate(-108.000000, -108.000000) translate(95.000000, 1.000000)" fill="#BB1C1C" fill-rule="nonzero">
                                    <g id="Spoke">
                                        <polygon id="Rectangle-98-Copy-9" points="8.66976734e-07 204 0 10 7.90909091 0 18.0909091 0 26 10 26.0000009 204 18.09091 214 7.90909178 214"></polygon>
                                    </g>
                                </g>
                                <g id="Orange-Spoke" transform="translate(108.000000, 108.000000) rotate(95.000000) translate(-108.000000, -108.000000) translate(95.000000, 1.000000)" fill="#BB1C1C" fill-rule="nonzero">
                                    <g id="Spoke">
                                        <polygon id="Rectangle-98-Copy-9" points="8.66976734e-07 204 0 10 7.90909091 0 18.0909091 0 26 10 26.0000009 204 18.09091 214 7.90909178 214"></polygon>
                                    </g>
                                </g>
                                <g id="Orange-Spoke" transform="translate(108.000000, 108.000000) rotate(115.000000) translate(-108.000000, -108.000000) translate(95.000000, 1.000000)" fill="#BB1C1C" fill-rule="nonzero">
                                    <g id="Spoke">
                                        <polygon id="Rectangle-98-Copy-9" points="8.66976734e-07 204 0 10 7.90909091 0 18.0909091 0 26 10 26.0000009 204 18.09091 214 7.90909178 214"></polygon>
                                    </g>
                                </g>
                                <g id="Orange-Spoke" transform="translate(108.000000, 108.000000) rotate(155.000000) translate(-108.000000, -108.000000) translate(95.000000, 1.000000)" fill="#BB1C1C" fill-rule="nonzero">
                                    <g id="Spoke">
                                        <polygon id="Rectangle-98-Copy-9" points="8.66976734e-07 204 0 10 7.90909091 0 18.0909091 0 26 10 26.0000009 204 18.09091 214 7.90909178 214"></polygon>
                                    </g>
                                </g>
                                <g id="Orange-Spoke" transform="translate(108.000000, 108.000000) rotate(175.000000) translate(-108.000000, -108.000000) translate(95.000000, 1.000000)" fill="#BB1C1C" fill-rule="nonzero">
                                    <g id="Spoke">
                                        <polygon id="Rectangle-98-Copy-9" points="8.66976734e-07 204 0 10 7.90909091 0 18.0909091 0 26 10 26.0000009 204 18.09091 214 7.90909178 214"></polygon>
                                    </g>
                                </g>
                                <g id="Orange-Spoke" transform="translate(108.000000, 108.000000) rotate(15.000000) translate(-108.000000, -108.000000) translate(95.000000, 1.000000)" fill="#BB1C1C" fill-rule="nonzero">
                                    <g id="Spoke">
                                        <polygon id="Rectangle-98-Copy-9" points="8.66976734e-07 204 0 10 7.90909091 0 18.0909091 0 26 10 26.0000009 204 18.09091 214 7.90909178 214"></polygon>
                                    </g>
                                </g>
                            </g>
                        </g>
                    </g>
                </g>
            </g>
        </g>
    </g>
</svg>