<?xml version="1.0" encoding="UTF-8"?>
<svg width="700px" height="400px" viewBox="0 0 700 400" version="1.1" xmlns="http://www.w3.org/2000/svg" xmlns:xlink="http://www.w3.org/1999/xlink">
    <!-- Generator: Sketch 50.2 (55047) - http://www.bohemiancoding.com/sketch -->
    <title>Artboard</title>
    <desc>Created with Sketch.</desc>
    <defs>
        <path d="M362.738693,196.539612 C385.592264,176.339117 400,146.823705 400,113.94755 C400,53.0543743 350.572237,3.69070212 289.6,3.69070212 C253.410269,3.69070212 221.287598,21.0812762 201.153486,47.9511966 C181.218957,19.2723961 148.005191,0.494851457 110.4,0.494851457 C49.4277636,0.494851457 0,49.8585236 0,110.7517 C0,143.76752 14.5304116,173.393982 37.5530258,193.600706 L201.550388,365.178956 L362.738693,196.539612 Z" id="path-1"></path>
        <path d="M362.738693,196.539612 C385.592264,176.339117 400,146.823705 400,113.94755 C400,53.0543743 350.572237,3.69070212 289.6,3.69070212 C253.410269,3.69070212 221.287598,21.0812762 201.153486,47.9511966 C181.218957,19.2723961 148.005191,0.494851457 110.4,0.494851457 C49.4277636,0.494851457 0,49.8585236 0,110.7517 C0,143.76752 14.5304116,173.393982 37.5530258,193.600706 L201.550388,365.178956 L362.738693,196.539612 Z" id="path-3"></path>
        <path d="M362.738693,196.539612 C385.592264,176.339117 400,146.823705 400,113.94755 C400,53.0543743 350.572237,3.69070212 289.6,3.69070212 C253.410269,3.69070212 221.287598,21.0812762 201.153486,47.9511966 C181.218957,19.2723961 148.005191,0.494851457 110.4,0.494851457 C49.4277636,0.494851457 0,49.8585236 0,110.7517 C0,143.76752 14.5304116,173.393982 37.5530258,193.600706 L201.550388,365.178956 L362.738693,196.539612 Z" id="path-5"></path>
    </defs>
    <g id="Artboard" stroke="none" stroke-width="1" fill="none" fill-rule="evenodd">
        <g id="Group" transform="translate(150.000000, 17.000000)">
            <g id="a-link" fill="#DEDFDF" fill-rule="nonzero">
                <path d="M362.738693,196.539612 C385.592264,176.339117 400,146.823705 400,113.94755 C400,53.0543743 350.572237,3.69070212 289.6,3.69070212 C253.410269,3.69070212 221.287598,21.0812762 201.153486,47.9511966 C181.218957,19.2723961 148.005191,0.494851457 110.4,0.494851457 C49.4277636,0.494851457 0,49.8585236 0,110.7517 C0,143.76752 14.5304116,173.393982 37.5530258,193.600706 L201.550388,365.178956 L362.738693,196.539612 Z" id="a"></path>
            </g>
            <g id="Clipped">
                <mask id="mask-2" fill="white">
                    <use xlink:href="#path-1"></use>
                </mask>
                <g id="a"></g>
                <g id="Group" mask="url(#mask-2)">
                    <g transform="translate(-141.333333, -106.806841)">
                        <path d="M169.598573,320.339896 C253.060495,320.339896 320.71975,252.861914 320.71975,169.623604 C320.71975,86.3852945 253.060495,18.9073122 169.598573,18.9073122 C86.1366527,18.9073122 18.4773975,86.3852945 18.4773975,169.623604 C18.4773975,252.861914 86.1366527,320.339896 169.598573,320.339896 Z" id="Shape" fill="#1D5FC4" fill-rule="nonzero" transform="translate(169.598574, 169.623604) rotate(7.500000) translate(-169.598574, -169.623604) "></path>
                        <g id="Group" stroke-width="1" fill="none" fill-rule="evenodd" transform="translate(58.914729, 29.875252)">
                            <polyline id="Shape" fill="#1D5FC4" fill-rule="nonzero" transform="translate(110.333268, 137.619563) rotate(142.500000) translate(-110.333268, -137.619563) " points="96.8965752 286.326203 96.8965752 -13.4564932 105.165309 -25.5096119 115.501226 -25.5096119 123.76996 -13.4564932 123.76996 286.326203 115.604586 300.748738 105.06195 300.748738"></polyline>
                        </g>
                        <g id="Group" stroke-width="1" fill="none" fill-rule="evenodd" transform="translate(134.366925, 5.150905)">
                            <polyline id="Shape" fill="#1D5FC4" fill-rule="nonzero" transform="translate(35.452035, 164.458238) rotate(7.500000) translate(-35.452035, -164.458238) " points="22.0153428 313.164878 22.0153428 13.3821814 30.2840766 1.32906267 40.6199939 1.32906267 48.8887278 13.3821814 48.8887278 313.164878 40.7233531 327.587413 30.1807175 327.587413"></polyline>
                        </g>
                        <g id="Group" stroke-width="1" fill="none" fill-rule="evenodd" transform="translate(94.056848, 13.392354)">
                            <polyline id="Shape" fill="#1D5FC4" fill-rule="nonzero" transform="translate(75.462468, 156.136896) rotate(22.500000) translate(-75.462468, -156.136896) " points="62.0257751 304.843536 62.0257751 5.06083946 70.2945089 -6.99227925 80.6304262 -6.99227925 88.8991601 5.06083946 88.8991601 304.843536 80.7337854 319.266071 70.1911497 319.266071"></polyline>
                        </g>
                        <g id="Group" stroke-width="1" fill="none" fill-rule="evenodd" transform="translate(58.914729, 30.905433)">
                            <polyline id="Shape" fill="#1D5FC4" fill-rule="nonzero" transform="translate(110.336003, 138.469030) rotate(37.500000) translate(-110.336003, -138.469030) " points="96.899311 287.17567 96.899311 -12.607026 105.168045 -24.6601447 115.503962 -24.6601447 123.772696 -12.607026 123.772696 287.17567 115.607321 301.598205 105.064686 301.598205"></polyline>
                        </g>
                        <g id="Group" stroke-width="1" fill="none" fill-rule="evenodd" transform="translate(30.974160, 58.720322)">
                            <polyline id="Shape" fill="#1D5FC4" fill-rule="nonzero" transform="translate(138.056846, 110.435695) rotate(52.500000) translate(-138.056846, -110.435695) " points="124.620153 259.142335 124.620153 -40.6403615 132.888887 -52.6934802 143.224804 -52.6934802 151.493538 -40.6403615 151.493538 259.142335 143.328163 273.56487 132.785528 273.56487"></polyline>
                        </g>
                        <g id="Group" stroke-width="1" fill="none" fill-rule="evenodd" transform="translate(12.403101, 93.746479)">
                            <polyline id="Shape" fill="#1D5FC4" fill-rule="nonzero" transform="translate(156.473258, 75.142213) rotate(67.500000) translate(-156.473258, -75.142213) " points="143.036565 223.848852 143.036565 -75.9338438 151.305299 -87.9869625 161.641216 -87.9869625 169.90995 -75.9338438 169.90995 223.848852 161.744575 238.271388 151.20194 238.271388"></polyline>
                        </g>
                        <g id="Group" stroke-width="1" fill="none" fill-rule="evenodd" transform="translate(5.134367, 133.923541)">
                            <polyline id="Shape" fill="#1D5FC4" fill-rule="nonzero" transform="translate(163.661462, 34.666256) rotate(82.500000) translate(-163.661462, -34.666256) " points="150.224769 183.372895 150.224769 -116.409801 158.493503 -128.462919 168.829421 -128.462919 177.098154 -116.409801 177.098154 183.372895 168.93278 197.795431 158.390144 197.795431"></polyline>
                        </g>
                        <g id="Group" stroke-width="1" fill="none" fill-rule="evenodd" transform="translate(5.134367, 132.893360)">
                            <polyline id="Shape" fill="#1D5FC4" fill-rule="nonzero" transform="translate(163.661882, 35.386006) rotate(97.500000) translate(-163.661882, -35.386006) " points="150.225189 184.092646 150.225189 -115.69005 158.493923 -127.743169 168.82984 -127.743169 177.098574 -115.69005 177.098574 184.092646 168.933199 198.515181 158.390564 198.515181"></polyline>
                        </g>
                        <g id="Group" stroke-width="1" fill="none" fill-rule="evenodd" transform="translate(12.403101, 92.716298)">
                            <polyline id="Shape" fill="#1D5FC4" fill-rule="nonzero" transform="translate(156.471515, 75.265240) rotate(112.500000) translate(-156.471515, -75.265240) " points="143.034823 223.97188 143.034823 -75.8108159 151.303556 -87.8639346 161.639474 -87.8639346 169.908208 -75.8108159 169.908208 223.97188 161.742833 238.394416 151.200197 238.394416"></polyline>
                        </g>
                        <g id="Group" stroke-width="1" fill="none" fill-rule="evenodd" transform="translate(30.974160, 57.690141)">
                            <polyline id="Shape" fill="#1D5FC4" fill-rule="nonzero" transform="translate(138.057648, 110.023853) rotate(127.500000) translate(-138.057648, -110.023853) " points="124.620956 258.730493 124.620956 -41.0522029 132.88969 -53.1053216 143.225607 -53.1053216 151.494341 -41.0522029 151.494341 258.730493 143.328966 273.153028 132.78633 273.153028"></polyline>
                        </g>
                        <g id="Group" stroke-width="1" fill="none" fill-rule="evenodd" transform="translate(94.056848, 11.331992)">
                            <polyline id="Shape" fill="#1D5FC4" fill-rule="nonzero" transform="translate(75.463146, 156.008379) rotate(157.500000) translate(-75.463146, -156.008379) " points="62.026454 304.715018 62.026454 4.93232223 70.2951878 -7.12079648 80.6311051 -7.12079648 88.899839 4.93232223 88.899839 304.715018 80.7344643 319.137554 70.1918286 319.137554"></polyline>
                        </g>
                        <g id="Group" stroke-width="1" fill="none" fill-rule="evenodd" transform="translate(134.366925, 3.090543)">
                            <polyline id="Shape" fill="#1D5FC4" fill-rule="nonzero" transform="translate(35.451835, 164.170074) rotate(172.500000) translate(-35.451835, -164.170074) " points="22.0151428 312.876714 22.0151428 13.0940175 30.2838767 1.04089876 40.619794 1.04089876 48.8885278 13.0940175 48.8885278 312.876714 40.7231531 327.299249 30.1805175 327.299249"></polyline>
                        </g>
                        <g id="Group" stroke-width="1" fill="none" fill-rule="evenodd" transform="translate(135.400517, 3.090543)">
                            <polyline id="Shape" fill="#1D5FC4" fill-rule="nonzero" transform="translate(34.729117, 164.168947) rotate(-172.500000) translate(-34.729117, -164.168947) " points="21.2924248 312.875587 21.2924248 13.0928906 29.5611587 1.03977192 39.897076 1.03977192 48.1658098 13.0928906 48.1658098 312.875587 40.0004352 327.298122 29.4577995 327.298122"></polyline>
                        </g>
                    </g>
                </g>
            </g>
            <g id="Clipped">
                <mask id="mask-4" fill="white">
                    <use xlink:href="#path-3"></use>
                </mask>
                <g id="a"></g>
                <g id="Group" mask="url(#mask-4)">
                    <g transform="translate(292.599483, -15.746962)">
                        <ellipse id="Oval" fill="#42543F" fill-rule="nonzero" cx="113.69509" cy="113.31992" rx="104.392765" ry="104.04829"></ellipse>
                        <g id="Group" stroke-width="1" fill="none" fill-rule="evenodd" transform="translate(57.847545, 3.090543)">
                            <g fill="#41533E" fill-rule="nonzero" id="Shape">
                                <polyline transform="translate(55.847559, 110.229379) rotate(22.500000) translate(-55.847559, -110.229379) " points="42.4108664 213.247488 42.4108664 7.21127032 51.6098328 -3.09054054 60.085285 -3.09054054 69.2842514 7.21127032 69.2842514 213.247488 60.085285 223.549298 51.6098328 223.549298"></polyline>
                            </g>
                        </g>
                        <g id="Group" stroke-width="1" fill="none" fill-rule="evenodd" transform="translate(100.258398, 0.000000)">
                            <g fill="#41533E" fill-rule="nonzero" id="Shape">
                                <polyline points="0 216.338028 0 10.3018109 9.19896641 0 17.6744186 0 26.873385 10.3018109 26.873385 216.338028 17.6744186 226.639839 9.19896641 226.639839"></polyline>
                            </g>
                        </g>
                        <g id="Group" stroke-width="1" fill="none" fill-rule="evenodd" transform="translate(57.847545, 3.090543)">
                            <g fill="#41533E" fill-rule="nonzero" id="Shape">
                                <polyline transform="translate(55.847559, 110.229379) rotate(22.500000) translate(-55.847559, -110.229379) " points="42.4108664 213.247488 42.4108664 7.21127032 51.6098328 -3.09054054 60.085285 -3.09054054 69.2842514 7.21127032 69.2842514 213.247488 60.085285 223.549298 51.6098328 223.549298"></polyline>
                            </g>
                        </g>
                        <g id="Group" stroke-width="1" fill="none" fill-rule="evenodd" transform="translate(23.772610, 22.979879)">
                            <g fill="#41533E" fill-rule="nonzero" id="Shape">
                                <polyline transform="translate(89.922950, 90.340234) rotate(45.000000) translate(-89.922950, -90.340234) " points="76.4862575 193.358343 76.4862575 -12.6778746 85.6852239 -22.9796855 94.1606761 -22.9796855 103.359643 -12.6778746 103.359643 193.358343 94.1606761 203.660154 85.6852239 203.660154"></polyline>
                            </g>
                        </g>
                        <g id="Group" stroke-width="1" fill="none" fill-rule="evenodd" transform="translate(3.100775, 56.659960)">
                            <g fill="#41533E" fill-rule="nonzero" id="Shape">
                                <polyline transform="translate(110.593953, 56.659718) rotate(67.500000) translate(-110.593953, -56.659718) " points="97.1572604 159.677827 97.1572604 -46.3583902 106.356227 -56.6602011 114.831679 -56.6602011 124.030645 -46.3583902 124.030645 159.677827 114.831679 169.979638 106.356227 169.979638"></polyline>
                            </g>
                        </g>
                        <g id="Group" stroke-width="1" fill="none" fill-rule="evenodd" transform="translate(0.000000, 99.213280)">
                            <g fill="#41533E" fill-rule="nonzero" id="Shape">
                                <polyline transform="translate(113.695090, 14.106640) rotate(90.000000) translate(-113.695090, -14.106640) " points="100.258398 117.124748 100.258398 -88.9114688 109.457364 -99.2132797 117.932817 -99.2132797 127.131783 -88.9114688 127.131783 117.124748 117.932817 127.426559 109.457364 127.426559"></polyline>
                            </g>
                        </g>
                        <g id="Group" stroke-width="1" fill="none" fill-rule="evenodd" transform="translate(3.100775, 56.659960)">
                            <g fill="#41533E" fill-rule="nonzero" id="Shape">
                                <polyline transform="translate(110.594636, 56.660438) rotate(112.500000) translate(-110.594636, -56.660438) " points="97.1579436 159.678547 97.1579436 -46.3576702 106.35691 -56.6594811 114.832362 -56.6594811 124.031329 -46.3576702 124.031329 159.678547 114.832362 169.980358 106.35691 169.980358"></polyline>
                            </g>
                        </g>
                        <g id="Group" stroke-width="1" fill="none" fill-rule="evenodd" transform="translate(23.772610, 22.979879)">
                            <g fill="#41533E" fill-rule="nonzero" id="Shape">
                                <polyline transform="translate(89.922950, 90.341170) rotate(135.000000) translate(-89.922950, -90.341170) " points="76.4862575 193.359278 76.4862575 -12.676939 85.6852239 -22.9787498 94.1606761 -22.9787498 103.359643 -12.676939 103.359643 193.359278 94.1606761 203.661089 85.6852239 203.661089"></polyline>
                            </g>
                        </g>
                        <g id="Group" stroke-width="1" fill="none" fill-rule="evenodd" transform="translate(23.772610, 22.979879)">
                            <g fill="#41533E" fill-rule="nonzero" id="Shape">
                                <polyline transform="translate(89.922950, 90.341170) rotate(135.000000) translate(-89.922950, -90.341170) " points="76.4862575 193.359278 76.4862575 -12.676939 85.6852239 -22.9787498 94.1606761 -22.9787498 103.359643 -12.676939 103.359643 193.359278 94.1606761 203.661089 85.6852239 203.661089"></polyline>
                            </g>
                        </g>
                        <g id="Group" stroke-width="1" fill="none" fill-rule="evenodd" transform="translate(57.847545, 3.090543)">
                            <g fill="#41533E" fill-rule="nonzero" id="Shape">
                                <polyline transform="translate(55.847446, 110.228881) rotate(157.500000) translate(-55.847446, -110.228881) " points="42.4107539 213.24699 42.4107539 7.21077248 51.6097203 -3.09103838 60.0851725 -3.09103838 69.2841389 7.21077248 69.2841389 213.24699 60.0851725 223.548801 51.6097203 223.548801"></polyline>
                            </g>
                        </g>
                        <g id="Group" stroke-width="1" fill="none" fill-rule="evenodd" transform="translate(71.284238, 0.000000)">
                            <g fill="#41533E" fill-rule="nonzero" id="Shape">
                                <polyline transform="translate(42.410814, 113.319624) rotate(165.000000) translate(-42.410814, -113.319624) " points="28.9741211 216.337732 28.9741211 10.3015149 38.1730875 -0.000295957239 46.6485397 -0.000295957239 55.8475061 10.3015149 55.8475061 216.337732 46.6485397 226.639543 38.1730875 226.639543"></polyline>
                            </g>
                        </g>
                    </g>
                </g>
            </g>
            <g id="Clipped">
                <mask id="mask-6" fill="white">
                    <use xlink:href="#path-5"></use>
                </mask>
                <g id="a"></g>
                <g id="Group" mask="url(#mask-6)">
                    <g transform="translate(122.661499, 127.810382)">
                        <ellipse id="Oval" fill="#BB1C1C" fill-rule="nonzero" cx="112.144703" cy="110.744467" rx="101.085271" ry="100.75171"></ellipse>
                        <g id="Group" stroke-width="1" fill="none" fill-rule="evenodd" transform="translate(23.772610, 23.694165)">
                            <g fill="#BB1C1C" fill-rule="nonzero" id="Shape">
                                <polyline transform="translate(87.855380, 87.565061) rotate(135.000000) translate(-87.855380, -87.565061) " points="74.4186877 187.492626 74.4186877 -12.3625044 82.5840623 -22.6643153 93.126698 -22.6643153 101.292073 -12.3625044 101.292073 187.492626 93.126698 197.794437 82.5840623 197.794437"></polyline>
                            </g>
                        </g>
                        <g id="Group" stroke-width="1" fill="none" fill-rule="evenodd" transform="translate(37.175711, 12.362173)">
                            <g fill="#BB1C1C" fill-rule="nonzero" id="Shape">
                                <polyline transform="translate(74.451712, 98.897364) rotate(35.000000) translate(-74.451712, -98.897364) " points="61.0150195 198.824929 61.0150195 -1.03020168 69.1803942 -11.3320125 79.7230299 -11.3320125 87.8884045 -1.03020168 87.8884045 198.824929 79.7230299 209.12674 69.1803942 209.12674"></polyline>
                            </g>
                        </g>
                        <g id="Group" stroke-width="1" fill="none" fill-rule="evenodd" transform="translate(13.403101, 36.056338)">
                            <g fill="#BB1C1C" fill-rule="nonzero" id="Shape">
                                <polyline transform="translate(98.225318, 75.202958) rotate(55.000000) translate(-98.225318, -75.202958) " points="84.7886256 175.130524 84.7886256 -24.7246072 92.9540003 -35.026418 103.496636 -35.026418 111.662011 -24.7246072 111.662011 175.130524 103.496636 185.432334 92.9540003 185.432334"></polyline>
                            </g>
                        </g>
                        <g id="Group" stroke-width="1" fill="none" fill-rule="evenodd" transform="translate(1.033592, 69.022133)">
                            <g fill="#BB1C1C" fill-rule="nonzero" id="Shape">
                                <polyline transform="translate(110.593814, 42.237653) rotate(75.000000) translate(-110.593814, -42.237653) " points="97.1571212 142.165219 97.1571212 -57.6899121 105.322496 -67.991723 115.865131 -67.991723 124.030506 -57.6899121 124.030506 142.165219 115.865131 152.46703 105.322496 152.46703"></polyline>
                            </g>
                        </g>
                        <g id="Group" stroke-width="1" fill="none" fill-rule="evenodd" transform="translate(0.000000, 87.565392)">
                            <g fill="#BB1C1C" fill-rule="nonzero" id="Shape">
                                <polyline transform="translate(111.628370, 23.694297) rotate(95.000000) translate(-111.628370, -23.694297) " points="98.1916778 123.621862 98.1916778 -76.2332688 106.357052 -86.5350797 116.899688 -86.5350797 125.065063 -76.2332688 125.065063 123.621862 116.899688 133.923673 106.357052 133.923673"></polyline>
                            </g>
                        </g>
                        <g id="Group" stroke-width="1" fill="none" fill-rule="evenodd" transform="translate(5.167959, 51.509054)">
                            <g fill="#BB1C1C" fill-rule="nonzero" id="Shape">
                                <polyline transform="translate(106.457010, 59.750643) rotate(115.000000) translate(-106.457010, -59.750643) " points="93.0203174 159.678209 93.0203174 -40.1769219 101.185692 -50.4787328 111.728328 -50.4787328 119.893702 -40.1769219 119.893702 159.678209 111.728328 169.98002 101.185692 169.98002"></polyline>
                            </g>
                        </g>
                        <g id="Group" stroke-width="1" fill="none" fill-rule="evenodd" transform="translate(52.679587, 5.150905)">
                            <g fill="#BB1C1C" fill-rule="nonzero" id="Shape">
                                <polyline transform="translate(58.949773, 106.107308) rotate(155.000000) translate(-58.949773, -106.107308) " points="45.5130806 206.034873 45.5130806 6.17974261 53.6784553 -4.12206825 64.2210909 -4.12206825 72.3864656 6.17974261 72.3864656 206.034873 64.2210909 216.336684 53.6784553 216.336684"></polyline>
                            </g>
                        </g>
                        <g id="Group" stroke-width="1" fill="none" fill-rule="evenodd" transform="translate(87.855297, 0.000000)">
                            <g fill="#BB1C1C" fill-rule="nonzero" id="Shape">
                                <polyline transform="translate(23.772270, 111.259789) rotate(175.000000) translate(-23.772270, -111.259789) " points="10.335577 211.187354 10.335577 11.3322235 18.5009517 1.03041267 29.0435873 1.03041267 37.208962 11.3322235 37.208962 211.187354 29.0435873 221.489165 18.5009517 221.489165"></polyline>
                            </g>
                        </g>
                        <g id="Group" stroke-width="1" fill="none" fill-rule="evenodd" transform="translate(69.250646, 1.030181)">
                            <g fill="#BB1C1C" fill-rule="nonzero" id="Shape">
                                <polyline transform="translate(42.377171, 110.229398) rotate(15.000000) translate(-42.377171, -110.229398) " points="28.9404784 210.156963 28.9404784 10.3018324 37.1058531 2.15352576e-05 47.6484888 2.15352576e-05 55.8138635 10.3018324 55.8138635 210.156963 47.6484888 220.458774 37.1058531 220.458774"></polyline>
                            </g>
                        </g>
                    </g>
                </g>
            </g>
        </g>
        <path d="M350.396701,17 L370.369332,17 L370.369332,98.2591398 L409.880903,114.733787 C451.56754,101.747357 472.646454,95.3395512 473.117643,95.5103707 C473.247691,95.5575168 465.836467,98.2887809 450.883971,103.704163 C466.183276,107.198128 473.5945,109.030613 473.117643,109.201618 C472.640786,109.372623 463.729521,108.078066 446.383848,105.317946 L414.666879,116.468839 L427.907155,121.268814 L395.989114,112.894249 C393.581664,120.460417 392.118367,124.175396 391.599223,124.039184 C391.080079,123.902973 391.080079,119.804059 391.599223,111.742442 L368.531742,105.690061 L355.569632,133.25313 L376.769372,149.87807 L364.714013,144.150466 L346.667933,157.134755 L360.991665,143.101434 L352.33849,138.789813 L340.664055,157.134755 L342.767568,176.123071 L370.369332,176.123071 L343.767568,180.329524 L360.991665,280.894018 L342.403071,203.305801 L319.211454,205.494257 L341.403071,200.566449 L333.817545,163.118832 L322.991392,157.134755 C318.677666,177.422309 316.665752,187.447394 316.95565,187.21001 C317.245548,186.972626 317.997482,175.759022 319.211454,153.569198 L270.480092,126.982736 L283.095938,147.529236 L271.876881,133.25313 L252.745375,137.415607 L269.649611,130.418957 L264.635987,124.039184 L238,109.201618 L287.518859,130.982736 L270.480092,62.4151231 L284.324934,107.916822 C287.230708,92.676931 288.741038,85.245772 288.855922,85.6233449 C288.894934,85.7515575 287.696122,94.2065351 285.259488,110.988278 L291.844015,132.628622 L310.730132,143.101434 L319.211454,126.982736 L313.829632,144.820182 L332.849959,155.367417 L360.991665,99.7435438 L356.937185,75.8007504 L341.11067,75.8007504 L336.352057,92.4871911 L338.214227,75.8007504 L310.730132,78.1072968 L355.569632,69.7484097 L350.396701,17 Z" id="Rectangle" fill="#FFFFFF"></path>
    </g>
</svg>