<?xml version="1.0" encoding="UTF-8" standalone="no"?>
<svg width="16px" height="16px" viewBox="0 0 16 16" version="1.1" xmlns="http://www.w3.org/2000/svg" xmlns:xlink="http://www.w3.org/1999/xlink">
    <!-- Generator: Sketch 43.2 (39069) - http://www.bohemiancoding.com/sketch -->
    <title>Shape</title>
    <desc>Created with Sketch.</desc>
    <defs></defs>
    <g id="Page-1" stroke="none" stroke-width="1" fill="none" fill-rule="evenodd">
        <g id="email" fill="#E8E9E9">
            <path d="M15.244,7.386 C15.221,7.993 15.132,8.59 14.978,9.176 C14.823,9.763 14.591,10.286 14.282,10.748 C13.972,11.208 13.579,11.581 13.102,11.865 C12.622,12.148 12.049,12.29 11.379,12.29 C10.909,12.29 10.494,12.188 10.133,11.985 C9.773,11.782 9.493,11.495 9.291,11.122 C8.731,11.878 7.977,12.256 7.033,12.256 C6.62,12.256 6.245,12.164 5.907,11.981 C5.57,11.798 5.287,11.537 5.062,11.196 C4.835,10.856 4.672,10.446 4.572,9.968 C4.472,9.49 4.45,8.956 4.508,8.366 C4.592,7.646 4.756,6.99 4.996,6.404 C5.236,5.817 5.536,5.316 5.898,4.901 C6.258,4.486 6.672,4.166 7.138,3.943 C7.606,3.72 8.108,3.608 8.646,3.608 C8.99,3.608 9.29,3.634 9.548,3.685 C9.806,3.737 10.038,3.807 10.248,3.895 C10.458,3.985 10.65,4.085 10.828,4.201 C11.005,4.315 11.183,4.433 11.36,4.553 L10.922,9.593 C10.892,9.835 10.898,10.031 10.935,10.183 C10.972,10.333 11.032,10.456 11.115,10.547 C11.198,10.639 11.295,10.702 11.407,10.737 C11.517,10.771 11.631,10.787 11.747,10.787 C11.992,10.787 12.221,10.703 12.433,10.535 C12.643,10.365 12.828,10.132 12.983,9.835 C13.137,9.537 13.26,9.185 13.353,8.783 C13.443,8.379 13.498,7.943 13.515,7.473 C13.561,6.58 13.492,5.763 13.309,5.025 C13.125,4.287 12.823,3.655 12.403,3.131 C11.983,2.608 11.441,2.201 10.779,1.911 C10.119,1.623 9.329,1.478 8.413,1.478 C7.543,1.478 6.763,1.648 6.073,1.988 C5.383,2.33 4.79,2.801 4.295,3.402 C3.8,4.004 3.412,4.712 3.131,5.529 C2.851,6.344 2.688,7.229 2.641,8.179 C2.596,9.209 2.679,10.109 2.891,10.883 C3.103,11.657 3.431,12.303 3.879,12.821 C4.325,13.339 4.883,13.727 5.553,13.985 C6.223,14.242 6.993,14.371 7.863,14.371 C8.11,14.371 8.363,14.357 8.619,14.328 C8.877,14.3 9.129,14.26 9.379,14.208 C9.629,14.158 9.866,14.098 10.092,14.032 C10.318,13.965 10.522,13.892 10.706,13.812 L11.023,15.238 C10.823,15.368 10.593,15.482 10.336,15.578 C10.078,15.671 9.808,15.75 9.524,15.813 C9.241,15.877 8.954,15.923 8.661,15.956 C8.369,15.986 8.091,16.003 7.828,16.003 C6.666,16.003 5.635,15.837 4.736,15.505 C3.838,15.173 3.086,14.679 2.482,14.023 C1.878,13.368 1.427,12.553 1.129,11.576 C0.832,10.6 0.706,9.466 0.751,8.179 C0.803,7.005 1.019,5.919 1.401,4.919 C1.781,3.921 2.303,3.059 2.967,2.329 C3.636,1.6 4.43,1.032 5.356,0.62 C6.28,0.206 7.31,0 8.45,0 C9.584,0 10.583,0.18 11.448,0.537 C12.312,0.895 13.034,1.397 13.612,2.047 C14.19,2.697 14.618,3.475 14.896,4.38 C15.174,5.285 15.29,6.287 15.244,7.386 L15.244,7.386 Z M6.656,8.366 C6.593,9.109 6.651,9.672 6.832,10.053 C7.012,10.433 7.302,10.623 7.702,10.623 C7.789,10.623 7.888,10.605 8,10.568 C8.11,10.531 8.226,10.462 8.343,10.362 C8.461,10.262 8.577,10.122 8.691,9.942 C8.807,9.762 8.913,9.524 9.011,9.232 L9.353,5.316 C9.183,5.27 9.003,5.246 8.821,5.246 C8.477,5.246 8.183,5.316 7.936,5.449 C7.69,5.583 7.481,5.782 7.309,6.045 C7.139,6.309 6.999,6.635 6.893,7.025 C6.787,7.415 6.708,7.86 6.657,8.365 L6.656,8.366 Z" id="Shape"></path>
        </g>
    </g>
</svg>