<?xml version="1.0" encoding="UTF-8" standalone="no"?>
<svg width="700px" height="355px" viewBox="0 0 700 355" version="1.1" xmlns="http://www.w3.org/2000/svg" xmlns:xlink="http://www.w3.org/1999/xlink">
    <!-- Generator: Sketch 43.2 (39069) - http://www.bohemiancoding.com/sketch -->
    <title>Group 4</title>
    <desc>Created with Sketch.</desc>
    <defs>
        <path d="M350.949685,190.781616 C373.060515,171.172932 387,142.522229 387,110.609243 C387,51.5000469 339.178639,3.58257608 280.188,3.58257608 C245.174435,3.58257608 214.095751,20.4636607 194.615998,46.5463764 C175.329341,18.7077751 143.195022,0.480353856 106.812,0.480353856 C47.8213613,0.480353856 0,48.3978247 0,107.507021 C0,139.555581 14.0581732,168.31408 36.3325525,187.92881 L195,354.480354 L350.949685,190.781616 Z" id="path-1"></path>
    </defs>
    <g id="Page-1" stroke="none" stroke-width="1" fill="none" fill-rule="evenodd">
        <g id="Desktop-HD-Copy" transform="translate(-356.000000, -144.000000)">
            <g id="Group-4" transform="translate(307.000000, 144.000000)">
                <text id="designy-outside" font-family="Exo2-SemiBold, Exo 2" font-size="48" font-weight="500" line-spacing="53" fill="#1D5FC4">
                    <tspan x="39.04" y="264">designy </tspan>
                    <tspan x="45.136" y="317">outside</tspan>
                </text>
                <text id="mathy-inside" font-family="Exo2-SemiBold, Exo 2" font-size="48" font-weight="500" line-spacing="53" fill="#42543F">
                    <tspan x="607" y="264">mathy </tspan>
                    <tspan x="607" y="317">inside</tspan>
                </text>
                <g id="Group-5" transform="translate(220.000000, 0.000000)">
                    <mask id="mask-2" fill="white">
                        <use xlink:href="#path-1"></use>
                    </mask>
                    <use id="Combined-Shape" fill="#DEDFDF" xlink:href="#path-1"></use>
                    <g id="Group" mask="url(#mask-2)">
                        <g transform="translate(35.450105, 70.500000) rotate(-352.500000) translate(-35.450105, -70.500000) translate(-124.549895, -89.000000)">
                            <path d="M159.790262,306.992528 C240.539671,306.992528 306,241.49144 306,160.691753 C306,79.8920657 240.539671,14.3909774 159.790262,14.3909774 C79.0408537,14.3909774 13.5805243,79.8920657 13.5805243,160.691753 C13.5805243,241.49144 79.0408537,306.992528 159.790262,306.992528 Z" id="Oval-581" fill="#1D5FC4"></path>
                            <g id="Blue-Spoke" fill="none" transform="translate(160.000000, 159.500000) rotate(-225.000000) translate(-160.000000, -159.500000) translate(147.000000, -0.000000)" stroke-width="1">
                                <g id="Spoke" transform="translate(0.000000, 2.000000)" fill="#1D5FC4">
                                    <polygon id="Rectangle-98-Copy-9" points="0 303 0 12 8 0.254882812 18 0.254882812 26 12 26 303 18.0909091 317 7.90909091 317"></polygon>
                                </g>
                            </g>
                            <g id="Blue-Spoke" fill="none" transform="translate(147.000000, -0.000000)" stroke-width="1">
                                <g id="Spoke" transform="translate(0.000000, 2.000000)" fill="#1D5FC4">
                                    <polygon id="Rectangle-98-Copy-9" points="0 303 0 12 8 0.254882812 18 0.254882812 26 12 26 303 18.0909091 317 7.90909091 317"></polygon>
                                </g>
                            </g>
                            <g id="Blue-Spoke" fill="none" transform="translate(160.000000, 159.500000) rotate(-345.000000) translate(-160.000000, -159.500000) translate(147.000000, -0.000000)" stroke-width="1">
                                <g id="Spoke" transform="translate(0.000000, 2.000000)" fill="#1D5FC4">
                                    <polygon id="Rectangle-98-Copy-9" points="0 303 0 12 8 0.254882812 18 0.254882812 26 12 26 303 18.0909091 317 7.90909091 317"></polygon>
                                </g>
                            </g>
                            <g id="Blue-Spoke" fill="none" transform="translate(160.000000, 159.500000) rotate(-330.000000) translate(-160.000000, -159.500000) translate(147.000000, -0.000000)" stroke-width="1">
                                <g id="Spoke" transform="translate(0.000000, 2.000000)" fill="#1D5FC4">
                                    <polygon id="Rectangle-98-Copy-9" points="0 303 0 12 8 0.254882812 18 0.254882812 26 12 26 303 18.0909091 317 7.90909091 317"></polygon>
                                </g>
                            </g>
                            <g id="Blue-Spoke" fill="none" transform="translate(160.000000, 159.500000) rotate(-315.000000) translate(-160.000000, -159.500000) translate(147.000000, -0.000000)" stroke-width="1">
                                <g id="Spoke" transform="translate(0.000000, 2.000000)" fill="#1D5FC4">
                                    <polygon id="Rectangle-98-Copy-9" points="0 303 0 12 8 0.254882812 18 0.254882812 26 12 26 303 18.0909091 317 7.90909091 317"></polygon>
                                </g>
                            </g>
                            <g id="Blue-Spoke" fill="none" transform="translate(160.000000, 159.500000) rotate(-300.000000) translate(-160.000000, -159.500000) translate(147.000000, -0.000000)" stroke-width="1">
                                <g id="Spoke" transform="translate(0.000000, 2.000000)" fill="#1D5FC4">
                                    <polygon id="Rectangle-98-Copy-9" points="0 303 0 12 8 0.254882812 18 0.254882812 26 12 26 303 18.0909091 317 7.90909091 317"></polygon>
                                </g>
                            </g>
                            <g id="Blue-Spoke" fill="none" transform="translate(160.000000, 159.500000) rotate(-285.000000) translate(-160.000000, -159.500000) translate(147.000000, -0.000000)" stroke-width="1">
                                <g id="Spoke" transform="translate(0.000000, 2.000000)" fill="#1D5FC4">
                                    <polygon id="Rectangle-98-Copy-9" points="0 303 0 12 8 0.254882812 18 0.254882812 26 12 26 303 18.0909091 317 7.90909091 317"></polygon>
                                </g>
                            </g>
                            <g id="Blue-Spoke" fill="none" transform="translate(160.000000, 159.500000) rotate(-270.000000) translate(-160.000000, -159.500000) translate(147.000000, -0.000000)" stroke-width="1">
                                <g id="Spoke" transform="translate(0.000000, 2.000000)" fill="#1D5FC4">
                                    <polygon id="Rectangle-98-Copy-9" points="0 303 0 12 8 0.254882812 18 0.254882812 26 12 26 303 18.0909091 317 7.90909091 317"></polygon>
                                </g>
                            </g>
                            <g id="Blue-Spoke" fill="none" transform="translate(160.000000, 159.500000) rotate(-255.000000) translate(-160.000000, -159.500000) translate(147.000000, -0.000000)" stroke-width="1">
                                <g id="Spoke" transform="translate(0.000000, 2.000000)" fill="#1D5FC4">
                                    <polygon id="Rectangle-98-Copy-9" points="0 303 0 12 8 0.254882812 18 0.254882812 26 12 26 303 18.0909091 317 7.90909091 317"></polygon>
                                </g>
                            </g>
                            <g id="Blue-Spoke" fill="none" transform="translate(160.000000, 159.500000) rotate(-240.000000) translate(-160.000000, -159.500000) translate(147.000000, -0.000000)" stroke-width="1">
                                <g id="Spoke" transform="translate(0.000000, 2.000000)" fill="#1D5FC4">
                                    <polygon id="Rectangle-98-Copy-9" points="0 303 0 12 8 0.254882812 18 0.254882812 26 12 26 303 18.0909091 317 7.90909091 317"></polygon>
                                </g>
                            </g>
                            <g id="Blue-Spoke" fill="none" transform="translate(160.000000, 159.500000) rotate(-210.000000) translate(-160.000000, -159.500000) translate(147.000000, -0.000000)" stroke-width="1">
                                <g id="Spoke" transform="translate(0.000000, 2.000000)" fill="#1D5FC4">
                                    <polygon id="Rectangle-98-Copy-9" points="0 303 0 12 8 0.254882812 18 0.254882812 26 12 26 303 18.0909091 317 7.90909091 317"></polygon>
                                </g>
                            </g>
                            <g id="Blue-Spoke" fill="none" transform="translate(160.000000, 159.500000) rotate(-195.000000) translate(-160.000000, -159.500000) translate(147.000000, -0.000000)" stroke-width="1">
                                <g id="Spoke" transform="translate(0.000000, 2.000000)" fill="#1D5FC4">
                                    <polygon id="Rectangle-98-Copy-9" points="0 303 0 12 8 0.254882812 18 0.254882812 26 12 26 303 18.0909091 317 7.90909091 317"></polygon>
                                </g>
                            </g>
                            <g id="Blue-Spoke" fill="none" transform="translate(160.000000, 159.500000) rotate(-180.000000) translate(-160.000000, -159.500000) translate(147.000000, -0.000000)" stroke-width="1">
                                <g id="Spoke" transform="translate(0.000000, 2.000000)" fill="#1D5FC4">
                                    <polygon id="Rectangle-98-Copy-9" points="0 303 0 12 8 0.254882812 18 0.254882812 26 12 26 303 18.0909091 317 7.90909091 317"></polygon>
                                </g>
                            </g>
                        </g>
                    </g>
                    <g id="Group-3" mask="url(#mask-2)">
                        <g transform="translate(256.000000, -7.519646)">
                            <circle id="Oval-581-Copy" fill="#42543F" cx="110" cy="110" r="101"></circle>
                            <g id="Green-Spoke" fill="none" transform="translate(110.000000, 110.000000) rotate(22.500000) translate(-110.000000, -110.000000) translate(97.000000, 0.000000)" stroke-width="1">
                                <g id="Spoke" fill="#41533E">
                                    <polygon id="Rectangle-98-Copy-9" points="0 210 0 10 8.90909091 0 17.0909091 0 26 10 26 210 17.0909091 220 8.90909091 220"></polygon>
                                </g>
                            </g>
                            <g id="Green-Spoke" fill="none" transform="translate(97.000000, 0.000000)" stroke-width="1">
                                <g id="Spoke" fill="#41533E">
                                    <polygon id="Rectangle-98-Copy-9" points="0 210 0 10 8.90909091 0 17.0909091 0 26 10 26 210 17.0909091 220 8.90909091 220"></polygon>
                                </g>
                            </g>
                            <g id="Green-Spoke" fill="none" transform="translate(110.000000, 110.000000) rotate(-337.500000) translate(-110.000000, -110.000000) translate(97.000000, 0.000000)" stroke-width="1">
                                <g id="Spoke" fill="#41533E">
                                    <polygon id="Rectangle-98-Copy-9" points="0 210 0 10 8.90909091 0 17.0909091 0 26 10 26 210 17.0909091 220 8.90909091 220"></polygon>
                                </g>
                            </g>
                            <g id="Green-Spoke" fill="none" transform="translate(110.000000, 110.000000) rotate(-315.000000) translate(-110.000000, -110.000000) translate(97.000000, 0.000000)" stroke-width="1">
                                <g id="Spoke" fill="#41533E">
                                    <polygon id="Rectangle-98-Copy-9" points="0 210 0 10 8.90909091 0 17.0909091 0 26 10 26 210 17.0909091 220 8.90909091 220"></polygon>
                                </g>
                            </g>
                            <g id="Green-Spoke" fill="none" transform="translate(110.000000, 110.000000) rotate(-292.500000) translate(-110.000000, -110.000000) translate(97.000000, 0.000000)" stroke-width="1">
                                <g id="Spoke" fill="#41533E">
                                    <polygon id="Rectangle-98-Copy-9" points="0 210 0 10 8.90909091 0 17.0909091 0 26 10 26 210 17.0909091 220 8.90909091 220"></polygon>
                                </g>
                            </g>
                            <g id="Green-Spoke" fill="none" transform="translate(110.000000, 110.000000) rotate(-270.000000) translate(-110.000000, -110.000000) translate(97.000000, 0.000000)" stroke-width="1">
                                <g id="Spoke" fill="#41533E">
                                    <polygon id="Rectangle-98-Copy-9" points="0 210 0 10 8.90909091 0 17.0909091 0 26 10 26 210 17.0909091 220 8.90909091 220"></polygon>
                                </g>
                            </g>
                            <g id="Green-Spoke" fill="none" transform="translate(110.000000, 110.000000) rotate(-247.500000) translate(-110.000000, -110.000000) translate(97.000000, 0.000000)" stroke-width="1">
                                <g id="Spoke" fill="#41533E">
                                    <polygon id="Rectangle-98-Copy-9" points="0 210 0 10 8.90909091 0 17.0909091 0 26 10 26 210 17.0909091 220 8.90909091 220"></polygon>
                                </g>
                            </g>
                            <g id="Green-Spoke" fill="none" transform="translate(110.000000, 110.000000) rotate(135.000000) translate(-110.000000, -110.000000) translate(97.000000, 0.000000)" stroke-width="1">
                                <g id="Spoke" fill="#41533E">
                                    <polygon id="Rectangle-98-Copy-9" points="0 210 0 10 8.90909091 0 17.0909091 0 26 10 26 210 17.0909091 220 8.90909091 220"></polygon>
                                </g>
                            </g>
                            <g id="Green-Spoke" fill="none" transform="translate(110.000000, 110.000000) rotate(-225.000000) translate(-110.000000, -110.000000) translate(97.000000, 0.000000)" stroke-width="1">
                                <g id="Spoke" fill="#41533E">
                                    <polygon id="Rectangle-98-Copy-9" points="0 210 0 10 8.90909091 0 17.0909091 0 26 10 26 210 17.0909091 220 8.90909091 220"></polygon>
                                </g>
                            </g>
                            <g id="Green-Spoke" fill="none" transform="translate(110.000000, 110.000000) rotate(157.500000) translate(-110.000000, -110.000000) translate(97.000000, 0.000000)" stroke-width="1">
                                <g id="Spoke" fill="#41533E">
                                    <polygon id="Rectangle-98-Copy-9" points="0 210 0 10 8.90909091 0 17.0909091 0 26 10 26 210 17.0909091 220 8.90909091 220"></polygon>
                                </g>
                            </g>
                            <g id="Green-Spoke" fill="none" transform="translate(110.000000, 110.000000) rotate(-195.000000) translate(-110.000000, -110.000000) translate(97.000000, 0.000000)" stroke-width="1">
                                <g id="Spoke" fill="#41533E">
                                    <polygon id="Rectangle-98-Copy-9" points="0 210 0 10 8.90909091 0 17.0909091 0 26 10 26 210 17.0909091 220 8.90909091 220"></polygon>
                                </g>
                            </g>
                        </g>
                    </g>
                    <g id="Group-2" mask="url(#mask-2)">
                        <g transform="translate(109.000000, 143.480354)">
                            <circle id="Oval-583" fill="#BB1C1C" cx="108.5" cy="107.5" r="97.75"></circle>
                            <g id="Orange-Spoke" fill="none" transform="translate(108.000000, 108.000000) rotate(-225.000000) translate(-108.000000, -108.000000) translate(95.000000, 1.000000)" stroke-width="1">
                                <g id="Spoke" transform="translate(0.000000, 0.000000)" fill="#BB1C1C">
                                    <polygon id="Rectangle-98-Copy-9" points="8.66976734e-07 204 0 10 7.90909091 0 18.0909091 0 26 10 26.0000009 204 18.09091 214 7.90909178 214"></polygon>
                                </g>
                            </g>
                            <g id="Orange-Spoke" fill="none" transform="translate(108.000000, 108.000000) rotate(-325.000000) translate(-108.000000, -108.000000) translate(95.000000, 1.000000)" stroke-width="1">
                                <g id="Spoke" transform="translate(0.000000, 0.000000)" fill="#BB1C1C">
                                    <polygon id="Rectangle-98-Copy-9" points="8.66976734e-07 204 0 10 7.90909091 0 18.0909091 0 26 10 26.0000009 204 18.09091 214 7.90909178 214"></polygon>
                                </g>
                            </g>
                            <g id="Orange-Spoke" fill="none" transform="translate(108.000000, 108.000000) rotate(-305.000000) translate(-108.000000, -108.000000) translate(95.000000, 1.000000)" stroke-width="1">
                                <g id="Spoke" transform="translate(0.000000, 0.000000)" fill="#BB1C1C">
                                    <polygon id="Rectangle-98-Copy-9" points="8.66976734e-07 204 0 10 7.90909091 0 18.0909091 0 26 10 26.0000009 204 18.09091 214 7.90909178 214"></polygon>
                                </g>
                            </g>
                            <g id="Orange-Spoke" fill="none" transform="translate(108.000000, 108.000000) rotate(-285.000000) translate(-108.000000, -108.000000) translate(95.000000, 1.000000)" stroke-width="1">
                                <g id="Spoke" transform="translate(0.000000, 0.000000)" fill="#BB1C1C">
                                    <polygon id="Rectangle-98-Copy-9" points="8.66976734e-07 204 0 10 7.90909091 0 18.0909091 0 26 10 26.0000009 204 18.09091 214 7.90909178 214"></polygon>
                                </g>
                            </g>
                            <g id="Orange-Spoke" fill="none" transform="translate(108.000000, 108.000000) rotate(-265.000000) translate(-108.000000, -108.000000) translate(95.000000, 1.000000)" stroke-width="1">
                                <g id="Spoke" transform="translate(0.000000, 0.000000)" fill="#BB1C1C">
                                    <polygon id="Rectangle-98-Copy-9" points="8.66976734e-07 204 0 10 7.90909091 0 18.0909091 0 26 10 26.0000009 204 18.09091 214 7.90909178 214"></polygon>
                                </g>
                            </g>
                            <g id="Orange-Spoke" fill="none" transform="translate(108.000000, 108.000000) rotate(-245.000000) translate(-108.000000, -108.000000) translate(95.000000, 1.000000)" stroke-width="1">
                                <g id="Spoke" transform="translate(0.000000, 0.000000)" fill="#BB1C1C">
                                    <polygon id="Rectangle-98-Copy-9" points="8.66976734e-07 204 0 10 7.90909091 0 18.0909091 0 26 10 26.0000009 204 18.09091 214 7.90909178 214"></polygon>
                                </g>
                            </g>
                            <g id="Orange-Spoke" fill="none" transform="translate(108.000000, 108.000000) rotate(-205.000000) translate(-108.000000, -108.000000) translate(95.000000, 1.000000)" stroke-width="1">
                                <g id="Spoke" transform="translate(0.000000, 0.000000)" fill="#BB1C1C">
                                    <polygon id="Rectangle-98-Copy-9" points="8.66976734e-07 204 0 10 7.90909091 0 18.0909091 0 26 10 26.0000009 204 18.09091 214 7.90909178 214"></polygon>
                                </g>
                            </g>
                            <g id="Orange-Spoke" fill="none" transform="translate(108.000000, 108.000000) rotate(-185.000000) translate(-108.000000, -108.000000) translate(95.000000, 1.000000)" stroke-width="1">
                                <g id="Spoke" transform="translate(0.000000, 0.000000)" fill="#BB1C1C">
                                    <polygon id="Rectangle-98-Copy-9" points="8.66976734e-07 204 0 10 7.90909091 0 18.0909091 0 26 10 26.0000009 204 18.09091 214 7.90909178 214"></polygon>
                                </g>
                            </g>
                            <g id="Orange-Spoke" fill="none" transform="translate(108.000000, 108.000000) rotate(-345.000000) translate(-108.000000, -108.000000) translate(95.000000, 1.000000)" stroke-width="1">
                                <g id="Spoke" transform="translate(0.000000, 0.000000)" fill="#BB1C1C">
                                    <polygon id="Rectangle-98-Copy-9" points="8.66976734e-07 204 0 10 7.90909091 0 18.0909091 0 26 10 26.0000009 204 18.09091 214 7.90909178 214"></polygon>
                                </g>
                            </g>
                        </g>
                    </g>
                </g>
            </g>
        </g>
    </g>
</svg>