<?xml version="1.0" encoding="UTF-8"?>
<svg width="61px" height="61px" viewBox="0 0 61 61" version="1.1" xmlns="http://www.w3.org/2000/svg" xmlns:xlink="http://www.w3.org/1999/xlink">
    <!-- Generator: Sketch 50.2 (55047) - http://www.bohemiancoding.com/sketch -->
    <title>Group 2</title>
    <desc>Created with Sketch.</desc>
    <defs></defs>
    <g id="Page-1" stroke="none" stroke-width="1" fill="none" fill-rule="evenodd">
        <g id="Artboard" transform="translate(-660.000000, -15.000000)">
            <g id="Group-2" transform="translate(660.000000, 15.000000)">
                <rect id="Rectangle-3-Copy-2" fill="#FFFFFF" x="0" y="14" width="5" height="5"></rect>
                <rect id="Rectangle-3-Copy-3" fill="#FFFFFF" x="0" y="21" width="5" height="5"></rect>
                <rect id="Rectangle-3-Copy-4" fill="#FFFFFF" x="0" y="28" width="5" height="5"></rect>
                <rect id="Rectangle-3-Copy-16" fill="#FFFFFF" x="7" y="7" width="5" height="5"></rect>
                <rect id="Rectangle-3-Copy-15" fill="#FFFFFF" x="7" y="14" width="5" height="5"></rect>
                <rect id="Rectangle-3-Copy-14" fill="#FFFFFF" x="7" y="21" width="5" height="5"></rect>
                <rect id="Rectangle-3-Copy-13" fill="#FFFFFF" x="7" y="28" width="5" height="5"></rect>
                <rect id="Rectangle-3-Copy-12" fill="#FFFFFF" x="7" y="35" width="5" height="5"></rect>
                <rect id="Rectangle-3-Copy-26" fill="#FFFFFF" x="14" y="0" width="5" height="5"></rect>
                <rect id="Rectangle-3-Copy-25" fill="#FFFFFF" x="14" y="7" width="5" height="5"></rect>
                <rect id="Rectangle-3-Copy-24" fill="#FFFFFF" x="14" y="14" width="5" height="5"></rect>
                <rect id="Rectangle-3-Copy-23" fill="#FFFFFF" x="14" y="21" width="5" height="5"></rect>
                <rect id="Rectangle-3-Copy-22" fill="#FFFFFF" x="14" y="28" width="5" height="5"></rect>
                <rect id="Rectangle-3-Copy-21" fill="#FFFFFF" x="14" y="35" width="5" height="5"></rect>
                <rect id="Rectangle-3-Copy-20" fill="#FFFFFF" x="14" y="42" width="5" height="5"></rect>
                <rect id="Rectangle-3-Copy-52" fill="#FFFFFF" x="21" y="7" width="5" height="5"></rect>
                <rect id="Rectangle-3-Copy-51" fill="#FFFFFF" x="21" y="14" width="5" height="5"></rect>
                <rect id="Rectangle-3-Copy-50" fill="#FFFFFF" x="21" y="21" width="5" height="5"></rect>
                <rect id="Rectangle-3-Copy-49" fill="#FFFFFF" x="21" y="28" width="5" height="5"></rect>
                <rect id="Rectangle-3-Copy-48" fill="#FFFFFF" x="21" y="35" width="5" height="5"></rect>
                <rect id="Rectangle-3-Copy-47" fill="#FFFFFF" x="21" y="42" width="5" height="5"></rect>
                <rect id="Rectangle-3-Copy-46" fill="#FFFFFF" x="21" y="49" width="5" height="5"></rect>
                <rect id="Rectangle-3-Copy-42" fill="#FFFFFF" x="28" y="14" width="5" height="5"></rect>
                <rect id="Rectangle-3-Copy-41" fill="#FFFFFF" x="28" y="21" width="5" height="5"></rect>
                <rect id="Rectangle-3-Copy-40" fill="#FFFFFF" x="28" y="28" width="5" height="5"></rect>
                <rect id="Rectangle-3-Copy-39" fill="#FFFFFF" x="28" y="35" width="5" height="5"></rect>
                <rect id="Rectangle-3-Copy-38" fill="#FFFFFF" x="28" y="42" width="5" height="5"></rect>
                <rect id="Rectangle-3-Copy-37" fill="#FFFFFF" x="28" y="49" width="5" height="5"></rect>
                <rect id="Rectangle-3-Copy-36" fill="#FFFFFF" x="28" y="56" width="5" height="5"></rect>
                <rect id="Rectangle-3-Copy-34" fill="#FFFFFF" x="35" y="7" width="5" height="5"></rect>
                <rect id="Rectangle-3-Copy-33" fill="#FFFFFF" x="35" y="14" width="5" height="5"></rect>
                <rect id="Rectangle-3-Copy-32" fill="#FFFFFF" x="35" y="21" width="5" height="5"></rect>
                <rect id="Rectangle-3-Copy-31" fill="#FFFFFF" x="35" y="28" width="5" height="5"></rect>
                <rect id="Rectangle-3-Copy-30" fill="#FFFFFF" x="35" y="35" width="5" height="5"></rect>
                <rect id="Rectangle-3-Copy-29" fill="#FFFFFF" x="35" y="42" width="5" height="5"></rect>
                <rect id="Rectangle-3-Copy-28" fill="#FFFFFF" x="35" y="49" width="5" height="5"></rect>
                <rect id="Rectangle-3-Copy-80" fill="#FFFFFF" x="42" y="0" width="5" height="5"></rect>
                <rect id="Rectangle-3-Copy-79" fill="#FFFFFF" x="42" y="7" width="5" height="5"></rect>
                <rect id="Rectangle-3-Copy-78" fill="#FFFFFF" x="42" y="14" width="5" height="5"></rect>
                <rect id="Rectangle-3-Copy-77" fill="#FFFFFF" x="42" y="21" width="5" height="5"></rect>
                <rect id="Rectangle-3-Copy-76" fill="#FFFFFF" x="42" y="28" width="5" height="5"></rect>
                <rect id="Rectangle-3-Copy-75" fill="#FFFFFF" x="42" y="35" width="5" height="5"></rect>
                <rect id="Rectangle-3-Copy-74" fill="#FFFFFF" x="42" y="42" width="5" height="5"></rect>
                <rect id="Rectangle-3-Copy-70" fill="#FFFFFF" x="49" y="7" width="5" height="5"></rect>
                <rect id="Rectangle-3-Copy-69" fill="#FFFFFF" x="49" y="14" width="5" height="5"></rect>
                <rect id="Rectangle-3-Copy-68" fill="#FFFFFF" x="49" y="21" width="5" height="5"></rect>
                <rect id="Rectangle-3-Copy-67" fill="#FFFFFF" x="49" y="28" width="5" height="5"></rect>
                <rect id="Rectangle-3-Copy-66" fill="#FFFFFF" x="49" y="35" width="5" height="5"></rect>
                <rect id="Rectangle-3-Copy-60" fill="#FFFFFF" x="56" y="14" width="5" height="5"></rect>
                <rect id="Rectangle-3-Copy-59" fill="#FFFFFF" x="56" y="21" width="5" height="5"></rect>
                <rect id="Rectangle-3-Copy-58" fill="#FFFFFF" x="56" y="28" width="5" height="5"></rect>
                <g id="tiny-open" stroke="#FFFFFF" stroke-opacity="0.559803838" stroke-width="0.5">
                    <rect id="Rectangle-3-Copy-93" x="0.25" y="0.25" width="4.5" height="4.5"></rect>
                </g>
                <g id="tiny-open" transform="translate(0.000000, 7.000000)" stroke="#FFFFFF" stroke-opacity="0.559803838" stroke-width="0.5">
                    <rect id="Rectangle-3-Copy-93" x="0.25" y="0.25" width="4.5" height="4.5"></rect>
                </g>
                <g id="tiny-open" transform="translate(7.000000, 0.000000)" stroke="#FFFFFF" stroke-opacity="0.559803838" stroke-width="0.5">
                    <rect id="Rectangle-3-Copy-93" x="0.25" y="0.25" width="4.5" height="4.5"></rect>
                </g>
                <g id="tiny-open" transform="translate(21.000000, 0.000000)" stroke="#FFFFFF" stroke-opacity="0.559803838" stroke-width="0.5">
                    <rect id="Rectangle-3-Copy-93" x="0.25" y="0.25" width="4.5" height="4.5"></rect>
                </g>
                <g id="tiny-open" transform="translate(28.000000, 0.000000)" stroke="#FFFFFF" stroke-opacity="0.559803838" stroke-width="0.5">
                    <rect id="Rectangle-3-Copy-93" x="0.25" y="0.25" width="4.5" height="4.5"></rect>
                </g>
                <g id="tiny-open" transform="translate(0.000000, 35.000000)" stroke="#FFFFFF" stroke-opacity="0.559803838" stroke-width="0.5">
                    <rect id="Rectangle-3-Copy-93" x="0.25" y="0.25" width="4.5" height="4.5"></rect>
                </g>
                <g id="tiny-open" transform="translate(0.000000, 42.000000)" stroke="#FFFFFF" stroke-opacity="0.559803838" stroke-width="0.5">
                    <rect id="Rectangle-3-Copy-93" x="0.25" y="0.25" width="4.5" height="4.5"></rect>
                </g>
                <g id="tiny-open" transform="translate(7.000000, 42.000000)" stroke="#FFFFFF" stroke-opacity="0.559803838" stroke-width="0.5">
                    <rect id="Rectangle-3-Copy-93" x="0.25" y="0.25" width="4.5" height="4.5"></rect>
                </g>
                <g id="tiny-open" transform="translate(14.000000, 49.000000)" stroke="#FFFFFF" stroke-opacity="0.559803838" stroke-width="0.5">
                    <rect id="Rectangle-3-Copy-93" x="0.25" y="0.25" width="4.5" height="4.5"></rect>
                </g>
                <g id="tiny-open" transform="translate(14.000000, 56.000000)" stroke="#FFFFFF" stroke-opacity="0.559803838" stroke-width="0.5">
                    <rect id="Rectangle-3-Copy-93" x="0.25" y="0.25" width="4.5" height="4.5"></rect>
                </g>
                <g id="tiny-open" transform="translate(21.000000, 56.000000)" stroke="#FFFFFF" stroke-opacity="0.559803838" stroke-width="0.5">
                    <rect id="Rectangle-3-Copy-93" x="0.25" y="0.25" width="4.5" height="4.5"></rect>
                </g>
                <g id="tiny-open" transform="translate(0.000000, 49.000000)" stroke="#FFFFFF" stroke-opacity="0.559803838" stroke-width="0.5">
                    <rect id="Rectangle-3-Copy-93" x="0.25" y="0.25" width="4.5" height="4.5"></rect>
                </g>
                <g id="tiny-open" transform="translate(7.000000, 49.000000)" stroke="#FFFFFF" stroke-opacity="0.559803838" stroke-width="0.5">
                    <rect id="Rectangle-3-Copy-93" x="0.25" y="0.25" width="4.5" height="4.5"></rect>
                </g>
                <g id="tiny-open" transform="translate(0.000000, 56.000000)" stroke="#FFFFFF" stroke-opacity="0.559803838" stroke-width="0.5">
                    <rect id="Rectangle-3-Copy-93" x="0.25" y="0.25" width="4.5" height="4.5"></rect>
                </g>
                <g id="tiny-open" transform="translate(7.000000, 56.000000)" stroke="#FFFFFF" stroke-opacity="0.559803838" stroke-width="0.5">
                    <rect id="Rectangle-3-Copy-93" x="0.25" y="0.25" width="4.5" height="4.5"></rect>
                </g>
                <g id="tiny-open" transform="translate(49.000000, 56.000000)" stroke="#FFFFFF" stroke-opacity="0.559803838" stroke-width="0.5">
                    <rect id="Rectangle-3-Copy-93" x="0.25" y="0.25" width="4.5" height="4.5"></rect>
                </g>
                <g id="tiny-open" transform="translate(56.000000, 56.000000)" stroke="#FFFFFF" stroke-opacity="0.559803838" stroke-width="0.5">
                    <rect id="Rectangle-3-Copy-93" x="0.25" y="0.25" width="4.5" height="4.5"></rect>
                </g>
                <g id="tiny-open" transform="translate(35.000000, 56.000000)" stroke="#FFFFFF" stroke-opacity="0.559803838" stroke-width="0.5">
                    <rect id="Rectangle-3-Copy-93" x="0.25" y="0.25" width="4.5" height="4.5"></rect>
                </g>
                <g id="tiny-open" transform="translate(42.000000, 56.000000)" stroke="#FFFFFF" stroke-opacity="0.559803838" stroke-width="0.5">
                    <rect id="Rectangle-3-Copy-93" x="0.25" y="0.25" width="4.5" height="4.5"></rect>
                </g>
                <g id="tiny-open" transform="translate(49.000000, 49.000000)" stroke="#FFFFFF" stroke-opacity="0.559803838" stroke-width="0.5">
                    <rect id="Rectangle-3-Copy-93" x="0.25" y="0.25" width="4.5" height="4.5"></rect>
                </g>
                <g id="tiny-open" transform="translate(56.000000, 49.000000)" stroke="#FFFFFF" stroke-opacity="0.559803838" stroke-width="0.5">
                    <rect id="Rectangle-3-Copy-93" x="0.25" y="0.25" width="4.5" height="4.5"></rect>
                </g>
                <g id="tiny-open" transform="translate(49.000000, 42.000000)" stroke="#FFFFFF" stroke-opacity="0.559803838" stroke-width="0.5">
                    <rect id="Rectangle-3-Copy-93" x="0.25" y="0.25" width="4.5" height="4.5"></rect>
                </g>
                <g id="tiny-open" transform="translate(56.000000, 42.000000)" stroke="#FFFFFF" stroke-opacity="0.559803838" stroke-width="0.5">
                    <rect id="Rectangle-3-Copy-93" x="0.25" y="0.25" width="4.5" height="4.5"></rect>
                </g>
                <g id="tiny-open" transform="translate(56.000000, 35.000000)" stroke="#FFFFFF" stroke-opacity="0.559803838" stroke-width="0.5">
                    <rect id="Rectangle-3-Copy-93" x="0.25" y="0.25" width="4.5" height="4.5"></rect>
                </g>
                <g id="tiny-open" transform="translate(42.000000, 49.000000)" stroke="#FFFFFF" stroke-opacity="0.559803838" stroke-width="0.5">
                    <rect id="Rectangle-3-Copy-93" x="0.25" y="0.25" width="4.5" height="4.5"></rect>
                </g>
                <g id="tiny-open" transform="translate(28.000000, 7.000000)" stroke="#FFFFFF" stroke-opacity="0.559803838" stroke-width="0.5">
                    <rect id="Rectangle-3-Copy-93" x="0.25" y="0.25" width="4.5" height="4.5"></rect>
                </g>
                <g id="tiny-open" transform="translate(49.000000, 0.000000)" stroke="#FFFFFF" stroke-opacity="0.559803838" stroke-width="0.5">
                    <rect id="Rectangle-3-Copy-93" x="0.25" y="0.25" width="4.5" height="4.5"></rect>
                </g>
                <g id="tiny-open" transform="translate(56.000000, 0.000000)" stroke="#FFFFFF" stroke-opacity="0.559803838" stroke-width="0.5">
                    <rect id="Rectangle-3-Copy-93" x="0.25" y="0.25" width="4.5" height="4.5"></rect>
                </g>
                <g id="tiny-open" transform="translate(56.000000, 7.000000)" stroke="#FFFFFF" stroke-opacity="0.559803838" stroke-width="0.5">
                    <rect id="Rectangle-3-Copy-93" x="0.25" y="0.25" width="4.5" height="4.5"></rect>
                </g>
                <g id="tiny-open" transform="translate(35.000000, 0.000000)" stroke="#FFFFFF" stroke-opacity="0.559803838" stroke-width="0.5">
                    <rect id="Rectangle-3-Copy-93" x="0.25" y="0.25" width="4.5" height="4.5"></rect>
                </g>
            </g>
        </g>
    </g>
</svg>