<?xml version="1.0" encoding="UTF-8"?>
<svg width="264px" height="264px" viewBox="0 0 264 264" version="1.1" xmlns="http://www.w3.org/2000/svg" xmlns:xlink="http://www.w3.org/1999/xlink">
    <!-- Generator: Sketch 50.2 (55047) - http://www.bohemiancoding.com/sketch -->
    <title>background tile dark</title>
    <desc>Created with Sketch.</desc>
    <defs></defs>
    <g id="background-tile-dark" stroke="none" stroke-width="1" fill="none" fill-rule="evenodd">
        <g id="Background-Square" transform="translate(33.000000, 165.000000)" fill="#303131">
            <path d="M4.8458278,1 L59.1541722,1 L4.8458278,1 Z M63,11.3030303 L63,58.972354 C63,60.3096321 62.8607616,60.7945615 62.5993009,61.2834504 C62.3378403,61.7723393 61.9541574,62.1560221 61.4652686,62.4174828 C60.9763797,62.6789434 60.4914503,62.8181818 59.1541722,62.8181818 L11.3333333,62.8181818 L14.5245098,59.6363636 L59.8,59.6363636 L59.8,14.4936461 L63,11.3030303 Z M1,58.972354 L1,4.8458278 L1,58.972354 Z" id="Rectangle-Copy-55"></path>
            <path d="M51.6666667,-3.55271368e-15 L48.4754902,3.18181818 L3.2,3.18181818 L3.2,48.3245357 L0,51.5151515 L5.47673241e-16,3.8458278 C3.83903905e-16,2.50854969 0.139238417,2.02362033 0.400699056,1.53473144 C0.662159695,1.04584256 1.04584256,0.662159695 1.53473144,0.400699056 C2.02362033,0.139238417 2.50854969,-3.53811253e-16 3.8458278,-5.99465256e-16 L51.6666667,-2.31034812e-15 Z M62,3.8458278 L62,57.972354 L62,3.8458278 Z M58.1541722,61.8181818 L3.8458278,61.8181818 L58.1541722,61.8181818 Z" id="Rectangle-Copy-56"></path>
        </g>
        <g id="Background-Square-Copy-2" fill="#303131">
            <path d="M4.8458278,1 L59.1541722,1 L4.8458278,1 Z M63,11.3030303 L63,58.972354 C63,60.3096321 62.8607616,60.7945615 62.5993009,61.2834504 C62.3378403,61.7723393 61.9541574,62.1560221 61.4652686,62.4174828 C60.9763797,62.6789434 60.4914503,62.8181818 59.1541722,62.8181818 L11.3333333,62.8181818 L14.5245098,59.6363636 L59.8,59.6363636 L59.8,14.4936461 L63,11.3030303 Z M1,58.972354 L1,4.8458278 L1,58.972354 Z" id="Rectangle-Copy-55"></path>
            <path d="M51.6666667,-3.55271368e-15 L48.4754902,3.18181818 L3.2,3.18181818 L3.2,48.3245357 L0,51.5151515 L5.47673241e-16,3.8458278 C3.83903905e-16,2.50854969 0.139238417,2.02362033 0.400699056,1.53473144 C0.662159695,1.04584256 1.04584256,0.662159695 1.53473144,0.400699056 C2.02362033,0.139238417 2.50854969,-3.53811253e-16 3.8458278,-5.99465256e-16 L51.6666667,-2.31034812e-15 Z M62,3.8458278 L62,57.972354 L62,3.8458278 Z M58.1541722,61.8181818 L3.8458278,61.8181818 L58.1541722,61.8181818 Z" id="Rectangle-Copy-56"></path>
        </g>
        <g id="Background-Square-Copy-51" transform="translate(165.000000, 33.000000)" fill="#303131">
            <path d="M4.8458278,1 L59.1541722,1 L4.8458278,1 Z M63,11.3030303 L63,58.972354 C63,60.3096321 62.8607616,60.7945615 62.5993009,61.2834504 C62.3378403,61.7723393 61.9541574,62.1560221 61.4652686,62.4174828 C60.9763797,62.6789434 60.4914503,62.8181818 59.1541722,62.8181818 L11.3333333,62.8181818 L14.5245098,59.6363636 L59.8,59.6363636 L59.8,14.4936461 L63,11.3030303 Z M1,58.972354 L1,4.8458278 L1,58.972354 Z" id="Rectangle-Copy-55"></path>
            <path d="M51.6666667,-3.55271368e-15 L48.4754902,3.18181818 L3.2,3.18181818 L3.2,48.3245357 L0,51.5151515 L5.47673241e-16,3.8458278 C3.83903905e-16,2.50854969 0.139238417,2.02362033 0.400699056,1.53473144 C0.662159695,1.04584256 1.04584256,0.662159695 1.53473144,0.400699056 C2.02362033,0.139238417 2.50854969,-3.53811253e-16 3.8458278,-5.99465256e-16 L51.6666667,-2.31034812e-15 Z M62,3.8458278 L62,57.972354 L62,3.8458278 Z M58.1541722,61.8181818 L3.8458278,61.8181818 L58.1541722,61.8181818 Z" id="Rectangle-Copy-56"></path>
        </g>
        <g id="Background-Square-Copy-52" transform="translate(198.000000, 132.000000)" fill="#303131">
            <path d="M4.8458278,1 L59.1541722,1 L4.8458278,1 Z M63,11.3030303 L63,58.972354 C63,60.3096321 62.8607616,60.7945615 62.5993009,61.2834504 C62.3378403,61.7723393 61.9541574,62.1560221 61.4652686,62.4174828 C60.9763797,62.6789434 60.4914503,62.8181818 59.1541722,62.8181818 L11.3333333,62.8181818 L14.5245098,59.6363636 L59.8,59.6363636 L59.8,14.4936461 L63,11.3030303 Z M1,58.972354 L1,4.8458278 L1,58.972354 Z" id="Rectangle-Copy-55"></path>
            <path d="M51.6666667,-3.55271368e-15 L48.4754902,3.18181818 L3.2,3.18181818 L3.2,48.3245357 L0,51.5151515 L5.47673241e-16,3.8458278 C3.83903905e-16,2.50854969 0.139238417,2.02362033 0.400699056,1.53473144 C0.662159695,1.04584256 1.04584256,0.662159695 1.53473144,0.400699056 C2.02362033,0.139238417 2.50854969,-3.53811253e-16 3.8458278,-5.99465256e-16 L51.6666667,-2.31034812e-15 Z M62,3.8458278 L62,57.972354 L62,3.8458278 Z M58.1541722,61.8181818 L3.8458278,61.8181818 L58.1541722,61.8181818 Z" id="Rectangle-Copy-56"></path>
        </g>
        <g id="Background-Square" transform="translate(66.000000, 231.000000)" fill="#303131">
            <path d="M30,5 L30,26.1541722 C30,27.4914503 29.8607616,27.9763797 29.5993009,28.4652686 C29.3378403,28.9541574 28.9541574,29.3378403 28.4652686,29.5993009 C27.9763797,29.8607616 27.4914503,30 26.1541722,30 L5,30 L8,27 L27,27 L27,8 L30,5 Z M3.8458278,-1.55376046e-16 L26.1541722,1.55376046e-16 L3.8458278,0 Z" id="Rectangle-Copy-55"></path>
            <path d="M25,-1.33226763e-15 L22,3 L3,3 L3,22 L8.8817842e-16,25 L1.03584031e-16,3.8458278 C-6.01853049e-17,2.50854969 0.139238417,2.02362033 0.400699056,1.53473144 C0.662159695,1.04584256 1.04584256,0.662159695 1.53473144,0.400699056 C2.02362033,0.139238417 2.50854969,9.02779573e-17 3.8458278,-1.55376046e-16 L25,1.3929859e-16 Z M30,3.8458278 L30,26.1541722 L30,3.8458278 Z M26.1541722,30 L3.8458278,30 L26.1541722,30 Z" id="Rectangle-Copy-56"></path>
        </g>
        <g id="Background-Square-Copy-6" transform="translate(99.000000, 231.000000)" fill="#303131">
            <path d="M30,5 L30,26.1541722 C30,27.4914503 29.8607616,27.9763797 29.5993009,28.4652686 C29.3378403,28.9541574 28.9541574,29.3378403 28.4652686,29.5993009 C27.9763797,29.8607616 27.4914503,30 26.1541722,30 L5,30 L8,27 L27,27 L27,8 L30,5 Z M3.8458278,-1.55376046e-16 L26.1541722,1.55376046e-16 L3.8458278,0 Z" id="Rectangle-Copy-55"></path>
            <path d="M25,-1.33226763e-15 L22,3 L3,3 L3,22 L8.8817842e-16,25 L1.03584031e-16,3.8458278 C-6.01853049e-17,2.50854969 0.139238417,2.02362033 0.400699056,1.53473144 C0.662159695,1.04584256 1.04584256,0.662159695 1.53473144,0.400699056 C2.02362033,0.139238417 2.50854969,9.02779573e-17 3.8458278,-1.55376046e-16 L25,1.3929859e-16 Z M30,3.8458278 L30,26.1541722 L30,3.8458278 Z M26.1541722,30 L3.8458278,30 L26.1541722,30 Z" id="Rectangle-Copy-56"></path>
        </g>
        <g id="Background-Square-Copy-3" transform="translate(33.000000, 231.000000)" fill="#303131">
            <path d="M30,5 L30,26.1541722 C30,27.4914503 29.8607616,27.9763797 29.5993009,28.4652686 C29.3378403,28.9541574 28.9541574,29.3378403 28.4652686,29.5993009 C27.9763797,29.8607616 27.4914503,30 26.1541722,30 L5,30 L8,27 L27,27 L27,8 L30,5 Z M3.8458278,-1.55376046e-16 L26.1541722,1.55376046e-16 L3.8458278,0 Z" id="Rectangle-Copy-55"></path>
            <path d="M25,-1.33226763e-15 L22,3 L3,3 L3,22 L8.8817842e-16,25 L1.03584031e-16,3.8458278 C-6.01853049e-17,2.50854969 0.139238417,2.02362033 0.400699056,1.53473144 C0.662159695,1.04584256 1.04584256,0.662159695 1.53473144,0.400699056 C2.02362033,0.139238417 2.50854969,9.02779573e-17 3.8458278,-1.55376046e-16 L25,1.3929859e-16 Z M30,3.8458278 L30,26.1541722 L30,3.8458278 Z M26.1541722,30 L3.8458278,30 L26.1541722,30 Z" id="Rectangle-Copy-56"></path>
        </g>
        <g id="Background-Square-Copy-5" transform="translate(33.000000, 231.000000)" fill="#303131">
            <path d="M30,5 L30,26.1541722 C30,27.4914503 29.8607616,27.9763797 29.5993009,28.4652686 C29.3378403,28.9541574 28.9541574,29.3378403 28.4652686,29.5993009 C27.9763797,29.8607616 27.4914503,30 26.1541722,30 L5,30 L8,27 L27,27 L27,8 L30,5 Z M3.8458278,-1.55376046e-16 L26.1541722,1.55376046e-16 L3.8458278,0 Z" id="Rectangle-Copy-55"></path>
            <path d="M25,-1.33226763e-15 L22,3 L3,3 L3,22 L8.8817842e-16,25 L1.03584031e-16,3.8458278 C-6.01853049e-17,2.50854969 0.139238417,2.02362033 0.400699056,1.53473144 C0.662159695,1.04584256 1.04584256,0.662159695 1.53473144,0.400699056 C2.02362033,0.139238417 2.50854969,9.02779573e-17 3.8458278,-1.55376046e-16 L25,1.3929859e-16 Z M30,3.8458278 L30,26.1541722 L30,3.8458278 Z M26.1541722,30 L3.8458278,30 L26.1541722,30 Z" id="Rectangle-Copy-56"></path>
        </g>
        <g id="Background-Square-Copy-4" transform="translate(0.000000, 231.000000)" fill="#303131">
            <path d="M30,5 L30,26.1541722 C30,27.4914503 29.8607616,27.9763797 29.5993009,28.4652686 C29.3378403,28.9541574 28.9541574,29.3378403 28.4652686,29.5993009 C27.9763797,29.8607616 27.4914503,30 26.1541722,30 L5,30 L8,27 L27,27 L27,8 L30,5 Z M3.8458278,-1.55376046e-16 L26.1541722,1.55376046e-16 L3.8458278,0 Z" id="Rectangle-Copy-55"></path>
            <path d="M25,-1.33226763e-15 L22,3 L3,3 L3,22 L8.8817842e-16,25 L1.03584031e-16,3.8458278 C-6.01853049e-17,2.50854969 0.139238417,2.02362033 0.400699056,1.53473144 C0.662159695,1.04584256 1.04584256,0.662159695 1.53473144,0.400699056 C2.02362033,0.139238417 2.50854969,9.02779573e-17 3.8458278,-1.55376046e-16 L25,1.3929859e-16 Z M30,3.8458278 L30,26.1541722 L30,3.8458278 Z M26.1541722,30 L3.8458278,30 L26.1541722,30 Z" id="Rectangle-Copy-56"></path>
        </g>
        <g id="Background-Square-Copy-9" transform="translate(0.000000, 198.000000)" fill="#303131">
            <path d="M30,5 L30,26.1541722 C30,27.4914503 29.8607616,27.9763797 29.5993009,28.4652686 C29.3378403,28.9541574 28.9541574,29.3378403 28.4652686,29.5993009 C27.9763797,29.8607616 27.4914503,30 26.1541722,30 L5,30 L8,27 L27,27 L27,8 L30,5 Z M3.8458278,-1.55376046e-16 L26.1541722,1.55376046e-16 L3.8458278,0 Z" id="Rectangle-Copy-55"></path>
            <path d="M25,-1.33226763e-15 L22,3 L3,3 L3,22 L8.8817842e-16,25 L1.03584031e-16,3.8458278 C-6.01853049e-17,2.50854969 0.139238417,2.02362033 0.400699056,1.53473144 C0.662159695,1.04584256 1.04584256,0.662159695 1.53473144,0.400699056 C2.02362033,0.139238417 2.50854969,9.02779573e-17 3.8458278,-1.55376046e-16 L25,1.3929859e-16 Z M30,3.8458278 L30,26.1541722 L30,3.8458278 Z M26.1541722,30 L3.8458278,30 L26.1541722,30 Z" id="Rectangle-Copy-56"></path>
        </g>
        <g id="Background-Square-Copy-12" transform="translate(0.000000, 165.000000)" fill="#303131">
            <path d="M30,5 L30,26.1541722 C30,27.4914503 29.8607616,27.9763797 29.5993009,28.4652686 C29.3378403,28.9541574 28.9541574,29.3378403 28.4652686,29.5993009 C27.9763797,29.8607616 27.4914503,30 26.1541722,30 L5,30 L8,27 L27,27 L27,8 L30,5 Z M3.8458278,-1.55376046e-16 L26.1541722,1.55376046e-16 L3.8458278,0 Z" id="Rectangle-Copy-55"></path>
            <path d="M25,-1.33226763e-15 L22,3 L3,3 L3,22 L8.8817842e-16,25 L1.03584031e-16,3.8458278 C-6.01853049e-17,2.50854969 0.139238417,2.02362033 0.400699056,1.53473144 C0.662159695,1.04584256 1.04584256,0.662159695 1.53473144,0.400699056 C2.02362033,0.139238417 2.50854969,9.02779573e-17 3.8458278,-1.55376046e-16 L25,1.3929859e-16 Z M30,3.8458278 L30,26.1541722 L30,3.8458278 Z M26.1541722,30 L3.8458278,30 L26.1541722,30 Z" id="Rectangle-Copy-56"></path>
        </g>
        <g id="Background-Square-Copy-11" transform="translate(198.000000, 231.000000)" fill="#303131">
            <path d="M30,5 L30,26.1541722 C30,27.4914503 29.8607616,27.9763797 29.5993009,28.4652686 C29.3378403,28.9541574 28.9541574,29.3378403 28.4652686,29.5993009 C27.9763797,29.8607616 27.4914503,30 26.1541722,30 L5,30 L8,27 L27,27 L27,8 L30,5 Z M3.8458278,-1.55376046e-16 L26.1541722,1.55376046e-16 L3.8458278,0 Z" id="Rectangle-Copy-55"></path>
            <path d="M25,-1.33226763e-15 L22,3 L3,3 L3,22 L8.8817842e-16,25 L1.03584031e-16,3.8458278 C-6.01853049e-17,2.50854969 0.139238417,2.02362033 0.400699056,1.53473144 C0.662159695,1.04584256 1.04584256,0.662159695 1.53473144,0.400699056 C2.02362033,0.139238417 2.50854969,9.02779573e-17 3.8458278,-1.55376046e-16 L25,1.3929859e-16 Z M30,3.8458278 L30,26.1541722 L30,3.8458278 Z M26.1541722,30 L3.8458278,30 L26.1541722,30 Z" id="Rectangle-Copy-56"></path>
        </g>
        <g id="Background-Square-Copy-10" transform="translate(231.000000, 231.000000)" fill="#303131">
            <path d="M30,5 L30,26.1541722 C30,27.4914503 29.8607616,27.9763797 29.5993009,28.4652686 C29.3378403,28.9541574 28.9541574,29.3378403 28.4652686,29.5993009 C27.9763797,29.8607616 27.4914503,30 26.1541722,30 L5,30 L8,27 L27,27 L27,8 L30,5 Z M3.8458278,-1.55376046e-16 L26.1541722,1.55376046e-16 L3.8458278,0 Z" id="Rectangle-Copy-55"></path>
            <path d="M25,-1.33226763e-15 L22,3 L3,3 L3,22 L8.8817842e-16,25 L1.03584031e-16,3.8458278 C-6.01853049e-17,2.50854969 0.139238417,2.02362033 0.400699056,1.53473144 C0.662159695,1.04584256 1.04584256,0.662159695 1.53473144,0.400699056 C2.02362033,0.139238417 2.50854969,9.02779573e-17 3.8458278,-1.55376046e-16 L25,1.3929859e-16 Z M30,3.8458278 L30,26.1541722 L30,3.8458278 Z M26.1541722,30 L3.8458278,30 L26.1541722,30 Z" id="Rectangle-Copy-56"></path>
        </g>
        <g id="Background-Square-Copy-8" transform="translate(165.000000, 231.000000)" fill="#303131">
            <path d="M30,5 L30,26.1541722 C30,27.4914503 29.8607616,27.9763797 29.5993009,28.4652686 C29.3378403,28.9541574 28.9541574,29.3378403 28.4652686,29.5993009 C27.9763797,29.8607616 27.4914503,30 26.1541722,30 L5,30 L8,27 L27,27 L27,8 L30,5 Z M3.8458278,-1.55376046e-16 L26.1541722,1.55376046e-16 L3.8458278,0 Z" id="Rectangle-Copy-55"></path>
            <path d="M25,-1.33226763e-15 L22,3 L3,3 L3,22 L8.8817842e-16,25 L1.03584031e-16,3.8458278 C-6.01853049e-17,2.50854969 0.139238417,2.02362033 0.400699056,1.53473144 C0.662159695,1.04584256 1.04584256,0.662159695 1.53473144,0.400699056 C2.02362033,0.139238417 2.50854969,9.02779573e-17 3.8458278,-1.55376046e-16 L25,1.3929859e-16 Z M30,3.8458278 L30,26.1541722 L30,3.8458278 Z M26.1541722,30 L3.8458278,30 L26.1541722,30 Z" id="Rectangle-Copy-56"></path>
        </g>
        <g id="Background-Square-Copy-7" transform="translate(132.000000, 231.000000)" fill="#303131">
            <path d="M30,5 L30,26.1541722 C30,27.4914503 29.8607616,27.9763797 29.5993009,28.4652686 C29.3378403,28.9541574 28.9541574,29.3378403 28.4652686,29.5993009 C27.9763797,29.8607616 27.4914503,30 26.1541722,30 L5,30 L8,27 L27,27 L27,8 L30,5 Z M3.8458278,-1.55376046e-16 L26.1541722,1.55376046e-16 L3.8458278,0 Z" id="Rectangle-Copy-55"></path>
            <path d="M25,-1.33226763e-15 L22,3 L3,3 L3,22 L8.8817842e-16,25 L1.03584031e-16,3.8458278 C-6.01853049e-17,2.50854969 0.139238417,2.02362033 0.400699056,1.53473144 C0.662159695,1.04584256 1.04584256,0.662159695 1.53473144,0.400699056 C2.02362033,0.139238417 2.50854969,9.02779573e-17 3.8458278,-1.55376046e-16 L25,1.3929859e-16 Z M30,3.8458278 L30,26.1541722 L30,3.8458278 Z M26.1541722,30 L3.8458278,30 L26.1541722,30 Z" id="Rectangle-Copy-56"></path>
        </g>
        <g id="Background-Square-Copy-17" transform="translate(99.000000, 198.000000)" fill="#303131">
            <path d="M30,5 L30,26.1541722 C30,27.4914503 29.8607616,27.9763797 29.5993009,28.4652686 C29.3378403,28.9541574 28.9541574,29.3378403 28.4652686,29.5993009 C27.9763797,29.8607616 27.4914503,30 26.1541722,30 L5,30 L8,27 L27,27 L27,8 L30,5 Z M3.8458278,-1.55376046e-16 L26.1541722,1.55376046e-16 L3.8458278,0 Z" id="Rectangle-Copy-55"></path>
            <path d="M25,-1.33226763e-15 L22,3 L3,3 L3,22 L8.8817842e-16,25 L1.03584031e-16,3.8458278 C-6.01853049e-17,2.50854969 0.139238417,2.02362033 0.400699056,1.53473144 C0.662159695,1.04584256 1.04584256,0.662159695 1.53473144,0.400699056 C2.02362033,0.139238417 2.50854969,9.02779573e-17 3.8458278,-1.55376046e-16 L25,1.3929859e-16 Z M30,3.8458278 L30,26.1541722 L30,3.8458278 Z M26.1541722,30 L3.8458278,30 L26.1541722,30 Z" id="Rectangle-Copy-56"></path>
        </g>
        <g id="Background-Square-Copy-16" transform="translate(198.000000, 198.000000)" fill="#303131">
            <path d="M30,5 L30,26.1541722 C30,27.4914503 29.8607616,27.9763797 29.5993009,28.4652686 C29.3378403,28.9541574 28.9541574,29.3378403 28.4652686,29.5993009 C27.9763797,29.8607616 27.4914503,30 26.1541722,30 L5,30 L8,27 L27,27 L27,8 L30,5 Z M3.8458278,-1.55376046e-16 L26.1541722,1.55376046e-16 L3.8458278,0 Z" id="Rectangle-Copy-55"></path>
            <path d="M25,-1.33226763e-15 L22,3 L3,3 L3,22 L8.8817842e-16,25 L1.03584031e-16,3.8458278 C-6.01853049e-17,2.50854969 0.139238417,2.02362033 0.400699056,1.53473144 C0.662159695,1.04584256 1.04584256,0.662159695 1.53473144,0.400699056 C2.02362033,0.139238417 2.50854969,9.02779573e-17 3.8458278,-1.55376046e-16 L25,1.3929859e-16 Z M30,3.8458278 L30,26.1541722 L30,3.8458278 Z M26.1541722,30 L3.8458278,30 L26.1541722,30 Z" id="Rectangle-Copy-56"></path>
        </g>
        <g id="Background-Square-Copy-15" transform="translate(231.000000, 198.000000)" fill="#303131">
            <path d="M30,5 L30,26.1541722 C30,27.4914503 29.8607616,27.9763797 29.5993009,28.4652686 C29.3378403,28.9541574 28.9541574,29.3378403 28.4652686,29.5993009 C27.9763797,29.8607616 27.4914503,30 26.1541722,30 L5,30 L8,27 L27,27 L27,8 L30,5 Z M3.8458278,-1.55376046e-16 L26.1541722,1.55376046e-16 L3.8458278,0 Z" id="Rectangle-Copy-55"></path>
            <path d="M25,-1.33226763e-15 L22,3 L3,3 L3,22 L8.8817842e-16,25 L1.03584031e-16,3.8458278 C-6.01853049e-17,2.50854969 0.139238417,2.02362033 0.400699056,1.53473144 C0.662159695,1.04584256 1.04584256,0.662159695 1.53473144,0.400699056 C2.02362033,0.139238417 2.50854969,9.02779573e-17 3.8458278,-1.55376046e-16 L25,1.3929859e-16 Z M30,3.8458278 L30,26.1541722 L30,3.8458278 Z M26.1541722,30 L3.8458278,30 L26.1541722,30 Z" id="Rectangle-Copy-56"></path>
        </g>
        <g id="Background-Square-Copy-50" transform="translate(231.000000, 66.000000)" fill="#303131">
            <path d="M30,5 L30,26.1541722 C30,27.4914503 29.8607616,27.9763797 29.5993009,28.4652686 C29.3378403,28.9541574 28.9541574,29.3378403 28.4652686,29.5993009 C27.9763797,29.8607616 27.4914503,30 26.1541722,30 L5,30 L8,27 L27,27 L27,8 L30,5 Z M3.8458278,-1.55376046e-16 L26.1541722,1.55376046e-16 L3.8458278,0 Z" id="Rectangle-Copy-55"></path>
            <path d="M25,-1.33226763e-15 L22,3 L3,3 L3,22 L8.8817842e-16,25 L1.03584031e-16,3.8458278 C-6.01853049e-17,2.50854969 0.139238417,2.02362033 0.400699056,1.53473144 C0.662159695,1.04584256 1.04584256,0.662159695 1.53473144,0.400699056 C2.02362033,0.139238417 2.50854969,9.02779573e-17 3.8458278,-1.55376046e-16 L25,1.3929859e-16 Z M30,3.8458278 L30,26.1541722 L30,3.8458278 Z M26.1541722,30 L3.8458278,30 L26.1541722,30 Z" id="Rectangle-Copy-56"></path>
        </g>
        <g id="Background-Square-Copy-49" transform="translate(231.000000, 33.000000)" fill="#303131">
            <path d="M30,5 L30,26.1541722 C30,27.4914503 29.8607616,27.9763797 29.5993009,28.4652686 C29.3378403,28.9541574 28.9541574,29.3378403 28.4652686,29.5993009 C27.9763797,29.8607616 27.4914503,30 26.1541722,30 L5,30 L8,27 L27,27 L27,8 L30,5 Z M3.8458278,-1.55376046e-16 L26.1541722,1.55376046e-16 L3.8458278,0 Z" id="Rectangle-Copy-55"></path>
            <path d="M25,-1.33226763e-15 L22,3 L3,3 L3,22 L8.8817842e-16,25 L1.03584031e-16,3.8458278 C-6.01853049e-17,2.50854969 0.139238417,2.02362033 0.400699056,1.53473144 C0.662159695,1.04584256 1.04584256,0.662159695 1.53473144,0.400699056 C2.02362033,0.139238417 2.50854969,9.02779573e-17 3.8458278,-1.55376046e-16 L25,1.3929859e-16 Z M30,3.8458278 L30,26.1541722 L30,3.8458278 Z M26.1541722,30 L3.8458278,30 L26.1541722,30 Z" id="Rectangle-Copy-56"></path>
        </g>
        <g id="Background-Square-Copy-14" transform="translate(165.000000, 198.000000)" fill="#303131">
            <path d="M30,5 L30,26.1541722 C30,27.4914503 29.8607616,27.9763797 29.5993009,28.4652686 C29.3378403,28.9541574 28.9541574,29.3378403 28.4652686,29.5993009 C27.9763797,29.8607616 27.4914503,30 26.1541722,30 L5,30 L8,27 L27,27 L27,8 L30,5 Z M3.8458278,-1.55376046e-16 L26.1541722,1.55376046e-16 L3.8458278,0 Z" id="Rectangle-Copy-55"></path>
            <path d="M25,-1.33226763e-15 L22,3 L3,3 L3,22 L8.8817842e-16,25 L1.03584031e-16,3.8458278 C-6.01853049e-17,2.50854969 0.139238417,2.02362033 0.400699056,1.53473144 C0.662159695,1.04584256 1.04584256,0.662159695 1.53473144,0.400699056 C2.02362033,0.139238417 2.50854969,9.02779573e-17 3.8458278,-1.55376046e-16 L25,1.3929859e-16 Z M30,3.8458278 L30,26.1541722 L30,3.8458278 Z M26.1541722,30 L3.8458278,30 L26.1541722,30 Z" id="Rectangle-Copy-56"></path>
        </g>
        <g id="Background-Square-Copy-13" transform="translate(132.000000, 198.000000)" fill="#303131">
            <path d="M30,5 L30,26.1541722 C30,27.4914503 29.8607616,27.9763797 29.5993009,28.4652686 C29.3378403,28.9541574 28.9541574,29.3378403 28.4652686,29.5993009 C27.9763797,29.8607616 27.4914503,30 26.1541722,30 L5,30 L8,27 L27,27 L27,8 L30,5 Z M3.8458278,-1.55376046e-16 L26.1541722,1.55376046e-16 L3.8458278,0 Z" id="Rectangle-Copy-55"></path>
            <path d="M25,-1.33226763e-15 L22,3 L3,3 L3,22 L8.8817842e-16,25 L1.03584031e-16,3.8458278 C-6.01853049e-17,2.50854969 0.139238417,2.02362033 0.400699056,1.53473144 C0.662159695,1.04584256 1.04584256,0.662159695 1.53473144,0.400699056 C2.02362033,0.139238417 2.50854969,9.02779573e-17 3.8458278,-1.55376046e-16 L25,1.3929859e-16 Z M30,3.8458278 L30,26.1541722 L30,3.8458278 Z M26.1541722,30 L3.8458278,30 L26.1541722,30 Z" id="Rectangle-Copy-56"></path>
        </g>
        <g id="Background-Square-Copy-23" transform="translate(99.000000, 165.000000)" fill="#303131">
            <path d="M30,5 L30,26.1541722 C30,27.4914503 29.8607616,27.9763797 29.5993009,28.4652686 C29.3378403,28.9541574 28.9541574,29.3378403 28.4652686,29.5993009 C27.9763797,29.8607616 27.4914503,30 26.1541722,30 L5,30 L8,27 L27,27 L27,8 L30,5 Z M3.8458278,-1.55376046e-16 L26.1541722,1.55376046e-16 L3.8458278,0 Z" id="Rectangle-Copy-55"></path>
            <path d="M25,-1.33226763e-15 L22,3 L3,3 L3,22 L8.8817842e-16,25 L1.03584031e-16,3.8458278 C-6.01853049e-17,2.50854969 0.139238417,2.02362033 0.400699056,1.53473144 C0.662159695,1.04584256 1.04584256,0.662159695 1.53473144,0.400699056 C2.02362033,0.139238417 2.50854969,9.02779573e-17 3.8458278,-1.55376046e-16 L25,1.3929859e-16 Z M30,3.8458278 L30,26.1541722 L30,3.8458278 Z M26.1541722,30 L3.8458278,30 L26.1541722,30 Z" id="Rectangle-Copy-56"></path>
        </g>
        <g id="Background-Square-Copy-22" transform="translate(165.000000, 165.000000)" fill="#303131">
            <path d="M30,5 L30,26.1541722 C30,27.4914503 29.8607616,27.9763797 29.5993009,28.4652686 C29.3378403,28.9541574 28.9541574,29.3378403 28.4652686,29.5993009 C27.9763797,29.8607616 27.4914503,30 26.1541722,30 L5,30 L8,27 L27,27 L27,8 L30,5 Z M3.8458278,-1.55376046e-16 L26.1541722,1.55376046e-16 L3.8458278,0 Z" id="Rectangle-Copy-55"></path>
            <path d="M25,-1.33226763e-15 L22,3 L3,3 L3,22 L8.8817842e-16,25 L1.03584031e-16,3.8458278 C-6.01853049e-17,2.50854969 0.139238417,2.02362033 0.400699056,1.53473144 C0.662159695,1.04584256 1.04584256,0.662159695 1.53473144,0.400699056 C2.02362033,0.139238417 2.50854969,9.02779573e-17 3.8458278,-1.55376046e-16 L25,1.3929859e-16 Z M30,3.8458278 L30,26.1541722 L30,3.8458278 Z M26.1541722,30 L3.8458278,30 L26.1541722,30 Z" id="Rectangle-Copy-56"></path>
        </g>
        <g id="Background-Square-Copy-21" transform="translate(132.000000, 165.000000)" fill="#303131">
            <path d="M30,5 L30,26.1541722 C30,27.4914503 29.8607616,27.9763797 29.5993009,28.4652686 C29.3378403,28.9541574 28.9541574,29.3378403 28.4652686,29.5993009 C27.9763797,29.8607616 27.4914503,30 26.1541722,30 L5,30 L8,27 L27,27 L27,8 L30,5 Z M3.8458278,-1.55376046e-16 L26.1541722,1.55376046e-16 L3.8458278,0 Z" id="Rectangle-Copy-55"></path>
            <path d="M25,-1.33226763e-15 L22,3 L3,3 L3,22 L8.8817842e-16,25 L1.03584031e-16,3.8458278 C-6.01853049e-17,2.50854969 0.139238417,2.02362033 0.400699056,1.53473144 C0.662159695,1.04584256 1.04584256,0.662159695 1.53473144,0.400699056 C2.02362033,0.139238417 2.50854969,9.02779573e-17 3.8458278,-1.55376046e-16 L25,1.3929859e-16 Z M30,3.8458278 L30,26.1541722 L30,3.8458278 Z M26.1541722,30 L3.8458278,30 L26.1541722,30 Z" id="Rectangle-Copy-56"></path>
        </g>
        <g id="Background-Square-Copy-20" transform="translate(99.000000, 132.000000)" fill="#303131">
            <path d="M30,5 L30,26.1541722 C30,27.4914503 29.8607616,27.9763797 29.5993009,28.4652686 C29.3378403,28.9541574 28.9541574,29.3378403 28.4652686,29.5993009 C27.9763797,29.8607616 27.4914503,30 26.1541722,30 L5,30 L8,27 L27,27 L27,8 L30,5 Z M3.8458278,-1.55376046e-16 L26.1541722,1.55376046e-16 L3.8458278,0 Z" id="Rectangle-Copy-55"></path>
            <path d="M25,-1.33226763e-15 L22,3 L3,3 L3,22 L8.8817842e-16,25 L1.03584031e-16,3.8458278 C-6.01853049e-17,2.50854969 0.139238417,2.02362033 0.400699056,1.53473144 C0.662159695,1.04584256 1.04584256,0.662159695 1.53473144,0.400699056 C2.02362033,0.139238417 2.50854969,9.02779573e-17 3.8458278,-1.55376046e-16 L25,1.3929859e-16 Z M30,3.8458278 L30,26.1541722 L30,3.8458278 Z M26.1541722,30 L3.8458278,30 L26.1541722,30 Z" id="Rectangle-Copy-56"></path>
        </g>
        <g id="Background-Square-Copy-19" transform="translate(165.000000, 132.000000)" fill="#303131">
            <path d="M30,5 L30,26.1541722 C30,27.4914503 29.8607616,27.9763797 29.5993009,28.4652686 C29.3378403,28.9541574 28.9541574,29.3378403 28.4652686,29.5993009 C27.9763797,29.8607616 27.4914503,30 26.1541722,30 L5,30 L8,27 L27,27 L27,8 L30,5 Z M3.8458278,-1.55376046e-16 L26.1541722,1.55376046e-16 L3.8458278,0 Z" id="Rectangle-Copy-55"></path>
            <path d="M25,-1.33226763e-15 L22,3 L3,3 L3,22 L8.8817842e-16,25 L1.03584031e-16,3.8458278 C-6.01853049e-17,2.50854969 0.139238417,2.02362033 0.400699056,1.53473144 C0.662159695,1.04584256 1.04584256,0.662159695 1.53473144,0.400699056 C2.02362033,0.139238417 2.50854969,9.02779573e-17 3.8458278,-1.55376046e-16 L25,1.3929859e-16 Z M30,3.8458278 L30,26.1541722 L30,3.8458278 Z M26.1541722,30 L3.8458278,30 L26.1541722,30 Z" id="Rectangle-Copy-56"></path>
        </g>
        <g id="Background-Square-Copy-18" transform="translate(132.000000, 132.000000)" fill="#303131">
            <path d="M30,5 L30,26.1541722 C30,27.4914503 29.8607616,27.9763797 29.5993009,28.4652686 C29.3378403,28.9541574 28.9541574,29.3378403 28.4652686,29.5993009 C27.9763797,29.8607616 27.4914503,30 26.1541722,30 L5,30 L8,27 L27,27 L27,8 L30,5 Z M3.8458278,-1.55376046e-16 L26.1541722,1.55376046e-16 L3.8458278,0 Z" id="Rectangle-Copy-55"></path>
            <path d="M25,-1.33226763e-15 L22,3 L3,3 L3,22 L8.8817842e-16,25 L1.03584031e-16,3.8458278 C-6.01853049e-17,2.50854969 0.139238417,2.02362033 0.400699056,1.53473144 C0.662159695,1.04584256 1.04584256,0.662159695 1.53473144,0.400699056 C2.02362033,0.139238417 2.50854969,9.02779573e-17 3.8458278,-1.55376046e-16 L25,1.3929859e-16 Z M30,3.8458278 L30,26.1541722 L30,3.8458278 Z M26.1541722,30 L3.8458278,30 L26.1541722,30 Z" id="Rectangle-Copy-56"></path>
        </g>
        <g id="Background-Square-Copy-26" transform="translate(0.000000, 132.000000)" fill="#303131">
            <path d="M30,5 L30,26.1541722 C30,27.4914503 29.8607616,27.9763797 29.5993009,28.4652686 C29.3378403,28.9541574 28.9541574,29.3378403 28.4652686,29.5993009 C27.9763797,29.8607616 27.4914503,30 26.1541722,30 L5,30 L8,27 L27,27 L27,8 L30,5 Z M3.8458278,-1.55376046e-16 L26.1541722,1.55376046e-16 L3.8458278,0 Z" id="Rectangle-Copy-55"></path>
            <path d="M25,-1.33226763e-15 L22,3 L3,3 L3,22 L8.8817842e-16,25 L1.03584031e-16,3.8458278 C-6.01853049e-17,2.50854969 0.139238417,2.02362033 0.400699056,1.53473144 C0.662159695,1.04584256 1.04584256,0.662159695 1.53473144,0.400699056 C2.02362033,0.139238417 2.50854969,9.02779573e-17 3.8458278,-1.55376046e-16 L25,1.3929859e-16 Z M30,3.8458278 L30,26.1541722 L30,3.8458278 Z M26.1541722,30 L3.8458278,30 L26.1541722,30 Z" id="Rectangle-Copy-56"></path>
        </g>
        <g id="Background-Square-Copy-25" transform="translate(66.000000, 132.000000)" fill="#303131">
            <path d="M30,5 L30,26.1541722 C30,27.4914503 29.8607616,27.9763797 29.5993009,28.4652686 C29.3378403,28.9541574 28.9541574,29.3378403 28.4652686,29.5993009 C27.9763797,29.8607616 27.4914503,30 26.1541722,30 L5,30 L8,27 L27,27 L27,8 L30,5 Z M3.8458278,-1.55376046e-16 L26.1541722,1.55376046e-16 L3.8458278,0 Z" id="Rectangle-Copy-55"></path>
            <path d="M25,-1.33226763e-15 L22,3 L3,3 L3,22 L8.8817842e-16,25 L1.03584031e-16,3.8458278 C-6.01853049e-17,2.50854969 0.139238417,2.02362033 0.400699056,1.53473144 C0.662159695,1.04584256 1.04584256,0.662159695 1.53473144,0.400699056 C2.02362033,0.139238417 2.50854969,9.02779573e-17 3.8458278,-1.55376046e-16 L25,1.3929859e-16 Z M30,3.8458278 L30,26.1541722 L30,3.8458278 Z M26.1541722,30 L3.8458278,30 L26.1541722,30 Z" id="Rectangle-Copy-56"></path>
        </g>
        <g id="Background-Square-Copy-24" transform="translate(33.000000, 132.000000)" fill="#303131">
            <path d="M30,5 L30,26.1541722 C30,27.4914503 29.8607616,27.9763797 29.5993009,28.4652686 C29.3378403,28.9541574 28.9541574,29.3378403 28.4652686,29.5993009 C27.9763797,29.8607616 27.4914503,30 26.1541722,30 L5,30 L8,27 L27,27 L27,8 L30,5 Z M3.8458278,-1.55376046e-16 L26.1541722,1.55376046e-16 L3.8458278,0 Z" id="Rectangle-Copy-55"></path>
            <path d="M25,-1.33226763e-15 L22,3 L3,3 L3,22 L8.8817842e-16,25 L1.03584031e-16,3.8458278 C-6.01853049e-17,2.50854969 0.139238417,2.02362033 0.400699056,1.53473144 C0.662159695,1.04584256 1.04584256,0.662159695 1.53473144,0.400699056 C2.02362033,0.139238417 2.50854969,9.02779573e-17 3.8458278,-1.55376046e-16 L25,1.3929859e-16 Z M30,3.8458278 L30,26.1541722 L30,3.8458278 Z M26.1541722,30 L3.8458278,30 L26.1541722,30 Z" id="Rectangle-Copy-56"></path>
        </g>
        <g id="Background-Square-Copy-32" transform="translate(99.000000, 99.000000)" fill="#303131">
            <path d="M30,5 L30,26.1541722 C30,27.4914503 29.8607616,27.9763797 29.5993009,28.4652686 C29.3378403,28.9541574 28.9541574,29.3378403 28.4652686,29.5993009 C27.9763797,29.8607616 27.4914503,30 26.1541722,30 L5,30 L8,27 L27,27 L27,8 L30,5 Z M3.8458278,-1.55376046e-16 L26.1541722,1.55376046e-16 L3.8458278,0 Z" id="Rectangle-Copy-55"></path>
            <path d="M25,-1.33226763e-15 L22,3 L3,3 L3,22 L8.8817842e-16,25 L1.03584031e-16,3.8458278 C-6.01853049e-17,2.50854969 0.139238417,2.02362033 0.400699056,1.53473144 C0.662159695,1.04584256 1.04584256,0.662159695 1.53473144,0.400699056 C2.02362033,0.139238417 2.50854969,9.02779573e-17 3.8458278,-1.55376046e-16 L25,1.3929859e-16 Z M30,3.8458278 L30,26.1541722 L30,3.8458278 Z M26.1541722,30 L3.8458278,30 L26.1541722,30 Z" id="Rectangle-Copy-56"></path>
        </g>
        <g id="Background-Square-Copy-31" transform="translate(165.000000, 99.000000)" fill="#303131">
            <path d="M30,5 L30,26.1541722 C30,27.4914503 29.8607616,27.9763797 29.5993009,28.4652686 C29.3378403,28.9541574 28.9541574,29.3378403 28.4652686,29.5993009 C27.9763797,29.8607616 27.4914503,30 26.1541722,30 L5,30 L8,27 L27,27 L27,8 L30,5 Z M3.8458278,-1.55376046e-16 L26.1541722,1.55376046e-16 L3.8458278,0 Z" id="Rectangle-Copy-55"></path>
            <path d="M25,-1.33226763e-15 L22,3 L3,3 L3,22 L8.8817842e-16,25 L1.03584031e-16,3.8458278 C-6.01853049e-17,2.50854969 0.139238417,2.02362033 0.400699056,1.53473144 C0.662159695,1.04584256 1.04584256,0.662159695 1.53473144,0.400699056 C2.02362033,0.139238417 2.50854969,9.02779573e-17 3.8458278,-1.55376046e-16 L25,1.3929859e-16 Z M30,3.8458278 L30,26.1541722 L30,3.8458278 Z M26.1541722,30 L3.8458278,30 L26.1541722,30 Z" id="Rectangle-Copy-56"></path>
        </g>
        <g id="Background-Square-Copy-30" transform="translate(132.000000, 99.000000)" fill="#303131">
            <path d="M30,5 L30,26.1541722 C30,27.4914503 29.8607616,27.9763797 29.5993009,28.4652686 C29.3378403,28.9541574 28.9541574,29.3378403 28.4652686,29.5993009 C27.9763797,29.8607616 27.4914503,30 26.1541722,30 L5,30 L8,27 L27,27 L27,8 L30,5 Z M3.8458278,-1.55376046e-16 L26.1541722,1.55376046e-16 L3.8458278,0 Z" id="Rectangle-Copy-55"></path>
            <path d="M25,-1.33226763e-15 L22,3 L3,3 L3,22 L8.8817842e-16,25 L1.03584031e-16,3.8458278 C-6.01853049e-17,2.50854969 0.139238417,2.02362033 0.400699056,1.53473144 C0.662159695,1.04584256 1.04584256,0.662159695 1.53473144,0.400699056 C2.02362033,0.139238417 2.50854969,9.02779573e-17 3.8458278,-1.55376046e-16 L25,1.3929859e-16 Z M30,3.8458278 L30,26.1541722 L30,3.8458278 Z M26.1541722,30 L3.8458278,30 L26.1541722,30 Z" id="Rectangle-Copy-56"></path>
        </g>
        <g id="Background-Square-Copy-34" transform="translate(231.000000, 99.000000)" fill="#303131">
            <path d="M30,5 L30,26.1541722 C30,27.4914503 29.8607616,27.9763797 29.5993009,28.4652686 C29.3378403,28.9541574 28.9541574,29.3378403 28.4652686,29.5993009 C27.9763797,29.8607616 27.4914503,30 26.1541722,30 L5,30 L8,27 L27,27 L27,8 L30,5 Z M3.8458278,-1.55376046e-16 L26.1541722,1.55376046e-16 L3.8458278,0 Z" id="Rectangle-Copy-55"></path>
            <path d="M25,-1.33226763e-15 L22,3 L3,3 L3,22 L8.8817842e-16,25 L1.03584031e-16,3.8458278 C-6.01853049e-17,2.50854969 0.139238417,2.02362033 0.400699056,1.53473144 C0.662159695,1.04584256 1.04584256,0.662159695 1.53473144,0.400699056 C2.02362033,0.139238417 2.50854969,9.02779573e-17 3.8458278,-1.55376046e-16 L25,1.3929859e-16 Z M30,3.8458278 L30,26.1541722 L30,3.8458278 Z M26.1541722,30 L3.8458278,30 L26.1541722,30 Z" id="Rectangle-Copy-56"></path>
        </g>
        <g id="Background-Square-Copy-33" transform="translate(198.000000, 99.000000)" fill="#303131">
            <path d="M30,5 L30,26.1541722 C30,27.4914503 29.8607616,27.9763797 29.5993009,28.4652686 C29.3378403,28.9541574 28.9541574,29.3378403 28.4652686,29.5993009 C27.9763797,29.8607616 27.4914503,30 26.1541722,30 L5,30 L8,27 L27,27 L27,8 L30,5 Z M3.8458278,-1.55376046e-16 L26.1541722,1.55376046e-16 L3.8458278,0 Z" id="Rectangle-Copy-55"></path>
            <path d="M25,-1.33226763e-15 L22,3 L3,3 L3,22 L8.8817842e-16,25 L1.03584031e-16,3.8458278 C-6.01853049e-17,2.50854969 0.139238417,2.02362033 0.400699056,1.53473144 C0.662159695,1.04584256 1.04584256,0.662159695 1.53473144,0.400699056 C2.02362033,0.139238417 2.50854969,9.02779573e-17 3.8458278,-1.55376046e-16 L25,1.3929859e-16 Z M30,3.8458278 L30,26.1541722 L30,3.8458278 Z M26.1541722,30 L3.8458278,30 L26.1541722,30 Z" id="Rectangle-Copy-56"></path>
        </g>
        <g id="Background-Square-Copy-29" transform="translate(0.000000, 99.000000)" fill="#303131">
            <path d="M30,5 L30,26.1541722 C30,27.4914503 29.8607616,27.9763797 29.5993009,28.4652686 C29.3378403,28.9541574 28.9541574,29.3378403 28.4652686,29.5993009 C27.9763797,29.8607616 27.4914503,30 26.1541722,30 L5,30 L8,27 L27,27 L27,8 L30,5 Z M3.8458278,-1.55376046e-16 L26.1541722,1.55376046e-16 L3.8458278,0 Z" id="Rectangle-Copy-55"></path>
            <path d="M25,-1.33226763e-15 L22,3 L3,3 L3,22 L8.8817842e-16,25 L1.03584031e-16,3.8458278 C-6.01853049e-17,2.50854969 0.139238417,2.02362033 0.400699056,1.53473144 C0.662159695,1.04584256 1.04584256,0.662159695 1.53473144,0.400699056 C2.02362033,0.139238417 2.50854969,9.02779573e-17 3.8458278,-1.55376046e-16 L25,1.3929859e-16 Z M30,3.8458278 L30,26.1541722 L30,3.8458278 Z M26.1541722,30 L3.8458278,30 L26.1541722,30 Z" id="Rectangle-Copy-56"></path>
        </g>
        <g id="Background-Square-Copy-28" transform="translate(66.000000, 99.000000)" fill="#303131">
            <path d="M30,5 L30,26.1541722 C30,27.4914503 29.8607616,27.9763797 29.5993009,28.4652686 C29.3378403,28.9541574 28.9541574,29.3378403 28.4652686,29.5993009 C27.9763797,29.8607616 27.4914503,30 26.1541722,30 L5,30 L8,27 L27,27 L27,8 L30,5 Z M3.8458278,-1.55376046e-16 L26.1541722,1.55376046e-16 L3.8458278,0 Z" id="Rectangle-Copy-55"></path>
            <path d="M25,-1.33226763e-15 L22,3 L3,3 L3,22 L8.8817842e-16,25 L1.03584031e-16,3.8458278 C-6.01853049e-17,2.50854969 0.139238417,2.02362033 0.400699056,1.53473144 C0.662159695,1.04584256 1.04584256,0.662159695 1.53473144,0.400699056 C2.02362033,0.139238417 2.50854969,9.02779573e-17 3.8458278,-1.55376046e-16 L25,1.3929859e-16 Z M30,3.8458278 L30,26.1541722 L30,3.8458278 Z M26.1541722,30 L3.8458278,30 L26.1541722,30 Z" id="Rectangle-Copy-56"></path>
        </g>
        <g id="Background-Square-Copy-27" transform="translate(33.000000, 99.000000)" fill="#303131">
            <path d="M30,5 L30,26.1541722 C30,27.4914503 29.8607616,27.9763797 29.5993009,28.4652686 C29.3378403,28.9541574 28.9541574,29.3378403 28.4652686,29.5993009 C27.9763797,29.8607616 27.4914503,30 26.1541722,30 L5,30 L8,27 L27,27 L27,8 L30,5 Z M3.8458278,-1.55376046e-16 L26.1541722,1.55376046e-16 L3.8458278,0 Z" id="Rectangle-Copy-55"></path>
            <path d="M25,-1.33226763e-15 L22,3 L3,3 L3,22 L8.8817842e-16,25 L1.03584031e-16,3.8458278 C-6.01853049e-17,2.50854969 0.139238417,2.02362033 0.400699056,1.53473144 C0.662159695,1.04584256 1.04584256,0.662159695 1.53473144,0.400699056 C2.02362033,0.139238417 2.50854969,9.02779573e-17 3.8458278,-1.55376046e-16 L25,1.3929859e-16 Z M30,3.8458278 L30,26.1541722 L30,3.8458278 Z M26.1541722,30 L3.8458278,30 L26.1541722,30 Z" id="Rectangle-Copy-56"></path>
        </g>
        <g id="Background-Square-Copy-39" transform="translate(99.000000, 66.000000)" fill="#303131">
            <path d="M30,5 L30,26.1541722 C30,27.4914503 29.8607616,27.9763797 29.5993009,28.4652686 C29.3378403,28.9541574 28.9541574,29.3378403 28.4652686,29.5993009 C27.9763797,29.8607616 27.4914503,30 26.1541722,30 L5,30 L8,27 L27,27 L27,8 L30,5 Z M3.8458278,-1.55376046e-16 L26.1541722,1.55376046e-16 L3.8458278,0 Z" id="Rectangle-Copy-55"></path>
            <path d="M25,-1.33226763e-15 L22,3 L3,3 L3,22 L8.8817842e-16,25 L1.03584031e-16,3.8458278 C-6.01853049e-17,2.50854969 0.139238417,2.02362033 0.400699056,1.53473144 C0.662159695,1.04584256 1.04584256,0.662159695 1.53473144,0.400699056 C2.02362033,0.139238417 2.50854969,9.02779573e-17 3.8458278,-1.55376046e-16 L25,1.3929859e-16 Z M30,3.8458278 L30,26.1541722 L30,3.8458278 Z M26.1541722,30 L3.8458278,30 L26.1541722,30 Z" id="Rectangle-Copy-56"></path>
        </g>
        <g id="Background-Square-Copy-38" transform="translate(132.000000, 66.000000)" fill="#303131">
            <path d="M30,5 L30,26.1541722 C30,27.4914503 29.8607616,27.9763797 29.5993009,28.4652686 C29.3378403,28.9541574 28.9541574,29.3378403 28.4652686,29.5993009 C27.9763797,29.8607616 27.4914503,30 26.1541722,30 L5,30 L8,27 L27,27 L27,8 L30,5 Z M3.8458278,-1.55376046e-16 L26.1541722,1.55376046e-16 L3.8458278,0 Z" id="Rectangle-Copy-55"></path>
            <path d="M25,-1.33226763e-15 L22,3 L3,3 L3,22 L8.8817842e-16,25 L1.03584031e-16,3.8458278 C-6.01853049e-17,2.50854969 0.139238417,2.02362033 0.400699056,1.53473144 C0.662159695,1.04584256 1.04584256,0.662159695 1.53473144,0.400699056 C2.02362033,0.139238417 2.50854969,9.02779573e-17 3.8458278,-1.55376046e-16 L25,1.3929859e-16 Z M30,3.8458278 L30,26.1541722 L30,3.8458278 Z M26.1541722,30 L3.8458278,30 L26.1541722,30 Z" id="Rectangle-Copy-56"></path>
        </g>
        <g id="Background-Square-Copy-37" transform="translate(0.000000, 66.000000)" fill="#303131">
            <path d="M30,5 L30,26.1541722 C30,27.4914503 29.8607616,27.9763797 29.5993009,28.4652686 C29.3378403,28.9541574 28.9541574,29.3378403 28.4652686,29.5993009 C27.9763797,29.8607616 27.4914503,30 26.1541722,30 L5,30 L8,27 L27,27 L27,8 L30,5 Z M3.8458278,-1.55376046e-16 L26.1541722,1.55376046e-16 L3.8458278,0 Z" id="Rectangle-Copy-55"></path>
            <path d="M25,-1.33226763e-15 L22,3 L3,3 L3,22 L8.8817842e-16,25 L1.03584031e-16,3.8458278 C-6.01853049e-17,2.50854969 0.139238417,2.02362033 0.400699056,1.53473144 C0.662159695,1.04584256 1.04584256,0.662159695 1.53473144,0.400699056 C2.02362033,0.139238417 2.50854969,9.02779573e-17 3.8458278,-1.55376046e-16 L25,1.3929859e-16 Z M30,3.8458278 L30,26.1541722 L30,3.8458278 Z M26.1541722,30 L3.8458278,30 L26.1541722,30 Z" id="Rectangle-Copy-56"></path>
        </g>
        <g id="Background-Square-Copy-36" transform="translate(66.000000, 66.000000)" fill="#303131">
            <path d="M30,5 L30,26.1541722 C30,27.4914503 29.8607616,27.9763797 29.5993009,28.4652686 C29.3378403,28.9541574 28.9541574,29.3378403 28.4652686,29.5993009 C27.9763797,29.8607616 27.4914503,30 26.1541722,30 L5,30 L8,27 L27,27 L27,8 L30,5 Z M3.8458278,-1.55376046e-16 L26.1541722,1.55376046e-16 L3.8458278,0 Z" id="Rectangle-Copy-55"></path>
            <path d="M25,-1.33226763e-15 L22,3 L3,3 L3,22 L8.8817842e-16,25 L1.03584031e-16,3.8458278 C-6.01853049e-17,2.50854969 0.139238417,2.02362033 0.400699056,1.53473144 C0.662159695,1.04584256 1.04584256,0.662159695 1.53473144,0.400699056 C2.02362033,0.139238417 2.50854969,9.02779573e-17 3.8458278,-1.55376046e-16 L25,1.3929859e-16 Z M30,3.8458278 L30,26.1541722 L30,3.8458278 Z M26.1541722,30 L3.8458278,30 L26.1541722,30 Z" id="Rectangle-Copy-56"></path>
        </g>
        <g id="Background-Square-Copy-35" transform="translate(33.000000, 66.000000)" fill="#303131">
            <path d="M30,5 L30,26.1541722 C30,27.4914503 29.8607616,27.9763797 29.5993009,28.4652686 C29.3378403,28.9541574 28.9541574,29.3378403 28.4652686,29.5993009 C27.9763797,29.8607616 27.4914503,30 26.1541722,30 L5,30 L8,27 L27,27 L27,8 L30,5 Z M3.8458278,-1.55376046e-16 L26.1541722,1.55376046e-16 L3.8458278,0 Z" id="Rectangle-Copy-55"></path>
            <path d="M25,-1.33226763e-15 L22,3 L3,3 L3,22 L8.8817842e-16,25 L1.03584031e-16,3.8458278 C-6.01853049e-17,2.50854969 0.139238417,2.02362033 0.400699056,1.53473144 C0.662159695,1.04584256 1.04584256,0.662159695 1.53473144,0.400699056 C2.02362033,0.139238417 2.50854969,9.02779573e-17 3.8458278,-1.55376046e-16 L25,1.3929859e-16 Z M30,3.8458278 L30,26.1541722 L30,3.8458278 Z M26.1541722,30 L3.8458278,30 L26.1541722,30 Z" id="Rectangle-Copy-56"></path>
        </g>
        <g id="Background-Square-Copy-42" transform="translate(66.000000, 33.000000)" fill="#303131">
            <path d="M30,5 L30,26.1541722 C30,27.4914503 29.8607616,27.9763797 29.5993009,28.4652686 C29.3378403,28.9541574 28.9541574,29.3378403 28.4652686,29.5993009 C27.9763797,29.8607616 27.4914503,30 26.1541722,30 L5,30 L8,27 L27,27 L27,8 L30,5 Z M3.8458278,-1.55376046e-16 L26.1541722,1.55376046e-16 L3.8458278,0 Z" id="Rectangle-Copy-55"></path>
            <path d="M25,-1.33226763e-15 L22,3 L3,3 L3,22 L8.8817842e-16,25 L1.03584031e-16,3.8458278 C-6.01853049e-17,2.50854969 0.139238417,2.02362033 0.400699056,1.53473144 C0.662159695,1.04584256 1.04584256,0.662159695 1.53473144,0.400699056 C2.02362033,0.139238417 2.50854969,9.02779573e-17 3.8458278,-1.55376046e-16 L25,1.3929859e-16 Z M30,3.8458278 L30,26.1541722 L30,3.8458278 Z M26.1541722,30 L3.8458278,30 L26.1541722,30 Z" id="Rectangle-Copy-56"></path>
        </g>
        <g id="Background-Square-Copy-41" transform="translate(132.000000, 33.000000)" fill="#303131">
            <path d="M30,5 L30,26.1541722 C30,27.4914503 29.8607616,27.9763797 29.5993009,28.4652686 C29.3378403,28.9541574 28.9541574,29.3378403 28.4652686,29.5993009 C27.9763797,29.8607616 27.4914503,30 26.1541722,30 L5,30 L8,27 L27,27 L27,8 L30,5 Z M3.8458278,-1.55376046e-16 L26.1541722,1.55376046e-16 L3.8458278,0 Z" id="Rectangle-Copy-55"></path>
            <path d="M25,-1.33226763e-15 L22,3 L3,3 L3,22 L8.8817842e-16,25 L1.03584031e-16,3.8458278 C-6.01853049e-17,2.50854969 0.139238417,2.02362033 0.400699056,1.53473144 C0.662159695,1.04584256 1.04584256,0.662159695 1.53473144,0.400699056 C2.02362033,0.139238417 2.50854969,9.02779573e-17 3.8458278,-1.55376046e-16 L25,1.3929859e-16 Z M30,3.8458278 L30,26.1541722 L30,3.8458278 Z M26.1541722,30 L3.8458278,30 L26.1541722,30 Z" id="Rectangle-Copy-56"></path>
        </g>
        <g id="Background-Square-Copy-40" transform="translate(99.000000, 33.000000)" fill="#303131">
            <path d="M30,5 L30,26.1541722 C30,27.4914503 29.8607616,27.9763797 29.5993009,28.4652686 C29.3378403,28.9541574 28.9541574,29.3378403 28.4652686,29.5993009 C27.9763797,29.8607616 27.4914503,30 26.1541722,30 L5,30 L8,27 L27,27 L27,8 L30,5 Z M3.8458278,-1.55376046e-16 L26.1541722,1.55376046e-16 L3.8458278,0 Z" id="Rectangle-Copy-55"></path>
            <path d="M25,-1.33226763e-15 L22,3 L3,3 L3,22 L8.8817842e-16,25 L1.03584031e-16,3.8458278 C-6.01853049e-17,2.50854969 0.139238417,2.02362033 0.400699056,1.53473144 C0.662159695,1.04584256 1.04584256,0.662159695 1.53473144,0.400699056 C2.02362033,0.139238417 2.50854969,9.02779573e-17 3.8458278,-1.55376046e-16 L25,1.3929859e-16 Z M30,3.8458278 L30,26.1541722 L30,3.8458278 Z M26.1541722,30 L3.8458278,30 L26.1541722,30 Z" id="Rectangle-Copy-56"></path>
        </g>
        <g id="Background-Square-Copy-45" transform="translate(66.000000, 0.000000)" fill="#303131">
            <path d="M30,5 L30,26.1541722 C30,27.4914503 29.8607616,27.9763797 29.5993009,28.4652686 C29.3378403,28.9541574 28.9541574,29.3378403 28.4652686,29.5993009 C27.9763797,29.8607616 27.4914503,30 26.1541722,30 L5,30 L8,27 L27,27 L27,8 L30,5 Z M3.8458278,-1.55376046e-16 L26.1541722,1.55376046e-16 L3.8458278,0 Z" id="Rectangle-Copy-55"></path>
            <path d="M25,-1.33226763e-15 L22,3 L3,3 L3,22 L8.8817842e-16,25 L1.03584031e-16,3.8458278 C-6.01853049e-17,2.50854969 0.139238417,2.02362033 0.400699056,1.53473144 C0.662159695,1.04584256 1.04584256,0.662159695 1.53473144,0.400699056 C2.02362033,0.139238417 2.50854969,9.02779573e-17 3.8458278,-1.55376046e-16 L25,1.3929859e-16 Z M30,3.8458278 L30,26.1541722 L30,3.8458278 Z M26.1541722,30 L3.8458278,30 L26.1541722,30 Z" id="Rectangle-Copy-56"></path>
        </g>
        <g id="Background-Square-Copy-44" transform="translate(132.000000, 0.000000)" fill="#303131">
            <path d="M30,5 L30,26.1541722 C30,27.4914503 29.8607616,27.9763797 29.5993009,28.4652686 C29.3378403,28.9541574 28.9541574,29.3378403 28.4652686,29.5993009 C27.9763797,29.8607616 27.4914503,30 26.1541722,30 L5,30 L8,27 L27,27 L27,8 L30,5 Z M3.8458278,-1.55376046e-16 L26.1541722,1.55376046e-16 L3.8458278,0 Z" id="Rectangle-Copy-55"></path>
            <path d="M25,-1.33226763e-15 L22,3 L3,3 L3,22 L8.8817842e-16,25 L1.03584031e-16,3.8458278 C-6.01853049e-17,2.50854969 0.139238417,2.02362033 0.400699056,1.53473144 C0.662159695,1.04584256 1.04584256,0.662159695 1.53473144,0.400699056 C2.02362033,0.139238417 2.50854969,9.02779573e-17 3.8458278,-1.55376046e-16 L25,1.3929859e-16 Z M30,3.8458278 L30,26.1541722 L30,3.8458278 Z M26.1541722,30 L3.8458278,30 L26.1541722,30 Z" id="Rectangle-Copy-56"></path>
        </g>
        <g id="Background-Square-Copy-43" transform="translate(99.000000, 0.000000)" fill="#303131">
            <path d="M30,5 L30,26.1541722 C30,27.4914503 29.8607616,27.9763797 29.5993009,28.4652686 C29.3378403,28.9541574 28.9541574,29.3378403 28.4652686,29.5993009 C27.9763797,29.8607616 27.4914503,30 26.1541722,30 L5,30 L8,27 L27,27 L27,8 L30,5 Z M3.8458278,-1.55376046e-16 L26.1541722,1.55376046e-16 L3.8458278,0 Z" id="Rectangle-Copy-55"></path>
            <path d="M25,-1.33226763e-15 L22,3 L3,3 L3,22 L8.8817842e-16,25 L1.03584031e-16,3.8458278 C-6.01853049e-17,2.50854969 0.139238417,2.02362033 0.400699056,1.53473144 C0.662159695,1.04584256 1.04584256,0.662159695 1.53473144,0.400699056 C2.02362033,0.139238417 2.50854969,9.02779573e-17 3.8458278,-1.55376046e-16 L25,1.3929859e-16 Z M30,3.8458278 L30,26.1541722 L30,3.8458278 Z M26.1541722,30 L3.8458278,30 L26.1541722,30 Z" id="Rectangle-Copy-56"></path>
        </g>
        <g id="Background-Square-Copy-48" transform="translate(165.000000, 0.000000)" fill="#303131">
            <path d="M30,5 L30,26.1541722 C30,27.4914503 29.8607616,27.9763797 29.5993009,28.4652686 C29.3378403,28.9541574 28.9541574,29.3378403 28.4652686,29.5993009 C27.9763797,29.8607616 27.4914503,30 26.1541722,30 L5,30 L8,27 L27,27 L27,8 L30,5 Z M3.8458278,-1.55376046e-16 L26.1541722,1.55376046e-16 L3.8458278,0 Z" id="Rectangle-Copy-55"></path>
            <path d="M25,-1.33226763e-15 L22,3 L3,3 L3,22 L8.8817842e-16,25 L1.03584031e-16,3.8458278 C-6.01853049e-17,2.50854969 0.139238417,2.02362033 0.400699056,1.53473144 C0.662159695,1.04584256 1.04584256,0.662159695 1.53473144,0.400699056 C2.02362033,0.139238417 2.50854969,9.02779573e-17 3.8458278,-1.55376046e-16 L25,1.3929859e-16 Z M30,3.8458278 L30,26.1541722 L30,3.8458278 Z M26.1541722,30 L3.8458278,30 L26.1541722,30 Z" id="Rectangle-Copy-56"></path>
        </g>
        <g id="Background-Square-Copy-47" transform="translate(231.000000, 0.000000)" fill="#303131">
            <path d="M30,5 L30,26.1541722 C30,27.4914503 29.8607616,27.9763797 29.5993009,28.4652686 C29.3378403,28.9541574 28.9541574,29.3378403 28.4652686,29.5993009 C27.9763797,29.8607616 27.4914503,30 26.1541722,30 L5,30 L8,27 L27,27 L27,8 L30,5 Z M3.8458278,-1.55376046e-16 L26.1541722,1.55376046e-16 L3.8458278,0 Z" id="Rectangle-Copy-55"></path>
            <path d="M25,-1.33226763e-15 L22,3 L3,3 L3,22 L8.8817842e-16,25 L1.03584031e-16,3.8458278 C-6.01853049e-17,2.50854969 0.139238417,2.02362033 0.400699056,1.53473144 C0.662159695,1.04584256 1.04584256,0.662159695 1.53473144,0.400699056 C2.02362033,0.139238417 2.50854969,9.02779573e-17 3.8458278,-1.55376046e-16 L25,1.3929859e-16 Z M30,3.8458278 L30,26.1541722 L30,3.8458278 Z M26.1541722,30 L3.8458278,30 L26.1541722,30 Z" id="Rectangle-Copy-56"></path>
        </g>
        <g id="Background-Square-Copy-46" transform="translate(198.000000, 0.000000)" fill="#303131">
            <path d="M30,5 L30,26.1541722 C30,27.4914503 29.8607616,27.9763797 29.5993009,28.4652686 C29.3378403,28.9541574 28.9541574,29.3378403 28.4652686,29.5993009 C27.9763797,29.8607616 27.4914503,30 26.1541722,30 L5,30 L8,27 L27,27 L27,8 L30,5 Z M3.8458278,-1.55376046e-16 L26.1541722,1.55376046e-16 L3.8458278,0 Z" id="Rectangle-Copy-55"></path>
            <path d="M25,-1.33226763e-15 L22,3 L3,3 L3,22 L8.8817842e-16,25 L1.03584031e-16,3.8458278 C-6.01853049e-17,2.50854969 0.139238417,2.02362033 0.400699056,1.53473144 C0.662159695,1.04584256 1.04584256,0.662159695 1.53473144,0.400699056 C2.02362033,0.139238417 2.50854969,9.02779573e-17 3.8458278,-1.55376046e-16 L25,1.3929859e-16 Z M30,3.8458278 L30,26.1541722 L30,3.8458278 Z M26.1541722,30 L3.8458278,30 L26.1541722,30 Z" id="Rectangle-Copy-56"></path>
        </g>
    </g>
</svg>