<?xml version="1.0" encoding="UTF-8"?>
<svg width="264px" height="264px" viewBox="0 0 264 264" version="1.1" xmlns="http://www.w3.org/2000/svg" xmlns:xlink="http://www.w3.org/1999/xlink">
    <!-- Generator: Sketch 50.2 (55047) - http://www.bohemiancoding.com/sketch -->
    <title>background tile</title>
    <desc>Created with Sketch.</desc>
    <defs></defs>
    <g id="Page-1" stroke="none" stroke-width="1" fill="none" fill-rule="evenodd">
        <g id="Artboard" transform="translate(-117.000000, -2.000000)" fill="#EFF3F5">
            <g id="background-tile" transform="translate(117.000000, 2.000000)">
                <g>
                    <g id="Background-Square" transform="translate(231.000000, 0.000000)">
                        <g>
                            <path d="M27,8 L30,5 L30,26.1541722 C30,27.4914503 29.8607616,27.9763797 29.5993009,28.4652686 C29.3378403,28.9541574 28.9541574,29.3378403 28.4652686,29.5993009 C27.9763797,29.8607616 27.4914503,30 26.1541722,30 L5,30 L8,27 L27,27 L27,8 Z M3.8458278,-1.55376046e-16 L26.1541722,1.55376046e-16 L3.8458278,0 Z M0,26.1541722 L0,3.8458278 L-1.03584031e-16,26.1541722 Z" id="Rectangle-Copy-55"></path>
                            <path d="M25,-1.33226763e-15 L22,3 L3,3 L3,22 L8.8817842e-16,25 L1.03584031e-16,3.8458278 C-6.01853049e-17,2.50854969 0.139238417,2.02362033 0.400699056,1.53473144 C0.662159695,1.04584256 1.04584256,0.662159695 1.53473144,0.400699056 C2.02362033,0.139238417 2.50854969,9.02779573e-17 3.8458278,-1.55376046e-16 L25,1.3929859e-16 Z M30,3.8458278 L30,26.1541722 L30,3.8458278 Z M26.1541722,30 L3.8458278,30 L26.1541722,30 Z" id="Rectangle-Copy-56"></path>
                        </g>
                    </g>
                    <g id="Background-Square" transform="translate(198.000000, 0.000000)">
                        <g>
                            <path d="M27,8 L30,5 L30,26.1541722 C30,27.4914503 29.8607616,27.9763797 29.5993009,28.4652686 C29.3378403,28.9541574 28.9541574,29.3378403 28.4652686,29.5993009 C27.9763797,29.8607616 27.4914503,30 26.1541722,30 L5,30 L8,27 L27,27 L27,8 Z M3.8458278,-1.55376046e-16 L26.1541722,1.55376046e-16 L3.8458278,0 Z M0,26.1541722 L0,3.8458278 L-1.03584031e-16,26.1541722 Z" id="Rectangle-Copy-55"></path>
                            <path d="M25,-1.33226763e-15 L22,3 L3,3 L3,22 L8.8817842e-16,25 L1.03584031e-16,3.8458278 C-6.01853049e-17,2.50854969 0.139238417,2.02362033 0.400699056,1.53473144 C0.662159695,1.04584256 1.04584256,0.662159695 1.53473144,0.400699056 C2.02362033,0.139238417 2.50854969,9.02779573e-17 3.8458278,-1.55376046e-16 L25,1.3929859e-16 Z M30,3.8458278 L30,26.1541722 L30,3.8458278 Z M26.1541722,30 L3.8458278,30 L26.1541722,30 Z" id="Rectangle-Copy-56"></path>
                        </g>
                    </g>
                    <g id="Background-Square" transform="translate(165.000000, 0.000000)">
                        <g>
                            <path d="M27,8 L30,5 L30,26.1541722 C30,27.4914503 29.8607616,27.9763797 29.5993009,28.4652686 C29.3378403,28.9541574 28.9541574,29.3378403 28.4652686,29.5993009 C27.9763797,29.8607616 27.4914503,30 26.1541722,30 L5,30 L8,27 L27,27 L27,8 Z M3.8458278,-1.55376046e-16 L26.1541722,1.55376046e-16 L3.8458278,0 Z M0,26.1541722 L0,3.8458278 L-1.03584031e-16,26.1541722 Z" id="Rectangle-Copy-55"></path>
                            <path d="M25,-1.33226763e-15 L22,3 L3,3 L3,22 L8.8817842e-16,25 L1.03584031e-16,3.8458278 C-6.01853049e-17,2.50854969 0.139238417,2.02362033 0.400699056,1.53473144 C0.662159695,1.04584256 1.04584256,0.662159695 1.53473144,0.400699056 C2.02362033,0.139238417 2.50854969,9.02779573e-17 3.8458278,-1.55376046e-16 L25,1.3929859e-16 Z M30,3.8458278 L30,26.1541722 L30,3.8458278 Z M26.1541722,30 L3.8458278,30 L26.1541722,30 Z" id="Rectangle-Copy-56"></path>
                        </g>
                    </g>
                    <g id="Background-Square" transform="translate(231.000000, 33.000000)">
                        <g>
                            <path d="M27,8 L30,5 L30,26.1541722 C30,27.4914503 29.8607616,27.9763797 29.5993009,28.4652686 C29.3378403,28.9541574 28.9541574,29.3378403 28.4652686,29.5993009 C27.9763797,29.8607616 27.4914503,30 26.1541722,30 L5,30 L8,27 L27,27 L27,8 Z M3.8458278,-1.55376046e-16 L26.1541722,1.55376046e-16 L3.8458278,0 Z M0,26.1541722 L0,3.8458278 L-1.03584031e-16,26.1541722 Z" id="Rectangle-Copy-55"></path>
                            <path d="M25,-1.33226763e-15 L22,3 L3,3 L3,22 L8.8817842e-16,25 L1.03584031e-16,3.8458278 C-6.01853049e-17,2.50854969 0.139238417,2.02362033 0.400699056,1.53473144 C0.662159695,1.04584256 1.04584256,0.662159695 1.53473144,0.400699056 C2.02362033,0.139238417 2.50854969,9.02779573e-17 3.8458278,-1.55376046e-16 L25,1.3929859e-16 Z M30,3.8458278 L30,26.1541722 L30,3.8458278 Z M26.1541722,30 L3.8458278,30 L26.1541722,30 Z" id="Rectangle-Copy-56"></path>
                        </g>
                    </g>
                    <g id="Background-Square" transform="translate(231.000000, 66.000000)">
                        <g>
                            <path d="M27,8 L30,5 L30,26.1541722 C30,27.4914503 29.8607616,27.9763797 29.5993009,28.4652686 C29.3378403,28.9541574 28.9541574,29.3378403 28.4652686,29.5993009 C27.9763797,29.8607616 27.4914503,30 26.1541722,30 L5,30 L8,27 L27,27 L27,8 Z M3.8458278,-1.55376046e-16 L26.1541722,1.55376046e-16 L3.8458278,0 Z M0,26.1541722 L0,3.8458278 L-1.03584031e-16,26.1541722 Z" id="Rectangle-Copy-55"></path>
                            <path d="M25,-1.33226763e-15 L22,3 L3,3 L3,22 L8.8817842e-16,25 L1.03584031e-16,3.8458278 C-6.01853049e-17,2.50854969 0.139238417,2.02362033 0.400699056,1.53473144 C0.662159695,1.04584256 1.04584256,0.662159695 1.53473144,0.400699056 C2.02362033,0.139238417 2.50854969,9.02779573e-17 3.8458278,-1.55376046e-16 L25,1.3929859e-16 Z M30,3.8458278 L30,26.1541722 L30,3.8458278 Z M26.1541722,30 L3.8458278,30 L26.1541722,30 Z" id="Rectangle-Copy-56"></path>
                        </g>
                    </g>
                    <g id="Background-Square" transform="translate(231.000000, 99.000000)">
                        <g>
                            <path d="M27,8 L30,5 L30,26.1541722 C30,27.4914503 29.8607616,27.9763797 29.5993009,28.4652686 C29.3378403,28.9541574 28.9541574,29.3378403 28.4652686,29.5993009 C27.9763797,29.8607616 27.4914503,30 26.1541722,30 L5,30 L8,27 L27,27 L27,8 Z M3.8458278,-1.55376046e-16 L26.1541722,1.55376046e-16 L3.8458278,0 Z M0,26.1541722 L0,3.8458278 L-1.03584031e-16,26.1541722 Z" id="Rectangle-Copy-55"></path>
                            <path d="M25,-1.33226763e-15 L22,3 L3,3 L3,22 L8.8817842e-16,25 L1.03584031e-16,3.8458278 C-6.01853049e-17,2.50854969 0.139238417,2.02362033 0.400699056,1.53473144 C0.662159695,1.04584256 1.04584256,0.662159695 1.53473144,0.400699056 C2.02362033,0.139238417 2.50854969,9.02779573e-17 3.8458278,-1.55376046e-16 L25,1.3929859e-16 Z M30,3.8458278 L30,26.1541722 L30,3.8458278 Z M26.1541722,30 L3.8458278,30 L26.1541722,30 Z" id="Rectangle-Copy-56"></path>
                        </g>
                    </g>
                    <g id="Background-Square" transform="translate(198.000000, 99.000000)">
                        <g>
                            <path d="M27,8 L30,5 L30,26.1541722 C30,27.4914503 29.8607616,27.9763797 29.5993009,28.4652686 C29.3378403,28.9541574 28.9541574,29.3378403 28.4652686,29.5993009 C27.9763797,29.8607616 27.4914503,30 26.1541722,30 L5,30 L8,27 L27,27 L27,8 Z M3.8458278,-1.55376046e-16 L26.1541722,1.55376046e-16 L3.8458278,0 Z M0,26.1541722 L0,3.8458278 L-1.03584031e-16,26.1541722 Z" id="Rectangle-Copy-55"></path>
                            <path d="M25,-1.33226763e-15 L22,3 L3,3 L3,22 L8.8817842e-16,25 L1.03584031e-16,3.8458278 C-6.01853049e-17,2.50854969 0.139238417,2.02362033 0.400699056,1.53473144 C0.662159695,1.04584256 1.04584256,0.662159695 1.53473144,0.400699056 C2.02362033,0.139238417 2.50854969,9.02779573e-17 3.8458278,-1.55376046e-16 L25,1.3929859e-16 Z M30,3.8458278 L30,26.1541722 L30,3.8458278 Z M26.1541722,30 L3.8458278,30 L26.1541722,30 Z" id="Rectangle-Copy-56"></path>
                        </g>
                    </g>
                    <g id="Background-Square" transform="translate(165.000000, 99.000000)">
                        <g>
                            <path d="M27,8 L30,5 L30,26.1541722 C30,27.4914503 29.8607616,27.9763797 29.5993009,28.4652686 C29.3378403,28.9541574 28.9541574,29.3378403 28.4652686,29.5993009 C27.9763797,29.8607616 27.4914503,30 26.1541722,30 L5,30 L8,27 L27,27 L27,8 Z M3.8458278,-1.55376046e-16 L26.1541722,1.55376046e-16 L3.8458278,0 Z M0,26.1541722 L0,3.8458278 L-1.03584031e-16,26.1541722 Z" id="Rectangle-Copy-55"></path>
                            <path d="M25,-1.33226763e-15 L22,3 L3,3 L3,22 L8.8817842e-16,25 L1.03584031e-16,3.8458278 C-6.01853049e-17,2.50854969 0.139238417,2.02362033 0.400699056,1.53473144 C0.662159695,1.04584256 1.04584256,0.662159695 1.53473144,0.400699056 C2.02362033,0.139238417 2.50854969,9.02779573e-17 3.8458278,-1.55376046e-16 L25,1.3929859e-16 Z M30,3.8458278 L30,26.1541722 L30,3.8458278 Z M26.1541722,30 L3.8458278,30 L26.1541722,30 Z" id="Rectangle-Copy-56"></path>
                        </g>
                    </g>
                    <g id="Background-Square" transform="translate(165.000000, 132.000000)">
                        <g>
                            <path d="M27,8 L30,5 L30,26.1541722 C30,27.4914503 29.8607616,27.9763797 29.5993009,28.4652686 C29.3378403,28.9541574 28.9541574,29.3378403 28.4652686,29.5993009 C27.9763797,29.8607616 27.4914503,30 26.1541722,30 L5,30 L8,27 L27,27 L27,8 Z M3.8458278,-1.55376046e-16 L26.1541722,1.55376046e-16 L3.8458278,0 Z M0,26.1541722 L0,3.8458278 L-1.03584031e-16,26.1541722 Z" id="Rectangle-Copy-55"></path>
                            <path d="M25,-1.33226763e-15 L22,3 L3,3 L3,22 L8.8817842e-16,25 L1.03584031e-16,3.8458278 C-6.01853049e-17,2.50854969 0.139238417,2.02362033 0.400699056,1.53473144 C0.662159695,1.04584256 1.04584256,0.662159695 1.53473144,0.400699056 C2.02362033,0.139238417 2.50854969,9.02779573e-17 3.8458278,-1.55376046e-16 L25,1.3929859e-16 Z M30,3.8458278 L30,26.1541722 L30,3.8458278 Z M26.1541722,30 L3.8458278,30 L26.1541722,30 Z" id="Rectangle-Copy-56"></path>
                        </g>
                    </g>
                    <g id="Background-Square" transform="translate(165.000000, 165.000000)">
                        <g>
                            <path d="M27,8 L30,5 L30,26.1541722 C30,27.4914503 29.8607616,27.9763797 29.5993009,28.4652686 C29.3378403,28.9541574 28.9541574,29.3378403 28.4652686,29.5993009 C27.9763797,29.8607616 27.4914503,30 26.1541722,30 L5,30 L8,27 L27,27 L27,8 Z M3.8458278,-1.55376046e-16 L26.1541722,1.55376046e-16 L3.8458278,0 Z M0,26.1541722 L0,3.8458278 L-1.03584031e-16,26.1541722 Z" id="Rectangle-Copy-55"></path>
                            <path d="M25,-1.33226763e-15 L22,3 L3,3 L3,22 L8.8817842e-16,25 L1.03584031e-16,3.8458278 C-6.01853049e-17,2.50854969 0.139238417,2.02362033 0.400699056,1.53473144 C0.662159695,1.04584256 1.04584256,0.662159695 1.53473144,0.400699056 C2.02362033,0.139238417 2.50854969,9.02779573e-17 3.8458278,-1.55376046e-16 L25,1.3929859e-16 Z M30,3.8458278 L30,26.1541722 L30,3.8458278 Z M26.1541722,30 L3.8458278,30 L26.1541722,30 Z" id="Rectangle-Copy-56"></path>
                        </g>
                    </g>
                    <g id="Background-Square" transform="translate(231.000000, 198.000000)">
                        <g>
                            <path d="M27,8 L30,5 L30,26.1541722 C30,27.4914503 29.8607616,27.9763797 29.5993009,28.4652686 C29.3378403,28.9541574 28.9541574,29.3378403 28.4652686,29.5993009 C27.9763797,29.8607616 27.4914503,30 26.1541722,30 L5,30 L8,27 L27,27 L27,8 Z M3.8458278,-1.55376046e-16 L26.1541722,1.55376046e-16 L3.8458278,0 Z M0,26.1541722 L0,3.8458278 L-1.03584031e-16,26.1541722 Z" id="Rectangle-Copy-55"></path>
                            <path d="M25,-1.33226763e-15 L22,3 L3,3 L3,22 L8.8817842e-16,25 L1.03584031e-16,3.8458278 C-6.01853049e-17,2.50854969 0.139238417,2.02362033 0.400699056,1.53473144 C0.662159695,1.04584256 1.04584256,0.662159695 1.53473144,0.400699056 C2.02362033,0.139238417 2.50854969,9.02779573e-17 3.8458278,-1.55376046e-16 L25,1.3929859e-16 Z M30,3.8458278 L30,26.1541722 L30,3.8458278 Z M26.1541722,30 L3.8458278,30 L26.1541722,30 Z" id="Rectangle-Copy-56"></path>
                        </g>
                    </g>
                    <g id="Background-Square" transform="translate(198.000000, 198.000000)">
                        <g>
                            <path d="M27,8 L30,5 L30,26.1541722 C30,27.4914503 29.8607616,27.9763797 29.5993009,28.4652686 C29.3378403,28.9541574 28.9541574,29.3378403 28.4652686,29.5993009 C27.9763797,29.8607616 27.4914503,30 26.1541722,30 L5,30 L8,27 L27,27 L27,8 Z M3.8458278,-1.55376046e-16 L26.1541722,1.55376046e-16 L3.8458278,0 Z M0,26.1541722 L0,3.8458278 L-1.03584031e-16,26.1541722 Z" id="Rectangle-Copy-55"></path>
                            <path d="M25,-1.33226763e-15 L22,3 L3,3 L3,22 L8.8817842e-16,25 L1.03584031e-16,3.8458278 C-6.01853049e-17,2.50854969 0.139238417,2.02362033 0.400699056,1.53473144 C0.662159695,1.04584256 1.04584256,0.662159695 1.53473144,0.400699056 C2.02362033,0.139238417 2.50854969,9.02779573e-17 3.8458278,-1.55376046e-16 L25,1.3929859e-16 Z M30,3.8458278 L30,26.1541722 L30,3.8458278 Z M26.1541722,30 L3.8458278,30 L26.1541722,30 Z" id="Rectangle-Copy-56"></path>
                        </g>
                    </g>
                    <g id="Background-Square" transform="translate(165.000000, 198.000000)">
                        <g>
                            <path d="M27,8 L30,5 L30,26.1541722 C30,27.4914503 29.8607616,27.9763797 29.5993009,28.4652686 C29.3378403,28.9541574 28.9541574,29.3378403 28.4652686,29.5993009 C27.9763797,29.8607616 27.4914503,30 26.1541722,30 L5,30 L8,27 L27,27 L27,8 Z M3.8458278,-1.55376046e-16 L26.1541722,1.55376046e-16 L3.8458278,0 Z M0,26.1541722 L0,3.8458278 L-1.03584031e-16,26.1541722 Z" id="Rectangle-Copy-55"></path>
                            <path d="M25,-1.33226763e-15 L22,3 L3,3 L3,22 L8.8817842e-16,25 L1.03584031e-16,3.8458278 C-6.01853049e-17,2.50854969 0.139238417,2.02362033 0.400699056,1.53473144 C0.662159695,1.04584256 1.04584256,0.662159695 1.53473144,0.400699056 C2.02362033,0.139238417 2.50854969,9.02779573e-17 3.8458278,-1.55376046e-16 L25,1.3929859e-16 Z M30,3.8458278 L30,26.1541722 L30,3.8458278 Z M26.1541722,30 L3.8458278,30 L26.1541722,30 Z" id="Rectangle-Copy-56"></path>
                        </g>
                    </g>
                    <g id="Background-Square" transform="translate(165.000000, 231.000000)">
                        <g>
                            <path d="M27,8 L30,5 L30,26.1541722 C30,27.4914503 29.8607616,27.9763797 29.5993009,28.4652686 C29.3378403,28.9541574 28.9541574,29.3378403 28.4652686,29.5993009 C27.9763797,29.8607616 27.4914503,30 26.1541722,30 L5,30 L8,27 L27,27 L27,8 Z M3.8458278,-1.55376046e-16 L26.1541722,1.55376046e-16 L3.8458278,0 Z M0,26.1541722 L0,3.8458278 L-1.03584031e-16,26.1541722 Z" id="Rectangle-Copy-55"></path>
                            <path d="M25,-1.33226763e-15 L22,3 L3,3 L3,22 L8.8817842e-16,25 L1.03584031e-16,3.8458278 C-6.01853049e-17,2.50854969 0.139238417,2.02362033 0.400699056,1.53473144 C0.662159695,1.04584256 1.04584256,0.662159695 1.53473144,0.400699056 C2.02362033,0.139238417 2.50854969,9.02779573e-17 3.8458278,-1.55376046e-16 L25,1.3929859e-16 Z M30,3.8458278 L30,26.1541722 L30,3.8458278 Z M26.1541722,30 L3.8458278,30 L26.1541722,30 Z" id="Rectangle-Copy-56"></path>
                        </g>
                    </g>
                    <g id="Background-Square" transform="translate(231.000000, 231.000000)">
                        <g>
                            <path d="M27,8 L30,5 L30,26.1541722 C30,27.4914503 29.8607616,27.9763797 29.5993009,28.4652686 C29.3378403,28.9541574 28.9541574,29.3378403 28.4652686,29.5993009 C27.9763797,29.8607616 27.4914503,30 26.1541722,30 L5,30 L8,27 L27,27 L27,8 Z M3.8458278,-1.55376046e-16 L26.1541722,1.55376046e-16 L3.8458278,0 Z M0,26.1541722 L0,3.8458278 L-1.03584031e-16,26.1541722 Z" id="Rectangle-Copy-55"></path>
                            <path d="M25,-1.33226763e-15 L22,3 L3,3 L3,22 L8.8817842e-16,25 L1.03584031e-16,3.8458278 C-6.01853049e-17,2.50854969 0.139238417,2.02362033 0.400699056,1.53473144 C0.662159695,1.04584256 1.04584256,0.662159695 1.53473144,0.400699056 C2.02362033,0.139238417 2.50854969,9.02779573e-17 3.8458278,-1.55376046e-16 L25,1.3929859e-16 Z M30,3.8458278 L30,26.1541722 L30,3.8458278 Z M26.1541722,30 L3.8458278,30 L26.1541722,30 Z" id="Rectangle-Copy-56"></path>
                        </g>
                    </g>
                    <g id="Background-Square" transform="translate(198.000000, 231.000000)">
                        <g>
                            <path d="M27,8 L30,5 L30,26.1541722 C30,27.4914503 29.8607616,27.9763797 29.5993009,28.4652686 C29.3378403,28.9541574 28.9541574,29.3378403 28.4652686,29.5993009 C27.9763797,29.8607616 27.4914503,30 26.1541722,30 L5,30 L8,27 L27,27 L27,8 Z M3.8458278,-1.55376046e-16 L26.1541722,1.55376046e-16 L3.8458278,0 Z M0,26.1541722 L0,3.8458278 L-1.03584031e-16,26.1541722 Z" id="Rectangle-Copy-55"></path>
                            <path d="M25,-1.33226763e-15 L22,3 L3,3 L3,22 L8.8817842e-16,25 L1.03584031e-16,3.8458278 C-6.01853049e-17,2.50854969 0.139238417,2.02362033 0.400699056,1.53473144 C0.662159695,1.04584256 1.04584256,0.662159695 1.53473144,0.400699056 C2.02362033,0.139238417 2.50854969,9.02779573e-17 3.8458278,-1.55376046e-16 L25,1.3929859e-16 Z M30,3.8458278 L30,26.1541722 L30,3.8458278 Z M26.1541722,30 L3.8458278,30 L26.1541722,30 Z" id="Rectangle-Copy-56"></path>
                        </g>
                    </g>
                    <g id="Background-Square" transform="translate(132.000000, 0.000000)">
                        <g>
                            <path d="M27,8 L30,5 L30,26.1541722 C30,27.4914503 29.8607616,27.9763797 29.5993009,28.4652686 C29.3378403,28.9541574 28.9541574,29.3378403 28.4652686,29.5993009 C27.9763797,29.8607616 27.4914503,30 26.1541722,30 L5,30 L8,27 L27,27 L27,8 Z M3.8458278,-1.55376046e-16 L26.1541722,1.55376046e-16 L3.8458278,0 Z M0,26.1541722 L0,3.8458278 L-1.03584031e-16,26.1541722 Z" id="Rectangle-Copy-55"></path>
                            <path d="M25,-1.33226763e-15 L22,3 L3,3 L3,22 L8.8817842e-16,25 L1.03584031e-16,3.8458278 C-6.01853049e-17,2.50854969 0.139238417,2.02362033 0.400699056,1.53473144 C0.662159695,1.04584256 1.04584256,0.662159695 1.53473144,0.400699056 C2.02362033,0.139238417 2.50854969,9.02779573e-17 3.8458278,-1.55376046e-16 L25,1.3929859e-16 Z M30,3.8458278 L30,26.1541722 L30,3.8458278 Z M26.1541722,30 L3.8458278,30 L26.1541722,30 Z" id="Rectangle-Copy-56"></path>
                        </g>
                    </g>
                    <g id="Background-Square" transform="translate(99.000000, 0.000000)">
                        <g>
                            <path d="M27,8 L30,5 L30,26.1541722 C30,27.4914503 29.8607616,27.9763797 29.5993009,28.4652686 C29.3378403,28.9541574 28.9541574,29.3378403 28.4652686,29.5993009 C27.9763797,29.8607616 27.4914503,30 26.1541722,30 L5,30 L8,27 L27,27 L27,8 Z M3.8458278,-1.55376046e-16 L26.1541722,1.55376046e-16 L3.8458278,0 Z M0,26.1541722 L0,3.8458278 L-1.03584031e-16,26.1541722 Z" id="Rectangle-Copy-55"></path>
                            <path d="M25,-1.33226763e-15 L22,3 L3,3 L3,22 L8.8817842e-16,25 L1.03584031e-16,3.8458278 C-6.01853049e-17,2.50854969 0.139238417,2.02362033 0.400699056,1.53473144 C0.662159695,1.04584256 1.04584256,0.662159695 1.53473144,0.400699056 C2.02362033,0.139238417 2.50854969,9.02779573e-17 3.8458278,-1.55376046e-16 L25,1.3929859e-16 Z M30,3.8458278 L30,26.1541722 L30,3.8458278 Z M26.1541722,30 L3.8458278,30 L26.1541722,30 Z" id="Rectangle-Copy-56"></path>
                        </g>
                    </g>
                    <g id="Background-Square" transform="translate(66.000000, 0.000000)">
                        <g>
                            <path d="M27,8 L30,5 L30,26.1541722 C30,27.4914503 29.8607616,27.9763797 29.5993009,28.4652686 C29.3378403,28.9541574 28.9541574,29.3378403 28.4652686,29.5993009 C27.9763797,29.8607616 27.4914503,30 26.1541722,30 L5,30 L8,27 L27,27 L27,8 Z M3.8458278,-1.55376046e-16 L26.1541722,1.55376046e-16 L3.8458278,0 Z M0,26.1541722 L0,3.8458278 L-1.03584031e-16,26.1541722 Z" id="Rectangle-Copy-55"></path>
                            <path d="M25,-1.33226763e-15 L22,3 L3,3 L3,22 L8.8817842e-16,25 L1.03584031e-16,3.8458278 C-6.01853049e-17,2.50854969 0.139238417,2.02362033 0.400699056,1.53473144 C0.662159695,1.04584256 1.04584256,0.662159695 1.53473144,0.400699056 C2.02362033,0.139238417 2.50854969,9.02779573e-17 3.8458278,-1.55376046e-16 L25,1.3929859e-16 Z M30,3.8458278 L30,26.1541722 L30,3.8458278 Z M26.1541722,30 L3.8458278,30 L26.1541722,30 Z" id="Rectangle-Copy-56"></path>
                        </g>
                    </g>
                    <g id="Background-Square" transform="translate(132.000000, 33.000000)">
                        <g>
                            <path d="M27,8 L30,5 L30,26.1541722 C30,27.4914503 29.8607616,27.9763797 29.5993009,28.4652686 C29.3378403,28.9541574 28.9541574,29.3378403 28.4652686,29.5993009 C27.9763797,29.8607616 27.4914503,30 26.1541722,30 L5,30 L8,27 L27,27 L27,8 Z M3.8458278,-1.55376046e-16 L26.1541722,1.55376046e-16 L3.8458278,0 Z M0,26.1541722 L0,3.8458278 L-1.03584031e-16,26.1541722 Z" id="Rectangle-Copy-55"></path>
                            <path d="M25,-1.33226763e-15 L22,3 L3,3 L3,22 L8.8817842e-16,25 L1.03584031e-16,3.8458278 C-6.01853049e-17,2.50854969 0.139238417,2.02362033 0.400699056,1.53473144 C0.662159695,1.04584256 1.04584256,0.662159695 1.53473144,0.400699056 C2.02362033,0.139238417 2.50854969,9.02779573e-17 3.8458278,-1.55376046e-16 L25,1.3929859e-16 Z M30,3.8458278 L30,26.1541722 L30,3.8458278 Z M26.1541722,30 L3.8458278,30 L26.1541722,30 Z" id="Rectangle-Copy-56"></path>
                        </g>
                    </g>
                    <g id="Background-Square" transform="translate(99.000000, 33.000000)">
                        <g>
                            <path d="M27,8 L30,5 L30,26.1541722 C30,27.4914503 29.8607616,27.9763797 29.5993009,28.4652686 C29.3378403,28.9541574 28.9541574,29.3378403 28.4652686,29.5993009 C27.9763797,29.8607616 27.4914503,30 26.1541722,30 L5,30 L8,27 L27,27 L27,8 Z M3.8458278,-1.55376046e-16 L26.1541722,1.55376046e-16 L3.8458278,0 Z M0,26.1541722 L0,3.8458278 L-1.03584031e-16,26.1541722 Z" id="Rectangle-Copy-55"></path>
                            <path d="M25,-1.33226763e-15 L22,3 L3,3 L3,22 L8.8817842e-16,25 L1.03584031e-16,3.8458278 C-6.01853049e-17,2.50854969 0.139238417,2.02362033 0.400699056,1.53473144 C0.662159695,1.04584256 1.04584256,0.662159695 1.53473144,0.400699056 C2.02362033,0.139238417 2.50854969,9.02779573e-17 3.8458278,-1.55376046e-16 L25,1.3929859e-16 Z M30,3.8458278 L30,26.1541722 L30,3.8458278 Z M26.1541722,30 L3.8458278,30 L26.1541722,30 Z" id="Rectangle-Copy-56"></path>
                        </g>
                    </g>
                    <g id="Background-Square" transform="translate(66.000000, 33.000000)">
                        <g>
                            <path d="M27,8 L30,5 L30,26.1541722 C30,27.4914503 29.8607616,27.9763797 29.5993009,28.4652686 C29.3378403,28.9541574 28.9541574,29.3378403 28.4652686,29.5993009 C27.9763797,29.8607616 27.4914503,30 26.1541722,30 L5,30 L8,27 L27,27 L27,8 Z M3.8458278,-1.55376046e-16 L26.1541722,1.55376046e-16 L3.8458278,0 Z M0,26.1541722 L0,3.8458278 L-1.03584031e-16,26.1541722 Z" id="Rectangle-Copy-55"></path>
                            <path d="M25,-1.33226763e-15 L22,3 L3,3 L3,22 L8.8817842e-16,25 L1.03584031e-16,3.8458278 C-6.01853049e-17,2.50854969 0.139238417,2.02362033 0.400699056,1.53473144 C0.662159695,1.04584256 1.04584256,0.662159695 1.53473144,0.400699056 C2.02362033,0.139238417 2.50854969,9.02779573e-17 3.8458278,-1.55376046e-16 L25,1.3929859e-16 Z M30,3.8458278 L30,26.1541722 L30,3.8458278 Z M26.1541722,30 L3.8458278,30 L26.1541722,30 Z" id="Rectangle-Copy-56"></path>
                        </g>
                    </g>
                    <g id="Background-Square" transform="translate(132.000000, 66.000000)">
                        <g>
                            <path d="M27,8 L30,5 L30,26.1541722 C30,27.4914503 29.8607616,27.9763797 29.5993009,28.4652686 C29.3378403,28.9541574 28.9541574,29.3378403 28.4652686,29.5993009 C27.9763797,29.8607616 27.4914503,30 26.1541722,30 L5,30 L8,27 L27,27 L27,8 Z M3.8458278,-1.55376046e-16 L26.1541722,1.55376046e-16 L3.8458278,0 Z M0,26.1541722 L0,3.8458278 L-1.03584031e-16,26.1541722 Z" id="Rectangle-Copy-55"></path>
                            <path d="M25,-1.33226763e-15 L22,3 L3,3 L3,22 L8.8817842e-16,25 L1.03584031e-16,3.8458278 C-6.01853049e-17,2.50854969 0.139238417,2.02362033 0.400699056,1.53473144 C0.662159695,1.04584256 1.04584256,0.662159695 1.53473144,0.400699056 C2.02362033,0.139238417 2.50854969,9.02779573e-17 3.8458278,-1.55376046e-16 L25,1.3929859e-16 Z M30,3.8458278 L30,26.1541722 L30,3.8458278 Z M26.1541722,30 L3.8458278,30 L26.1541722,30 Z" id="Rectangle-Copy-56"></path>
                        </g>
                    </g>
                    <g id="Background-Square" transform="translate(99.000000, 66.000000)">
                        <g>
                            <path d="M27,8 L30,5 L30,26.1541722 C30,27.4914503 29.8607616,27.9763797 29.5993009,28.4652686 C29.3378403,28.9541574 28.9541574,29.3378403 28.4652686,29.5993009 C27.9763797,29.8607616 27.4914503,30 26.1541722,30 L5,30 L8,27 L27,27 L27,8 Z M3.8458278,-1.55376046e-16 L26.1541722,1.55376046e-16 L3.8458278,0 Z M0,26.1541722 L0,3.8458278 L-1.03584031e-16,26.1541722 Z" id="Rectangle-Copy-55"></path>
                            <path d="M25,-1.33226763e-15 L22,3 L3,3 L3,22 L8.8817842e-16,25 L1.03584031e-16,3.8458278 C-6.01853049e-17,2.50854969 0.139238417,2.02362033 0.400699056,1.53473144 C0.662159695,1.04584256 1.04584256,0.662159695 1.53473144,0.400699056 C2.02362033,0.139238417 2.50854969,9.02779573e-17 3.8458278,-1.55376046e-16 L25,1.3929859e-16 Z M30,3.8458278 L30,26.1541722 L30,3.8458278 Z M26.1541722,30 L3.8458278,30 L26.1541722,30 Z" id="Rectangle-Copy-56"></path>
                        </g>
                    </g>
                    <g id="Background-Square" transform="translate(33.000000, 66.000000)">
                        <g>
                            <path d="M27,8 L30,5 L30,26.1541722 C30,27.4914503 29.8607616,27.9763797 29.5993009,28.4652686 C29.3378403,28.9541574 28.9541574,29.3378403 28.4652686,29.5993009 C27.9763797,29.8607616 27.4914503,30 26.1541722,30 L5,30 L8,27 L27,27 L27,8 Z M3.8458278,-1.55376046e-16 L26.1541722,1.55376046e-16 L3.8458278,0 Z M0,26.1541722 L0,3.8458278 L-1.03584031e-16,26.1541722 Z" id="Rectangle-Copy-55"></path>
                            <path d="M25,-1.33226763e-15 L22,3 L3,3 L3,22 L8.8817842e-16,25 L1.03584031e-16,3.8458278 C-6.01853049e-17,2.50854969 0.139238417,2.02362033 0.400699056,1.53473144 C0.662159695,1.04584256 1.04584256,0.662159695 1.53473144,0.400699056 C2.02362033,0.139238417 2.50854969,9.02779573e-17 3.8458278,-1.55376046e-16 L25,1.3929859e-16 Z M30,3.8458278 L30,26.1541722 L30,3.8458278 Z M26.1541722,30 L3.8458278,30 L26.1541722,30 Z" id="Rectangle-Copy-56"></path>
                        </g>
                    </g>
                    <g id="Background-Square" transform="translate(0.000000, 66.000000)">
                        <g>
                            <path d="M27,8 L30,5 L30,26.1541722 C30,27.4914503 29.8607616,27.9763797 29.5993009,28.4652686 C29.3378403,28.9541574 28.9541574,29.3378403 28.4652686,29.5993009 C27.9763797,29.8607616 27.4914503,30 26.1541722,30 L5,30 L8,27 L27,27 L27,8 Z M3.8458278,-1.55376046e-16 L26.1541722,1.55376046e-16 L3.8458278,0 Z M0,26.1541722 L0,3.8458278 L-1.03584031e-16,26.1541722 Z" id="Rectangle-Copy-55"></path>
                            <path d="M25,-1.33226763e-15 L22,3 L3,3 L3,22 L8.8817842e-16,25 L1.03584031e-16,3.8458278 C-6.01853049e-17,2.50854969 0.139238417,2.02362033 0.400699056,1.53473144 C0.662159695,1.04584256 1.04584256,0.662159695 1.53473144,0.400699056 C2.02362033,0.139238417 2.50854969,9.02779573e-17 3.8458278,-1.55376046e-16 L25,1.3929859e-16 Z M30,3.8458278 L30,26.1541722 L30,3.8458278 Z M26.1541722,30 L3.8458278,30 L26.1541722,30 Z" id="Rectangle-Copy-56"></path>
                        </g>
                    </g>
                    <g id="Background-Square" transform="translate(132.000000, 99.000000)">
                        <g>
                            <path d="M27,8 L30,5 L30,26.1541722 C30,27.4914503 29.8607616,27.9763797 29.5993009,28.4652686 C29.3378403,28.9541574 28.9541574,29.3378403 28.4652686,29.5993009 C27.9763797,29.8607616 27.4914503,30 26.1541722,30 L5,30 L8,27 L27,27 L27,8 Z M3.8458278,-1.55376046e-16 L26.1541722,1.55376046e-16 L3.8458278,0 Z M0,26.1541722 L0,3.8458278 L-1.03584031e-16,26.1541722 Z" id="Rectangle-Copy-55"></path>
                            <path d="M25,-1.33226763e-15 L22,3 L3,3 L3,22 L8.8817842e-16,25 L1.03584031e-16,3.8458278 C-6.01853049e-17,2.50854969 0.139238417,2.02362033 0.400699056,1.53473144 C0.662159695,1.04584256 1.04584256,0.662159695 1.53473144,0.400699056 C2.02362033,0.139238417 2.50854969,9.02779573e-17 3.8458278,-1.55376046e-16 L25,1.3929859e-16 Z M30,3.8458278 L30,26.1541722 L30,3.8458278 Z M26.1541722,30 L3.8458278,30 L26.1541722,30 Z" id="Rectangle-Copy-56"></path>
                        </g>
                    </g>
                    <g id="Background-Square" transform="translate(132.000000, 132.000000)">
                        <g>
                            <path d="M27,8 L30,5 L30,26.1541722 C30,27.4914503 29.8607616,27.9763797 29.5993009,28.4652686 C29.3378403,28.9541574 28.9541574,29.3378403 28.4652686,29.5993009 C27.9763797,29.8607616 27.4914503,30 26.1541722,30 L5,30 L8,27 L27,27 L27,8 Z M3.8458278,-1.55376046e-16 L26.1541722,1.55376046e-16 L3.8458278,0 Z M0,26.1541722 L0,3.8458278 L-1.03584031e-16,26.1541722 Z" id="Rectangle-Copy-55"></path>
                            <path d="M25,-1.33226763e-15 L22,3 L3,3 L3,22 L8.8817842e-16,25 L1.03584031e-16,3.8458278 C-6.01853049e-17,2.50854969 0.139238417,2.02362033 0.400699056,1.53473144 C0.662159695,1.04584256 1.04584256,0.662159695 1.53473144,0.400699056 C2.02362033,0.139238417 2.50854969,9.02779573e-17 3.8458278,-1.55376046e-16 L25,1.3929859e-16 Z M30,3.8458278 L30,26.1541722 L30,3.8458278 Z M26.1541722,30 L3.8458278,30 L26.1541722,30 Z" id="Rectangle-Copy-56"></path>
                        </g>
                    </g>
                    <g id="Background-Square" transform="translate(99.000000, 99.000000)">
                        <g>
                            <path d="M27,8 L30,5 L30,26.1541722 C30,27.4914503 29.8607616,27.9763797 29.5993009,28.4652686 C29.3378403,28.9541574 28.9541574,29.3378403 28.4652686,29.5993009 C27.9763797,29.8607616 27.4914503,30 26.1541722,30 L5,30 L8,27 L27,27 L27,8 Z M3.8458278,-1.55376046e-16 L26.1541722,1.55376046e-16 L3.8458278,0 Z M0,26.1541722 L0,3.8458278 L-1.03584031e-16,26.1541722 Z" id="Rectangle-Copy-55"></path>
                            <path d="M25,-1.33226763e-15 L22,3 L3,3 L3,22 L8.8817842e-16,25 L1.03584031e-16,3.8458278 C-6.01853049e-17,2.50854969 0.139238417,2.02362033 0.400699056,1.53473144 C0.662159695,1.04584256 1.04584256,0.662159695 1.53473144,0.400699056 C2.02362033,0.139238417 2.50854969,9.02779573e-17 3.8458278,-1.55376046e-16 L25,1.3929859e-16 Z M30,3.8458278 L30,26.1541722 L30,3.8458278 Z M26.1541722,30 L3.8458278,30 L26.1541722,30 Z" id="Rectangle-Copy-56"></path>
                        </g>
                    </g>
                    <g id="Background-Square" transform="translate(66.000000, 99.000000)">
                        <g>
                            <path d="M27,8 L30,5 L30,26.1541722 C30,27.4914503 29.8607616,27.9763797 29.5993009,28.4652686 C29.3378403,28.9541574 28.9541574,29.3378403 28.4652686,29.5993009 C27.9763797,29.8607616 27.4914503,30 26.1541722,30 L5,30 L8,27 L27,27 L27,8 Z M3.8458278,-1.55376046e-16 L26.1541722,1.55376046e-16 L3.8458278,0 Z M0,26.1541722 L0,3.8458278 L-1.03584031e-16,26.1541722 Z" id="Rectangle-Copy-55"></path>
                            <path d="M25,-1.33226763e-15 L22,3 L3,3 L3,22 L8.8817842e-16,25 L1.03584031e-16,3.8458278 C-6.01853049e-17,2.50854969 0.139238417,2.02362033 0.400699056,1.53473144 C0.662159695,1.04584256 1.04584256,0.662159695 1.53473144,0.400699056 C2.02362033,0.139238417 2.50854969,9.02779573e-17 3.8458278,-1.55376046e-16 L25,1.3929859e-16 Z M30,3.8458278 L30,26.1541722 L30,3.8458278 Z M26.1541722,30 L3.8458278,30 L26.1541722,30 Z" id="Rectangle-Copy-56"></path>
                        </g>
                    </g>
                    <g id="Background-Square" transform="translate(66.000000, 66.000000)">
                        <g>
                            <path d="M27,8 L30,5 L30,26.1541722 C30,27.4914503 29.8607616,27.9763797 29.5993009,28.4652686 C29.3378403,28.9541574 28.9541574,29.3378403 28.4652686,29.5993009 C27.9763797,29.8607616 27.4914503,30 26.1541722,30 L5,30 L8,27 L27,27 L27,8 Z M3.8458278,-1.55376046e-16 L26.1541722,1.55376046e-16 L3.8458278,0 Z M0,26.1541722 L0,3.8458278 L-1.03584031e-16,26.1541722 Z" id="Rectangle-Copy-55"></path>
                            <path d="M25,-1.33226763e-15 L22,3 L3,3 L3,22 L8.8817842e-16,25 L1.03584031e-16,3.8458278 C-6.01853049e-17,2.50854969 0.139238417,2.02362033 0.400699056,1.53473144 C0.662159695,1.04584256 1.04584256,0.662159695 1.53473144,0.400699056 C2.02362033,0.139238417 2.50854969,9.02779573e-17 3.8458278,-1.55376046e-16 L25,1.3929859e-16 Z M30,3.8458278 L30,26.1541722 L30,3.8458278 Z M26.1541722,30 L3.8458278,30 L26.1541722,30 Z" id="Rectangle-Copy-56"></path>
                        </g>
                    </g>
                    <g id="Background-Square" transform="translate(33.000000, 99.000000)">
                        <g>
                            <path d="M27,8 L30,5 L30,26.1541722 C30,27.4914503 29.8607616,27.9763797 29.5993009,28.4652686 C29.3378403,28.9541574 28.9541574,29.3378403 28.4652686,29.5993009 C27.9763797,29.8607616 27.4914503,30 26.1541722,30 L5,30 L8,27 L27,27 L27,8 Z M3.8458278,-1.55376046e-16 L26.1541722,1.55376046e-16 L3.8458278,0 Z M0,26.1541722 L0,3.8458278 L-1.03584031e-16,26.1541722 Z" id="Rectangle-Copy-55"></path>
                            <path d="M25,-1.33226763e-15 L22,3 L3,3 L3,22 L8.8817842e-16,25 L1.03584031e-16,3.8458278 C-6.01853049e-17,2.50854969 0.139238417,2.02362033 0.400699056,1.53473144 C0.662159695,1.04584256 1.04584256,0.662159695 1.53473144,0.400699056 C2.02362033,0.139238417 2.50854969,9.02779573e-17 3.8458278,-1.55376046e-16 L25,1.3929859e-16 Z M30,3.8458278 L30,26.1541722 L30,3.8458278 Z M26.1541722,30 L3.8458278,30 L26.1541722,30 Z" id="Rectangle-Copy-56"></path>
                        </g>
                    </g>
                    <g id="Background-Square" transform="translate(0.000000, 99.000000)">
                        <g>
                            <path d="M27,8 L30,5 L30,26.1541722 C30,27.4914503 29.8607616,27.9763797 29.5993009,28.4652686 C29.3378403,28.9541574 28.9541574,29.3378403 28.4652686,29.5993009 C27.9763797,29.8607616 27.4914503,30 26.1541722,30 L5,30 L8,27 L27,27 L27,8 Z M3.8458278,-1.55376046e-16 L26.1541722,1.55376046e-16 L3.8458278,0 Z M0,26.1541722 L0,3.8458278 L-1.03584031e-16,26.1541722 Z" id="Rectangle-Copy-55"></path>
                            <path d="M25,-1.33226763e-15 L22,3 L3,3 L3,22 L8.8817842e-16,25 L1.03584031e-16,3.8458278 C-6.01853049e-17,2.50854969 0.139238417,2.02362033 0.400699056,1.53473144 C0.662159695,1.04584256 1.04584256,0.662159695 1.53473144,0.400699056 C2.02362033,0.139238417 2.50854969,9.02779573e-17 3.8458278,-1.55376046e-16 L25,1.3929859e-16 Z M30,3.8458278 L30,26.1541722 L30,3.8458278 Z M26.1541722,30 L3.8458278,30 L26.1541722,30 Z" id="Rectangle-Copy-56"></path>
                        </g>
                    </g>
                    <g id="Background-Square" transform="translate(99.000000, 132.000000)">
                        <g>
                            <path d="M27,8 L30,5 L30,26.1541722 C30,27.4914503 29.8607616,27.9763797 29.5993009,28.4652686 C29.3378403,28.9541574 28.9541574,29.3378403 28.4652686,29.5993009 C27.9763797,29.8607616 27.4914503,30 26.1541722,30 L5,30 L8,27 L27,27 L27,8 Z M3.8458278,-1.55376046e-16 L26.1541722,1.55376046e-16 L3.8458278,0 Z M0,26.1541722 L0,3.8458278 L-1.03584031e-16,26.1541722 Z" id="Rectangle-Copy-55"></path>
                            <path d="M25,-1.33226763e-15 L22,3 L3,3 L3,22 L8.8817842e-16,25 L1.03584031e-16,3.8458278 C-6.01853049e-17,2.50854969 0.139238417,2.02362033 0.400699056,1.53473144 C0.662159695,1.04584256 1.04584256,0.662159695 1.53473144,0.400699056 C2.02362033,0.139238417 2.50854969,9.02779573e-17 3.8458278,-1.55376046e-16 L25,1.3929859e-16 Z M30,3.8458278 L30,26.1541722 L30,3.8458278 Z M26.1541722,30 L3.8458278,30 L26.1541722,30 Z" id="Rectangle-Copy-56"></path>
                        </g>
                    </g>
                    <g id="Background-Square" transform="translate(66.000000, 132.000000)">
                        <g>
                            <path d="M27,8 L30,5 L30,26.1541722 C30,27.4914503 29.8607616,27.9763797 29.5993009,28.4652686 C29.3378403,28.9541574 28.9541574,29.3378403 28.4652686,29.5993009 C27.9763797,29.8607616 27.4914503,30 26.1541722,30 L5,30 L8,27 L27,27 L27,8 Z M3.8458278,-1.55376046e-16 L26.1541722,1.55376046e-16 L3.8458278,0 Z M0,26.1541722 L0,3.8458278 L-1.03584031e-16,26.1541722 Z" id="Rectangle-Copy-55"></path>
                            <path d="M25,-1.33226763e-15 L22,3 L3,3 L3,22 L8.8817842e-16,25 L1.03584031e-16,3.8458278 C-6.01853049e-17,2.50854969 0.139238417,2.02362033 0.400699056,1.53473144 C0.662159695,1.04584256 1.04584256,0.662159695 1.53473144,0.400699056 C2.02362033,0.139238417 2.50854969,9.02779573e-17 3.8458278,-1.55376046e-16 L25,1.3929859e-16 Z M30,3.8458278 L30,26.1541722 L30,3.8458278 Z M26.1541722,30 L3.8458278,30 L26.1541722,30 Z" id="Rectangle-Copy-56"></path>
                        </g>
                    </g>
                    <g id="Background-Square" transform="translate(33.000000, 132.000000)">
                        <g>
                            <path d="M27,8 L30,5 L30,26.1541722 C30,27.4914503 29.8607616,27.9763797 29.5993009,28.4652686 C29.3378403,28.9541574 28.9541574,29.3378403 28.4652686,29.5993009 C27.9763797,29.8607616 27.4914503,30 26.1541722,30 L5,30 L8,27 L27,27 L27,8 Z M3.8458278,-1.55376046e-16 L26.1541722,1.55376046e-16 L3.8458278,0 Z M0,26.1541722 L0,3.8458278 L-1.03584031e-16,26.1541722 Z" id="Rectangle-Copy-55"></path>
                            <path d="M25,-1.33226763e-15 L22,3 L3,3 L3,22 L8.8817842e-16,25 L1.03584031e-16,3.8458278 C-6.01853049e-17,2.50854969 0.139238417,2.02362033 0.400699056,1.53473144 C0.662159695,1.04584256 1.04584256,0.662159695 1.53473144,0.400699056 C2.02362033,0.139238417 2.50854969,9.02779573e-17 3.8458278,-1.55376046e-16 L25,1.3929859e-16 Z M30,3.8458278 L30,26.1541722 L30,3.8458278 Z M26.1541722,30 L3.8458278,30 L26.1541722,30 Z" id="Rectangle-Copy-56"></path>
                        </g>
                    </g>
                    <g id="Background-Square" transform="translate(0.000000, 132.000000)">
                        <g>
                            <path d="M27,8 L30,5 L30,26.1541722 C30,27.4914503 29.8607616,27.9763797 29.5993009,28.4652686 C29.3378403,28.9541574 28.9541574,29.3378403 28.4652686,29.5993009 C27.9763797,29.8607616 27.4914503,30 26.1541722,30 L5,30 L8,27 L27,27 L27,8 Z M3.8458278,-1.55376046e-16 L26.1541722,1.55376046e-16 L3.8458278,0 Z M0,26.1541722 L0,3.8458278 L-1.03584031e-16,26.1541722 Z" id="Rectangle-Copy-55"></path>
                            <path d="M25,-1.33226763e-15 L22,3 L3,3 L3,22 L8.8817842e-16,25 L1.03584031e-16,3.8458278 C-6.01853049e-17,2.50854969 0.139238417,2.02362033 0.400699056,1.53473144 C0.662159695,1.04584256 1.04584256,0.662159695 1.53473144,0.400699056 C2.02362033,0.139238417 2.50854969,9.02779573e-17 3.8458278,-1.55376046e-16 L25,1.3929859e-16 Z M30,3.8458278 L30,26.1541722 L30,3.8458278 Z M26.1541722,30 L3.8458278,30 L26.1541722,30 Z" id="Rectangle-Copy-56"></path>
                        </g>
                    </g>
                    <g id="Background-Square" transform="translate(132.000000, 165.000000)">
                        <g>
                            <path d="M27,8 L30,5 L30,26.1541722 C30,27.4914503 29.8607616,27.9763797 29.5993009,28.4652686 C29.3378403,28.9541574 28.9541574,29.3378403 28.4652686,29.5993009 C27.9763797,29.8607616 27.4914503,30 26.1541722,30 L5,30 L8,27 L27,27 L27,8 Z M3.8458278,-1.55376046e-16 L26.1541722,1.55376046e-16 L3.8458278,0 Z M0,26.1541722 L0,3.8458278 L-1.03584031e-16,26.1541722 Z" id="Rectangle-Copy-55"></path>
                            <path d="M25,-1.33226763e-15 L22,3 L3,3 L3,22 L8.8817842e-16,25 L1.03584031e-16,3.8458278 C-6.01853049e-17,2.50854969 0.139238417,2.02362033 0.400699056,1.53473144 C0.662159695,1.04584256 1.04584256,0.662159695 1.53473144,0.400699056 C2.02362033,0.139238417 2.50854969,9.02779573e-17 3.8458278,-1.55376046e-16 L25,1.3929859e-16 Z M30,3.8458278 L30,26.1541722 L30,3.8458278 Z M26.1541722,30 L3.8458278,30 L26.1541722,30 Z" id="Rectangle-Copy-56"></path>
                        </g>
                    </g>
                    <g id="Background-Square" transform="translate(99.000000, 165.000000)">
                        <g>
                            <path d="M27,8 L30,5 L30,26.1541722 C30,27.4914503 29.8607616,27.9763797 29.5993009,28.4652686 C29.3378403,28.9541574 28.9541574,29.3378403 28.4652686,29.5993009 C27.9763797,29.8607616 27.4914503,30 26.1541722,30 L5,30 L8,27 L27,27 L27,8 Z M3.8458278,-1.55376046e-16 L26.1541722,1.55376046e-16 L3.8458278,0 Z M0,26.1541722 L0,3.8458278 L-1.03584031e-16,26.1541722 Z" id="Rectangle-Copy-55"></path>
                            <path d="M25,-1.33226763e-15 L22,3 L3,3 L3,22 L8.8817842e-16,25 L1.03584031e-16,3.8458278 C-6.01853049e-17,2.50854969 0.139238417,2.02362033 0.400699056,1.53473144 C0.662159695,1.04584256 1.04584256,0.662159695 1.53473144,0.400699056 C2.02362033,0.139238417 2.50854969,9.02779573e-17 3.8458278,-1.55376046e-16 L25,1.3929859e-16 Z M30,3.8458278 L30,26.1541722 L30,3.8458278 Z M26.1541722,30 L3.8458278,30 L26.1541722,30 Z" id="Rectangle-Copy-56"></path>
                        </g>
                    </g>
                    <g id="Background-Square" transform="translate(0.000000, 165.000000)">
                        <g>
                            <path d="M27,8 L30,5 L30,26.1541722 C30,27.4914503 29.8607616,27.9763797 29.5993009,28.4652686 C29.3378403,28.9541574 28.9541574,29.3378403 28.4652686,29.5993009 C27.9763797,29.8607616 27.4914503,30 26.1541722,30 L5,30 L8,27 L27,27 L27,8 Z M3.8458278,-1.55376046e-16 L26.1541722,1.55376046e-16 L3.8458278,0 Z M0,26.1541722 L0,3.8458278 L-1.03584031e-16,26.1541722 Z" id="Rectangle-Copy-55"></path>
                            <path d="M25,-1.33226763e-15 L22,3 L3,3 L3,22 L8.8817842e-16,25 L1.03584031e-16,3.8458278 C-6.01853049e-17,2.50854969 0.139238417,2.02362033 0.400699056,1.53473144 C0.662159695,1.04584256 1.04584256,0.662159695 1.53473144,0.400699056 C2.02362033,0.139238417 2.50854969,9.02779573e-17 3.8458278,-1.55376046e-16 L25,1.3929859e-16 Z M30,3.8458278 L30,26.1541722 L30,3.8458278 Z M26.1541722,30 L3.8458278,30 L26.1541722,30 Z" id="Rectangle-Copy-56"></path>
                        </g>
                    </g>
                    <g id="Background-Square" transform="translate(132.000000, 198.000000)">
                        <g>
                            <path d="M27,8 L30,5 L30,26.1541722 C30,27.4914503 29.8607616,27.9763797 29.5993009,28.4652686 C29.3378403,28.9541574 28.9541574,29.3378403 28.4652686,29.5993009 C27.9763797,29.8607616 27.4914503,30 26.1541722,30 L5,30 L8,27 L27,27 L27,8 Z M3.8458278,-1.55376046e-16 L26.1541722,1.55376046e-16 L3.8458278,0 Z M0,26.1541722 L0,3.8458278 L-1.03584031e-16,26.1541722 Z" id="Rectangle-Copy-55"></path>
                            <path d="M25,-1.33226763e-15 L22,3 L3,3 L3,22 L8.8817842e-16,25 L1.03584031e-16,3.8458278 C-6.01853049e-17,2.50854969 0.139238417,2.02362033 0.400699056,1.53473144 C0.662159695,1.04584256 1.04584256,0.662159695 1.53473144,0.400699056 C2.02362033,0.139238417 2.50854969,9.02779573e-17 3.8458278,-1.55376046e-16 L25,1.3929859e-16 Z M30,3.8458278 L30,26.1541722 L30,3.8458278 Z M26.1541722,30 L3.8458278,30 L26.1541722,30 Z" id="Rectangle-Copy-56"></path>
                        </g>
                    </g>
                    <g id="Background-Square" transform="translate(99.000000, 198.000000)">
                        <g>
                            <path d="M27,8 L30,5 L30,26.1541722 C30,27.4914503 29.8607616,27.9763797 29.5993009,28.4652686 C29.3378403,28.9541574 28.9541574,29.3378403 28.4652686,29.5993009 C27.9763797,29.8607616 27.4914503,30 26.1541722,30 L5,30 L8,27 L27,27 L27,8 Z M3.8458278,-1.55376046e-16 L26.1541722,1.55376046e-16 L3.8458278,0 Z M0,26.1541722 L0,3.8458278 L-1.03584031e-16,26.1541722 Z" id="Rectangle-Copy-55"></path>
                            <path d="M25,-1.33226763e-15 L22,3 L3,3 L3,22 L8.8817842e-16,25 L1.03584031e-16,3.8458278 C-6.01853049e-17,2.50854969 0.139238417,2.02362033 0.400699056,1.53473144 C0.662159695,1.04584256 1.04584256,0.662159695 1.53473144,0.400699056 C2.02362033,0.139238417 2.50854969,9.02779573e-17 3.8458278,-1.55376046e-16 L25,1.3929859e-16 Z M30,3.8458278 L30,26.1541722 L30,3.8458278 Z M26.1541722,30 L3.8458278,30 L26.1541722,30 Z" id="Rectangle-Copy-56"></path>
                        </g>
                    </g>
                    <g id="Large-background-square" transform="translate(33.000000, 166.000000)">
                        <g id="Background-Square">
                            <path d="M3.8458278,-5.99465256e-16 L58.1541722,-2.54245116e-15 L3.8458278,0 Z M62,10.3030303 L62,57.972354 C62,59.3096321 61.8607616,59.7945615 61.5993009,60.2834504 C61.3378403,60.7723393 60.9541574,61.1560221 60.4652686,61.4174828 C59.9763797,61.6789434 59.4914503,61.8181818 58.1541722,61.8181818 L10.3333333,61.8181818 L13.5245098,58.6363636 L58.8,58.6363636 L58.8,13.4936461 L62,10.3030303 Z M3.40505179e-16,57.972354 L5.47673241e-16,3.8458278 L0,57.972354 Z" id="Rectangle-Copy-55"></path>
                            <path d="M51.6666667,-3.55271368e-15 L48.4754902,3.18181818 L3.2,3.18181818 L3.2,48.3245357 L0,51.5151515 L5.47673241e-16,3.8458278 C3.83903905e-16,2.50854969 0.139238417,2.02362033 0.400699056,1.53473144 C0.662159695,1.04584256 1.04584256,0.662159695 1.53473144,0.400699056 C2.02362033,0.139238417 2.50854969,-3.53811253e-16 3.8458278,-5.99465256e-16 L51.6666667,-2.31034812e-15 Z M62,3.8458278 L62,57.972354 L62,3.8458278 Z M58.1541722,61.8181818 L3.8458278,61.8181818 L58.1541722,61.8181818 Z" id="Rectangle-Copy-56"></path>
                        </g>
                    </g>
                    <g id="Large-background-square" transform="translate(1.000000, 0.000000)">
                        <g id="Background-Square">
                            <path d="M3.8458278,-5.99465256e-16 L58.1541722,-2.54245116e-15 L3.8458278,0 Z M62,10.3030303 L62,57.972354 C62,59.3096321 61.8607616,59.7945615 61.5993009,60.2834504 C61.3378403,60.7723393 60.9541574,61.1560221 60.4652686,61.4174828 C59.9763797,61.6789434 59.4914503,61.8181818 58.1541722,61.8181818 L10.3333333,61.8181818 L13.5245098,58.6363636 L58.8,58.6363636 L58.8,13.4936461 L62,10.3030303 Z M3.40505179e-16,57.972354 L5.47673241e-16,3.8458278 L0,57.972354 Z" id="Rectangle-Copy-55"></path>
                            <path d="M51.6666667,-3.55271368e-15 L48.4754902,3.18181818 L3.2,3.18181818 L3.2,48.3245357 L0,51.5151515 L5.47673241e-16,3.8458278 C3.83903905e-16,2.50854969 0.139238417,2.02362033 0.400699056,1.53473144 C0.662159695,1.04584256 1.04584256,0.662159695 1.53473144,0.400699056 C2.02362033,0.139238417 2.50854969,-3.53811253e-16 3.8458278,-5.99465256e-16 L51.6666667,-2.31034812e-15 Z M62,3.8458278 L62,57.972354 L62,3.8458278 Z M58.1541722,61.8181818 L3.8458278,61.8181818 L58.1541722,61.8181818 Z" id="Rectangle-Copy-56"></path>
                        </g>
                    </g>
                    <g id="Large-background-square" transform="translate(166.000000, 33.000000)">
                        <g id="Background-Square">
                            <path d="M3.8458278,-5.99465256e-16 L58.1541722,-2.54245116e-15 L3.8458278,0 Z M62,10.3030303 L62,57.972354 C62,59.3096321 61.8607616,59.7945615 61.5993009,60.2834504 C61.3378403,60.7723393 60.9541574,61.1560221 60.4652686,61.4174828 C59.9763797,61.6789434 59.4914503,61.8181818 58.1541722,61.8181818 L10.3333333,61.8181818 L13.5245098,58.6363636 L58.8,58.6363636 L58.8,13.4936461 L62,10.3030303 Z M3.40505179e-16,57.972354 L5.47673241e-16,3.8458278 L0,57.972354 Z" id="Rectangle-Copy-55"></path>
                            <path d="M51.6666667,-3.55271368e-15 L48.4754902,3.18181818 L3.2,3.18181818 L3.2,48.3245357 L0,51.5151515 L5.47673241e-16,3.8458278 C3.83903905e-16,2.50854969 0.139238417,2.02362033 0.400699056,1.53473144 C0.662159695,1.04584256 1.04584256,0.662159695 1.53473144,0.400699056 C2.02362033,0.139238417 2.50854969,-3.53811253e-16 3.8458278,-5.99465256e-16 L51.6666667,-2.31034812e-15 Z M62,3.8458278 L62,57.972354 L62,3.8458278 Z M58.1541722,61.8181818 L3.8458278,61.8181818 L58.1541722,61.8181818 Z" id="Rectangle-Copy-56"></path>
                        </g>
                    </g>
                    <g id="Large-background-square" transform="translate(199.000000, 133.000000)">
                        <g id="Background-Square">
                            <path d="M3.8458278,-5.99465256e-16 L58.1541722,-2.54245116e-15 L3.8458278,0 Z M62,10.3030303 L62,57.972354 C62,59.3096321 61.8607616,59.7945615 61.5993009,60.2834504 C61.3378403,60.7723393 60.9541574,61.1560221 60.4652686,61.4174828 C59.9763797,61.6789434 59.4914503,61.8181818 58.1541722,61.8181818 L10.3333333,61.8181818 L13.5245098,58.6363636 L58.8,58.6363636 L58.8,13.4936461 L62,10.3030303 Z M3.40505179e-16,57.972354 L5.47673241e-16,3.8458278 L0,57.972354 Z" id="Rectangle-Copy-55"></path>
                            <path d="M51.6666667,-3.55271368e-15 L48.4754902,3.18181818 L3.2,3.18181818 L3.2,48.3245357 L0,51.5151515 L5.47673241e-16,3.8458278 C3.83903905e-16,2.50854969 0.139238417,2.02362033 0.400699056,1.53473144 C0.662159695,1.04584256 1.04584256,0.662159695 1.53473144,0.400699056 C2.02362033,0.139238417 2.50854969,-3.53811253e-16 3.8458278,-5.99465256e-16 L51.6666667,-2.31034812e-15 Z M62,3.8458278 L62,57.972354 L62,3.8458278 Z M58.1541722,61.8181818 L3.8458278,61.8181818 L58.1541722,61.8181818 Z" id="Rectangle-Copy-56"></path>
                        </g>
                    </g>
                    <g id="Background-Square" transform="translate(0.000000, 198.000000)">
                        <g>
                            <path d="M27,8 L30,5 L30,26.1541722 C30,27.4914503 29.8607616,27.9763797 29.5993009,28.4652686 C29.3378403,28.9541574 28.9541574,29.3378403 28.4652686,29.5993009 C27.9763797,29.8607616 27.4914503,30 26.1541722,30 L5,30 L8,27 L27,27 L27,8 Z M3.8458278,-1.55376046e-16 L26.1541722,1.55376046e-16 L3.8458278,0 Z M0,26.1541722 L0,3.8458278 L-1.03584031e-16,26.1541722 Z" id="Rectangle-Copy-55"></path>
                            <path d="M25,-1.33226763e-15 L22,3 L3,3 L3,22 L8.8817842e-16,25 L1.03584031e-16,3.8458278 C-6.01853049e-17,2.50854969 0.139238417,2.02362033 0.400699056,1.53473144 C0.662159695,1.04584256 1.04584256,0.662159695 1.53473144,0.400699056 C2.02362033,0.139238417 2.50854969,9.02779573e-17 3.8458278,-1.55376046e-16 L25,1.3929859e-16 Z M30,3.8458278 L30,26.1541722 L30,3.8458278 Z M26.1541722,30 L3.8458278,30 L26.1541722,30 Z" id="Rectangle-Copy-56"></path>
                        </g>
                    </g>
                    <g id="Background-Square" transform="translate(132.000000, 231.000000)">
                        <g>
                            <path d="M27,8 L30,5 L30,26.1541722 C30,27.4914503 29.8607616,27.9763797 29.5993009,28.4652686 C29.3378403,28.9541574 28.9541574,29.3378403 28.4652686,29.5993009 C27.9763797,29.8607616 27.4914503,30 26.1541722,30 L5,30 L8,27 L27,27 L27,8 Z M3.8458278,-1.55376046e-16 L26.1541722,1.55376046e-16 L3.8458278,0 Z M0,26.1541722 L0,3.8458278 L-1.03584031e-16,26.1541722 Z" id="Rectangle-Copy-55"></path>
                            <path d="M25,-1.33226763e-15 L22,3 L3,3 L3,22 L8.8817842e-16,25 L1.03584031e-16,3.8458278 C-6.01853049e-17,2.50854969 0.139238417,2.02362033 0.400699056,1.53473144 C0.662159695,1.04584256 1.04584256,0.662159695 1.53473144,0.400699056 C2.02362033,0.139238417 2.50854969,9.02779573e-17 3.8458278,-1.55376046e-16 L25,1.3929859e-16 Z M30,3.8458278 L30,26.1541722 L30,3.8458278 Z M26.1541722,30 L3.8458278,30 L26.1541722,30 Z" id="Rectangle-Copy-56"></path>
                        </g>
                    </g>
                    <g id="Background-Square" transform="translate(99.000000, 231.000000)">
                        <g>
                            <path d="M27,8 L30,5 L30,26.1541722 C30,27.4914503 29.8607616,27.9763797 29.5993009,28.4652686 C29.3378403,28.9541574 28.9541574,29.3378403 28.4652686,29.5993009 C27.9763797,29.8607616 27.4914503,30 26.1541722,30 L5,30 L8,27 L27,27 L27,8 Z M3.8458278,-1.55376046e-16 L26.1541722,1.55376046e-16 L3.8458278,0 Z M0,26.1541722 L0,3.8458278 L-1.03584031e-16,26.1541722 Z" id="Rectangle-Copy-55"></path>
                            <path d="M25,-1.33226763e-15 L22,3 L3,3 L3,22 L8.8817842e-16,25 L1.03584031e-16,3.8458278 C-6.01853049e-17,2.50854969 0.139238417,2.02362033 0.400699056,1.53473144 C0.662159695,1.04584256 1.04584256,0.662159695 1.53473144,0.400699056 C2.02362033,0.139238417 2.50854969,9.02779573e-17 3.8458278,-1.55376046e-16 L25,1.3929859e-16 Z M30,3.8458278 L30,26.1541722 L30,3.8458278 Z M26.1541722,30 L3.8458278,30 L26.1541722,30 Z" id="Rectangle-Copy-56"></path>
                        </g>
                    </g>
                    <g id="Background-Square" transform="translate(66.000000, 231.000000)">
                        <g>
                            <path d="M27,8 L30,5 L30,26.1541722 C30,27.4914503 29.8607616,27.9763797 29.5993009,28.4652686 C29.3378403,28.9541574 28.9541574,29.3378403 28.4652686,29.5993009 C27.9763797,29.8607616 27.4914503,30 26.1541722,30 L5,30 L8,27 L27,27 L27,8 Z M3.8458278,-1.55376046e-16 L26.1541722,1.55376046e-16 L3.8458278,0 Z M0,26.1541722 L0,3.8458278 L-1.03584031e-16,26.1541722 Z" id="Rectangle-Copy-55"></path>
                            <path d="M25,-1.33226763e-15 L22,3 L3,3 L3,22 L8.8817842e-16,25 L1.03584031e-16,3.8458278 C-6.01853049e-17,2.50854969 0.139238417,2.02362033 0.400699056,1.53473144 C0.662159695,1.04584256 1.04584256,0.662159695 1.53473144,0.400699056 C2.02362033,0.139238417 2.50854969,9.02779573e-17 3.8458278,-1.55376046e-16 L25,1.3929859e-16 Z M30,3.8458278 L30,26.1541722 L30,3.8458278 Z M26.1541722,30 L3.8458278,30 L26.1541722,30 Z" id="Rectangle-Copy-56"></path>
                        </g>
                    </g>
                    <g id="Background-Square" transform="translate(33.000000, 231.000000)">
                        <g>
                            <path d="M27,8 L30,5 L30,26.1541722 C30,27.4914503 29.8607616,27.9763797 29.5993009,28.4652686 C29.3378403,28.9541574 28.9541574,29.3378403 28.4652686,29.5993009 C27.9763797,29.8607616 27.4914503,30 26.1541722,30 L5,30 L8,27 L27,27 L27,8 Z M3.8458278,-1.55376046e-16 L26.1541722,1.55376046e-16 L3.8458278,0 Z M0,26.1541722 L0,3.8458278 L-1.03584031e-16,26.1541722 Z" id="Rectangle-Copy-55"></path>
                            <path d="M25,-1.33226763e-15 L22,3 L3,3 L3,22 L8.8817842e-16,25 L1.03584031e-16,3.8458278 C-6.01853049e-17,2.50854969 0.139238417,2.02362033 0.400699056,1.53473144 C0.662159695,1.04584256 1.04584256,0.662159695 1.53473144,0.400699056 C2.02362033,0.139238417 2.50854969,9.02779573e-17 3.8458278,-1.55376046e-16 L25,1.3929859e-16 Z M30,3.8458278 L30,26.1541722 L30,3.8458278 Z M26.1541722,30 L3.8458278,30 L26.1541722,30 Z" id="Rectangle-Copy-56"></path>
                        </g>
                    </g>
                    <g id="Background-Square" transform="translate(0.000000, 231.000000)">
                        <g>
                            <path d="M27,8 L30,5 L30,26.1541722 C30,27.4914503 29.8607616,27.9763797 29.5993009,28.4652686 C29.3378403,28.9541574 28.9541574,29.3378403 28.4652686,29.5993009 C27.9763797,29.8607616 27.4914503,30 26.1541722,30 L5,30 L8,27 L27,27 L27,8 Z M3.8458278,-1.55376046e-16 L26.1541722,1.55376046e-16 L3.8458278,0 Z M0,26.1541722 L0,3.8458278 L-1.03584031e-16,26.1541722 Z" id="Rectangle-Copy-55"></path>
                            <path d="M25,-1.33226763e-15 L22,3 L3,3 L3,22 L8.8817842e-16,25 L1.03584031e-16,3.8458278 C-6.01853049e-17,2.50854969 0.139238417,2.02362033 0.400699056,1.53473144 C0.662159695,1.04584256 1.04584256,0.662159695 1.53473144,0.400699056 C2.02362033,0.139238417 2.50854969,9.02779573e-17 3.8458278,-1.55376046e-16 L25,1.3929859e-16 Z M30,3.8458278 L30,26.1541722 L30,3.8458278 Z M26.1541722,30 L3.8458278,30 L26.1541722,30 Z" id="Rectangle-Copy-56"></path>
                        </g>
                    </g>
                </g>
            </g>
        </g>
    </g>
</svg>