<?xml version="1.0" encoding="UTF-8"?>
<svg width="30px" height="30px" viewBox="0 0 30 30" version="1.1" xmlns="http://www.w3.org/2000/svg" xmlns:xlink="http://www.w3.org/1999/xlink">
    <!-- Generator: Sketch 50.2 (55047) - http://www.bohemiancoding.com/sketch -->
    <title>Empty square Copy 8</title>
    <desc>Created with Sketch.</desc>
    <defs></defs>
    <g id="Page-1" stroke="none" stroke-width="1" fill="none" fill-rule="evenodd">
        <g id="Artboard" transform="translate(-1152.000000, -675.000000)" fill="#4D4347">
            <g id="Empty-square-Copy-8" transform="translate(1152.000000, 675.000000)">
                <path d="M27,8 L30,5 L30,26.1541722 C30,27.4914503 29.8607616,27.9763797 29.5993009,28.4652686 C29.3378403,28.9541574 28.9541574,29.3378403 28.4652686,29.5993009 C27.9763797,29.8607616 27.4914503,30 26.1541722,30 L5,30 L8,27 L27,27 L27,8 Z M3.8458278,-1.55376046e-16 L26.1541722,1.55376046e-16 L3.8458278,0 Z M0,26.1541722 L0,3.8458278 L-1.03584031e-16,26.1541722 Z" id="Rectangle-Copy-55"></path>
                <path d="M25,-1.33226763e-15 L22,3 L3,3 L3,22 L8.8817842e-16,25 L1.03584031e-16,3.8458278 C-6.01853049e-17,2.50854969 0.139238417,2.02362033 0.400699056,1.53473144 C0.662159695,1.04584256 1.04584256,0.662159695 1.53473144,0.400699056 C2.02362033,0.139238417 2.50854969,9.02779573e-17 3.8458278,-1.55376046e-16 L25,1.3929859e-16 Z M30,3.8458278 L30,26.1541722 L30,3.8458278 Z M26.1541722,30 L3.8458278,30 L26.1541722,30 Z" id="Rectangle-Copy-56"></path>
            </g>
        </g>
    </g>
</svg>