<?xml version="1.0" encoding="UTF-8" standalone="no"?>
<svg width="16px" height="16px" viewBox="0 0 16 16" version="1.1" xmlns="http://www.w3.org/2000/svg" xmlns:xlink="http://www.w3.org/1999/xlink">
    <!-- Generator: Sketch 43.2 (39069) - http://www.bohemiancoding.com/sketch -->
    <title>Slice 1</title>
    <desc>Created with Sketch.</desc>
    <defs></defs>
    <g id="Page-1" stroke="none" stroke-width="1" fill="none" fill-rule="evenodd">
        <g id="github" fill="#E8E9E9">
            <path d="M8,0 C3.58,0 0,3.582 0,8 C0,11.535 2.292,14.533 5.47,15.59 C5.87,15.665 6.017,15.418 6.017,15.205 C6.017,15.015 6.01,14.512 6.007,13.845 C3.781,14.328 3.312,12.772 3.312,12.772 C2.948,11.848 2.422,11.602 2.422,11.602 C1.697,11.106 2.478,11.116 2.478,11.116 C3.281,11.172 3.703,11.94 3.703,11.94 C4.417,13.163 5.576,12.81 6.033,12.605 C6.105,12.088 6.311,11.735 6.54,11.535 C4.763,11.335 2.896,10.647 2.896,7.582 C2.896,6.709 3.206,5.995 3.719,5.435 C3.636,5.233 3.361,4.42 3.796,3.318 C3.796,3.318 4.468,3.103 5.996,4.138 C6.634,3.96 7.319,3.872 7.999,3.868 C8.679,3.872 9.363,3.96 10.002,4.138 C11.529,3.103 12.2,3.318 12.2,3.318 C12.637,4.42 12.363,5.233 12.28,5.435 C12.793,5.995 13.103,6.709 13.103,7.582 C13.103,10.655 11.233,11.332 9.45,11.529 C9.737,11.775 9.993,12.264 9.993,13.009 C9.993,14.079 9.983,14.942 9.983,15.204 C9.983,15.419 10.127,15.667 10.533,15.589 C13.71,14.53 16,11.534 16,8 C16,3.582 12.418,0 8,0" id="Shape"></path>
        </g>
    </g>
</svg>