<svg viewBox="0 0 700 355" xmlns="http://www.w3.org/2000/svg" xmlns:xlink="http://www.w3.org/1999/xlink"><defs><path d="M350.949685,190.781616 C373.060515,171.172932 387,142.522229 387,110.609243 C387,51.5000469 339.178639,3.58257608 280.188,3.58257608 C245.174435,3.58257608 214.095751,20.4636607 194.615998,46.5463764 C175.329341,18.7077751 143.195022,0.480353856 106.812,0.480353856 C47.8213613,0.480353856 0,48.3978247 0,107.507021 C0,139.555581 14.0581732,168.31408 36.3325525,187.92881 L195,354.480354 L350.949685,190.781616 Z" id="a"/></defs><g fill="none" fill-rule="evenodd"><g><g><text font-family="Exo2-SemiBold, Exo 2" font-size="48" font-weight="500" fill="#1D5FC4" transform="translate(-49)"><tspan x="39" y="264">designy </tspan> <tspan x="45.1" y="317">outside</tspan></text><text font-family="Exo2-SemiBold, Exo 2" font-size="48" font-weight="500" fill="#42543F" transform="translate(-49)"><tspan x="607" y="264">mathy </tspan> <tspan x="607" y="317">inside</tspan></text><g transform="translate(171)"><mask id="b" fill="#fff"><use xlink:href="#a"/></mask><use fill="#DEDFDF" xlink:href="#a"/><g mask="url(#b)"><g><path d="M159.790262,306.992528 C240.539671,306.992528 306,241.49144 306,160.691753 C306,79.8920657 240.539671,14.3909774 159.790262,14.3909774 C79.0408537,14.3909774 13.5805243,79.8920657 13.5805243,160.691753 C13.5805243,241.49144 79.0408537,306.992528 159.790262,306.992528 Z" fill="#1D5FC4" transform="rotate(7.5 776.664 -835.132)"/><g><g fill="#1D5FC4"><path d="M0 303L0 12 8 0.3 18 0.3 26 12 26 303 18.1 317 7.9 317" transform="rotate(142.5 38.99 117.81)"/></g></g><g><g fill="#1D5FC4"><path d="M0 303L0 12 8 0.3 18 0.3 26 12 26 303 18.1 317 7.9 317" transform="rotate(7.5 687.907 285.26)"/></g></g><g><g fill="#1D5FC4"><path d="M0 303L0 12 8 0.3 18 0.3 26 12 26 303 18.1 317 7.9 317" transform="rotate(22.5 242.914 170.432)"/></g></g><g><g fill="#1D5FC4"><path d="M0 303L0 12 8 0.3 18 0.3 26 12 26 303 18.1 317 7.9 317" transform="rotate(37.5 152.372 147.068)"/></g></g><g><g fill="#1D5FC4"><path d="M0 303L0 12 8 0.3 18 0.3 26 12 26 303 18.1 317 7.9 317" transform="rotate(52.5 112.434 136.762)"/></g></g><g><g fill="#1D5FC4"><path d="M0 303L0 12 8 0.3 18 0.3 26 12 26 303 18.1 317 7.9 317" transform="rotate(67.5 89.327 130.8)"/></g></g><g><g fill="#1D5FC4"><path d="M0 303L0 12 8 0.3 18 0.3 26 12 26 303 18.1 317 7.9 317" transform="rotate(82.5 73.827 126.8)"/></g></g><g><g fill="#1D5FC4"><path d="M0 303L0 12 8 0.3 18 0.3 26 12 26 303 18.1 317 7.9 317" transform="rotate(97.5 62.374 123.844)"/></g></g><g><g fill="#1D5FC4"><path d="M0 303L0 12 8 0.3 18 0.3 26 12 26 303 18.1 317 7.9 317" transform="rotate(112.5 53.29 121.5)"/></g></g><g><g fill="#1D5FC4"><path d="M0 303L0 12 8 0.3 18 0.3 26 12 26 303 18.1 317 7.9 317" transform="rotate(127.5 45.677 119.536)"/></g></g><g><g fill="#1D5FC4"><path d="M0 303L0 12 8 0.3 18 0.3 26 12 26 303 18.1 317 7.9 317" transform="rotate(157.5 32.878 116.233)"/></g></g><g><g fill="#1D5FC4"><path d="M0 303L0 12 8 0.3 18 0.3 26 12 26 303 18.1 317 7.9 317" transform="rotate(172.5 27.076 114.736)"/></g></g><g><g fill="#1D5FC4"><path d="M0 303L0 12 8 0.3 18 0.3 26 12 26 303 18.1 317 7.9 317" transform="rotate(-172.5 21.374 113.264)"/></g></g></g></g><g mask="url(#b)"><g transform="translate(256 -7.52)"><circle fill="#42543F" cx="110" cy="110" r="101"/><g><g fill="#41533E"><path d="M0 210L0 10 8.9 0 17.1 0 26 10 26 210 17.1 220 8.9 220" transform="rotate(22.5 61.5 353.826)"/></g></g><g><g fill="#41533E"><path d="M0 210L0 10 8.9 0 17.1 0 26 10 26 210 17.1 220 8.9 220" transform="translate(97)"/></g></g><g><g fill="#41533E"><path d="M0 210L0 10 8.9 0 17.1 0 26 10 26 210 17.1 220 8.9 220" transform="rotate(22.5 61.5 353.826)"/></g></g><g><g fill="#41533E"><path d="M0 210L0 10 8.9 0 17.1 0 26 10 26 210 17.1 220 8.9 220" transform="rotate(45 61.5 227.09)"/></g></g><g><g fill="#41533E"><path d="M0 210L0 10 8.9 0 17.1 0 26 10 26 210 17.1 220 8.9 220" transform="rotate(67.5 61.5 182.585)"/></g></g><g><g fill="#41533E"><path d="M0 210L0 10 8.9 0 17.1 0 26 10 26 210 17.1 220 8.9 220" transform="rotate(90 61.5 158.5)"/></g></g><g><g fill="#41533E"><path d="M0 210L0 10 8.9 0 17.1 0 26 10 26 210 17.1 220 8.9 220" transform="rotate(112.5 61.5 142.407)"/></g></g><g><g fill="#41533E"><path d="M0 210L0 10 8.9 0 17.1 0 26 10 26 210 17.1 220 8.9 220" transform="rotate(135 61.5 130.09)"/></g></g><g><g fill="#41533E"><path d="M0 210L0 10 8.9 0 17.1 0 26 10 26 210 17.1 220 8.9 220" transform="rotate(135 61.5 130.09)"/></g></g><g><g fill="#41533E"><path d="M0 210L0 10 8.9 0 17.1 0 26 10 26 210 17.1 220 8.9 220" transform="rotate(157.5 61.5 119.647)"/></g></g><g><g fill="#41533E"><path d="M0 210L0 10 8.9 0 17.1 0 26 10 26 210 17.1 220 8.9 220" transform="rotate(165 61.5 116.385)"/></g></g></g></g><g mask="url(#b)"><g transform="translate(109 143.48)"><circle fill="#BB1C1C" cx="108.5" cy="107.5" r="97.8"/><g><g fill="#BB1C1C"><path d="M0 204L0 10 7.9 0 18.1 0 26 10 26 204 18.1 214 7.9 214" transform="rotate(135 60.293 127.175)"/></g></g><g><g fill="#BB1C1C"><path d="M0 204L0 10 7.9 0 18.1 0 26 10 26 204 18.1 214 7.9 214" transform="rotate(35 58.914 258.15)"/></g></g><g><g fill="#BB1C1C"><path d="M0 204L0 10 7.9 0 18.1 0 26 10 26 204 18.1 214 7.9 214" transform="rotate(55 59.54 198.747)"/></g></g><g><g fill="#BB1C1C"><path d="M0 204L0 10 7.9 0 18.1 0 26 10 26 204 18.1 214 7.9 214" transform="rotate(75 59.848 169.403)"/></g></g><g><g fill="#BB1C1C"><path d="M0 204L0 10 7.9 0 18.1 0 26 10 26 204 18.1 214 7.9 214" transform="rotate(95 60.042 151.026)"/></g></g><g><g fill="#BB1C1C"><path d="M0 204L0 10 7.9 0 18.1 0 26 10 26 204 18.1 214 7.9 214" transform="rotate(115 60.18 137.76)"/></g></g><g><g fill="#BB1C1C"><path d="M0 204L0 10 7.9 0 18.1 0 26 10 26 204 18.1 214 7.9 214" transform="rotate(155 60.39 118.03)"/></g></g><g><g fill="#BB1C1C"><path d="M0 204L0 10 7.9 0 18.1 0 26 10 26 204 18.1 214 7.9 214" transform="rotate(175 60.478 109.574)"/></g></g><g><g fill="#BB1C1C"><path d="M0 204L0 10 7.9 0 18.1 0 26 10 26 204 18.1 214 7.9 214" transform="rotate(15 56.702 468.298)"/></g></g></g></g></g></g></g></g></svg>